<?xml version="1.0" encoding="iso-8859-1"?>
<!-- Generator: Adobe Illustrator 14.0.0, SVG Export Plug-In . SVG Version: 6.00 Build 43363)  -->
<!DOCTYPE svg PUBLIC "-//W3C//DTD SVG 1.1//EN" "http://www.w3.org/Graphics/SVG/1.1/DTD/svg11.dtd">
<svg version="1.1" id="&#x30EC;&#x30A4;&#x30E4;&#x30FC;_1"
	 xmlns="http://www.w3.org/2000/svg" xmlns:xlink="http://www.w3.org/1999/xlink" x="0px" y="0px" width="100%"
	 height="100%" viewBox="0 0 64.971 45.831" style="enable-background:new 0 0 64.971 45.831;" xml:space="preserve">
	 <?php echo $pattern;?>
<g>
	<g id="&#x30B7;&#x30A7;&#x30A4;&#x30D7;_6_&#x306E;&#x30B3;&#x30D4;&#x30FC;_3_">
		<g>
			<path style="fill:url(#seat); <?php echo $stroke;?>" d="M29.883,0.037c0,0-0.29-0.129-0.577,0.096
				c0,0-1.48,3.313-2.829,8.938c0,0.354-1.77,8.648-1.898,8.84c-0.126,0.191-0.417,1.641-4.114,1.094
				c-3.697-0.545-12.281-1.35-13.664-1.316c-1.383,0.031-4.598,0.127-5.562,1.188c0,0.451,0.45,0.451,0.45,0.451
				s1.736-1.479,9.967-0.643c8.069,0.996,8.744,1.029,8.744,1.029S24,20.13,24.771,18.908c0.258-0.322,0.577-0.578,0.9-2.154
				c0.289-1.703,1.513-7.232,1.64-7.49c0.129-0.258,1.512-6.912,2.797-8.713C30.205,0.132,29.883,0.037,29.883,0.037z"/>
		</g>
	</g>
	<g id="&#x30B7;&#x30A7;&#x30A4;&#x30D7;_6_1_">
		<g>
			<path style="fill:url(#back); <?php echo $stroke;?>" d="M30.389,0.5c0,0-0.291-0.129-0.581,0.098
				c0,0-1.484,3.322-2.839,8.969c0,0.355-1.774,8.678-1.904,8.871c-0.126,0.189-0.418,1.645-4.129,1.098
				c-3.709-0.551-12.324-1.355-13.71-1.324c-1.387,0.033-4.613,0.129-5.58,1.193c0,0.451,0.45,0.451,0.45,0.451
				s1.742-1.482,10.001-0.645c8.098,1,8.775,1.033,8.775,1.033s3.613,0.42,4.387-0.807c0.259-0.322,0.58-0.582,0.904-2.162
				c0.289-1.709,1.516-7.258,1.645-7.516s1.517-6.936,2.807-8.742C30.712,0.597,30.389,0.5,30.389,0.5z"/>
		</g>
	</g>
	<g id="&#x30B7;&#x30A7;&#x30A4;&#x30D7;_7_1_">
		<g>
			<polygon style="fill:url(#frame); <?php echo $stroke;?>" points="21.162,20.791 13.259,19.824 0,45.117 1.29,45.728 
				13.259,22.921 20.936,23.857 31.228,45.761 32.614,45.117 			"/>
		</g>
	</g>
	<g id="&#x30B7;&#x30A7;&#x30A4;&#x30D7;_8_1_">
		<g>
			<path style="fill:url(#seat); <?php echo $stroke;?>" d="M61.68,1.017c-0.032-0.582-0.676-0.742-0.676-0.742H40.97
				c-0.679,0.322-0.679,1.064-0.808,1.322c-2.128,8.969-2.193,16.582-2.193,16.582s4.808,0.129,26.066,0
				C63.616,11.113,62.873,6.017,61.68,1.017z"/>
		</g>
	</g>
	<g id="&#x30B7;&#x30A7;&#x30A4;&#x30D7;_11_1_">
		<g>
			<path style="fill:url(#frame); <?php echo $stroke;?>" d="M64.971,19.535c-0.032-0.291-0.322-0.518-0.322-0.518H37.227
				c0,0-0.17,0.004-0.17,0.258c0,0.184,0.138,0.324,0.138,0.324l1.548-0.033L37.13,45.31c0,0,0.226,0.58,0.839,0.516
				c0.936,0,0.903-0.709,0.903-0.709l1.548-23.002l1.904-0.936l17.323,0.031l1.968,0.904L63.1,45.246c0,0,0.258,0.58,0.84,0.547
				c0.869,0,0.935-0.773,0.935-0.773l-1.517-25.42C63.357,19.599,64.906,19.566,64.971,19.535z"/>
		</g>
	</g>
	<rect x="37.315" y="18.087" style="fill:url(#seat); <?php echo $stroke;?>" width="27.396" height="0.998"/>
</g>
</svg>
