<?xml version="1.0" encoding="iso-8859-1"?>
<!-- Generator: Adobe Illustrator 14.0.0, SVG Export Plug-In . SVG Version: 6.00 Build 43363)  -->
<!DOCTYPE svg PUBLIC "-//W3C//DTD SVG 1.1//EN" "http://www.w3.org/Graphics/SVG/1.1/DTD/svg11.dtd">
<svg version="1.1" id="&#x30EC;&#x30A4;&#x30E4;&#x30FC;_1"
	 xmlns="http://www.w3.org/2000/svg" xmlns:xlink="http://www.w3.org/1999/xlink" x="0px" y="0px" width="100%"
	 height="100%" viewBox="0 0 69.475 45.591" style="enable-background:new 0 0 69.475 45.591;" xml:space="preserve">
	 <?php echo $pattern;?>
<g>
	<path style="fill:none;stroke:url(#seat);stroke-width:0.75;stroke-linecap:round;" d="M1.641,18.937
		c1.08-0.709,3.152-1.072,5.359-1.053c3.686,0.033,9.027,0.771,11.217,1.049s5.4,0.613,6.172-0.281
		c0.77-0.895,1.092-4.393,1.922-7.578c0.344-1.318,1.584-6.893,2.094-8.172c0.508-1.279,1.189-2.484,1.189-2.484"/>
	<g>
		<g id="&#x30B7;&#x30A7;&#x30A4;&#x30D7;_6_&#x306E;&#x30B3;&#x30D4;&#x30FC;_2_">
			<g>
				<path style="fill:url(#back); <?php echo $stroke;?>" d="M30.285,0.452c0,0-0.291-0.127-0.578,0.098
					c0,0-1.48,3.311-2.828,8.938c0,0.354-1.77,8.648-1.898,8.84c-0.127,0.189-0.418,1.641-4.115,1.094s-12.281-1.35-13.664-1.318
					c-1.383,0.033-4.598,0.129-5.561,1.189c0,0.451,0.449,0.451,0.449,0.451s1.736-1.479,9.967-0.643
					c8.07,0.996,8.744,1.027,8.744,1.027s3.602,0.418,4.373-0.803c0.258-0.322,0.576-0.58,0.9-2.154
					c0.289-1.705,1.512-7.232,1.639-7.49c0.129-0.258,1.512-6.912,2.797-8.713C30.607,0.55,30.285,0.452,30.285,0.452z"/>
			</g>
		</g>
		<g id="&#x30B7;&#x30A7;&#x30A4;&#x30D7;_7_&#x306E;&#x30B3;&#x30D4;&#x30FC;_2_">
			<g>
				<polygon style="fill:url(#frame); <?php echo $stroke;?>" points="21.09,20.675 13.213,19.71 0,44.915 1.287,45.526 
					13.213,22.796 20.865,23.729 31.121,45.56 32.502,44.915 				"/>
			</g>
		</g>
		<g id="&#x30B7;&#x30A7;&#x30A4;&#x30D7;_12_2_">
			<g>
				<path style="fill:url(#seat); <?php echo $stroke;?>" d="M63.463,0.39c-0.16-0.451-0.611-0.387-0.611-0.387H42.889
					c0,0-0.547-0.031-0.707,0.707c-0.162,0.74-1.896,7.459-2.348,17.264h25.943C65.777,17.974,65.521,7.397,63.463,0.39z"/>
			</g>
		</g>
		<g id="&#x30B7;&#x30A7;&#x30A4;&#x30D7;_14_2_">
			<g>
				<path style="fill:url(#frame); <?php echo $stroke;?>" d="M67.906,20.056l-1.469-0.699c0,0,0.238-0.043,0.238-0.189
					c-0.008-0.52-0.094-0.438-0.094-0.438s-27.139-0.047-27.416,0c-0.199,0.035-0.236,0.324-0.236,0.324l0.066,0.23l-1.422,0.797
					l-1.543,24.811c0,0,0.025,0.699,0.773,0.699c0.746,0,0.916-0.627,0.916-0.627l1.445-23.1l2.012-1.012h23.016l2.025,0.988
					l1.496,23.146c0,0,0.408,0.58,0.988,0.58c0.578,0,0.771-0.771,0.771-0.771L67.906,20.056z"/>
			</g>
		</g>
	</g>
	<rect x="39.055" y="17.858" style="fill:url(#seat); <?php echo $stroke;?>" width="27.396" height="0.85"/>
</g>
</svg>
