<?xml version="1.0" encoding="utf-8"?>
<!-- Generator: Adobe Illustrator 14.0.0, SVG Export Plug-In . SVG Version: 6.00 Build 43363)  -->
<!DOCTYPE svg PUBLIC "-//W3C//DTD SVG 1.1//EN" "http://www.w3.org/Graphics/SVG/1.1/DTD/svg11.dtd">
<svg version="1.1" id="レイヤー_1" xmlns="http://www.w3.org/2000/svg" xmlns:xlink="http://www.w3.org/1999/xlink" x="0px"
	 y="0px" width="100%" height="100%" viewBox="0 0 69.475 45.591" enable-background="new 0 0 69.475 45.591"
	 xml:space="preserve">
	<?php echo $pattern;?>
<g>
	<g id="シェイプ_6_のコピー_5_">
		<g>
			<path style="fill:url(#back); <?php echo $stroke;?>" d="M30.284,0.452c0,0-0.29-0.127-0.577,0.098
				c0,0-1.48,3.311-2.829,8.938c0,0.354-1.77,8.648-1.898,8.84c-0.126,0.189-0.417,1.641-4.114,1.094s-12.281-1.35-13.664-1.318
				c-1.383,0.033-4.598,0.129-5.562,1.189c0,0.451,0.45,0.451,0.45,0.451s1.736-1.479,9.967-0.643
				c8.069,0.996,8.744,1.027,8.744,1.027s3.601,0.418,4.372-0.803c0.258-0.322,0.577-0.58,0.9-2.154
				c0.289-1.705,1.513-7.232,1.64-7.49c0.129-0.258,1.512-6.912,2.797-8.713C30.606,0.55,30.284,0.452,30.284,0.452z"/>
		</g>
	</g>
	<g id="シェイプ_7_のコピー_4_">
		<g>
			<polygon style="fill:url(#frame); <?php echo $stroke;?>" points="21.09,20.675 13.213,19.71 0,44.915 1.286,45.526 
				13.213,22.796 20.865,23.729 31.12,45.56 32.502,44.915 			"/>
		</g>
	</g>
	<g id="シェイプ_12_4_">
		<g>
			<path style="fill:url(#back); <?php echo $stroke;?>" d="M63.462,0.39c-0.16-0.451-0.61-0.387-0.61-0.387H42.888
				c0,0-0.546-0.031-0.707,0.707c-0.162,0.74-1.896,7.459-2.347,17.264h25.942C65.776,17.974,65.521,7.397,63.462,0.39z
				 M59.71,15.21H45.942c0,0-0.774-0.145-0.774-0.748c0-0.602,0.677-0.699,0.677-0.699l13.815,0.074c0,0,0.41,0.264,0.41,0.674
				C60.07,14.897,59.71,15.21,59.71,15.21z"/>
		</g>
	</g>
	<g id="シェイプ_14_4_">
		<g>
			<path style="fill:url(#frame); <?php echo $stroke;?>" d="M67.906,20.056l-1.469-0.699c0,0,0.238-0.043,0.237-0.189
				c-0.008-0.52-0.094-0.438-0.094-0.438s-27.138-0.047-27.416,0c-0.199,0.035-0.236,0.324-0.236,0.324l0.067,0.23l-1.422,0.797
				l-1.543,24.811c0,0,0.024,0.699,0.772,0.699c0.747,0,0.916-0.627,0.916-0.627l1.445-23.1l2.012-1.012h23.017l2.025,0.988
				l1.495,23.146c0,0,0.409,0.58,0.988,0.58s0.772-0.771,0.772-0.771L67.906,20.056z"/>
		</g>
	</g>
</g>
</svg>
