<?xml version="1.0" encoding="utf-8"?>
<!-- Generator: Adobe Illustrator 14.0.0, SVG Export Plug-In . SVG Version: 6.00 Build 43363)  -->
<!DOCTYPE svg PUBLIC "-//W3C//DTD SVG 1.1//EN" "http://www.w3.org/Graphics/SVG/1.1/DTD/svg11.dtd">
<svg version="1.1" id="レイヤー_1" xmlns="http://www.w3.org/2000/svg" xmlns:xlink="http://www.w3.org/1999/xlink" x="0px"
	 y="0px" width="100%" height="100%" viewBox="0 0 65.249 45.498" enable-background="new 0 0 65.249 45.498"
	 xml:space="preserve">
	 <?php echo $pattern;?>
<g>
	<path fill="none" d="M55.889,13.811l-12.387-0.025c-0.371,0-0.672,0.273-0.672,0.643s0.301,0.67,0.672,0.67l12.387,0.055
		c0.371,0,0.672-0.301,0.672-0.67C56.561,14.111,56.26,13.811,55.889,13.811z"/>
	<path style="fill:url(#back); <?php echo $stroke;?>" d="M59.506,0.002H40.23c-1.559,5.576-2.199,14.479-2.373,17.965h23.945
		C61.646,14.439,61.057,5.557,59.506,0.002z M55.889,15.152l-12.387-0.055c-0.371,0-0.672-0.301-0.672-0.67s0.301-0.643,0.672-0.643
		l12.387,0.025c0.371,0,0.672,0.301,0.672,0.672C56.561,14.852,56.26,15.152,55.889,15.152z"/>
	<path style="fill:url(#frame); <?php echo $stroke;?>" d="M63.936,22.385l-0.178-3.029l-0.012-0.203c-0.012-0.162-0.068-0.314-0.16-0.436H36.139
		c-0.129,0.135-0.215,0.314-0.227,0.518l-0.004,0.076l-0.174,2.941L34.41,44.646c-0.025,0.443,0.313,0.824,0.756,0.85
		c0.018,0.002,0.033,0.002,0.049,0.002c0.422,0,0.777-0.33,0.801-0.758l1.324-22.395l0.035-0.594l3.9-2.551h17.092l3.928,2.662
		l0.035,0.617l1.311,22.223c0.025,0.428,0.381,0.758,0.803,0.758c0.018,0,0.033,0,0.047-0.002c0.445-0.025,0.783-0.406,0.758-0.85
		L63.936,22.385z"/>
	<path style="fill:url(#back); <?php echo $stroke;?>" d="M26.141,0c-0.307,0.445-0.582,1.078-0.873,1.916c-0.855,2.51-1.837,7.069-3.087,13.192l0.004,0.001
		c-0.34,1.52-0.437,2.638-0.759,3.262c-0.168,0.326-0.363,0.531-0.727,0.693c-0.365,0.16-0.92,0.252-1.736,0.252
		c-0.821,0-1.902-0.091-3.316-0.272v-0.001c-5-0.785-8.373-1.084-10.688-1.084c-1.514,0-2.578,0.127-3.355,0.34
		C0.828,18.508,0.33,18.814,0,19.16l0.504,0.484c0.236-0.24,0.596-0.48,1.285-0.672c0.686-0.188,1.695-0.314,3.17-0.314
		c2.256,0,5.598,0.295,10.578,1.076c1.439,0.186,2.549,0.283,3.426,0.283c0.865-0.002,1.506-0.094,2.014-0.311
		c0.379-0.162,0.676-0.406,0.887-0.707c0.32-0.453,0.463-1.002,0.594-1.648s0.242-1.402,0.453-2.291l-0.007-0.002
		c0.812-3.966,1.554-7.438,2.155-9.85c0.307-1.234,0.598-2.258,0.873-3.066c0.277-0.805,0.545-1.396,0.785-1.744L26.141,0z"/>
	<path style="fill:url(#frame); <?php echo $stroke;?>" d="M28.52,44.852l-9.639-22.256l0.51-1.611c0.002-0.006,0.002-0.01,0.004-0.016
		c0.002-0.01,0.004-0.02,0.006-0.029v-0.004c0.002-0.012,0.002-0.023,0.002-0.033c0-0.008,0-0.018,0-0.023
		c-0.002-0.01-0.004-0.02-0.006-0.027c0-0.01,0-0.018-0.004-0.027c-0.002-0.008-0.006-0.016-0.008-0.021
		c-0.004-0.01-0.008-0.02-0.012-0.029c-0.002-0.006-0.008-0.014-0.012-0.018c-0.006-0.01-0.012-0.02-0.016-0.027
		c-0.006-0.006-0.012-0.012-0.018-0.018s-0.012-0.014-0.021-0.021c-0.006-0.004-0.01-0.008-0.018-0.014
		c-0.01-0.006-0.016-0.014-0.025-0.018c-0.006-0.004-0.014-0.006-0.02-0.008c-0.012-0.006-0.02-0.012-0.031-0.016h-0.006
		c-0.006-0.004-0.014-0.004-0.021-0.006s-0.016-0.004-0.025-0.006l-9.73-1.33H9.414c-0.01-0.002-0.02-0.002-0.027-0.002
		c-0.01,0-0.02,0-0.027,0.002c-0.01,0.002-0.018,0.002-0.025,0.004c-0.012,0.002-0.02,0.004-0.027,0.008
		c-0.01,0.002-0.018,0.006-0.025,0.008c-0.01,0.004-0.016,0.01-0.025,0.012c-0.008,0.004-0.016,0.01-0.021,0.014
		c-0.008,0.006-0.018,0.012-0.025,0.02c-0.002,0.002-0.006,0.004-0.01,0.008c-0.004,0.002-0.006,0.006-0.006,0.008
		c-0.008,0.008-0.016,0.016-0.023,0.023c-0.004,0.006-0.008,0.014-0.014,0.021c-0.006,0.006-0.01,0.016-0.014,0.023
		s-0.008,0.016-0.012,0.023c-0.004,0.01-0.006,0.018-0.01,0.027C9.119,19.5,9.119,19.51,9.115,19.52
		c0,0.004-0.002,0.008-0.002,0.012c-0.002,0.006,0,0.01,0,0.014c-0.002,0.01-0.002,0.02-0.002,0.029c0,0.008,0,0.018,0.002,0.027
		c0,0.008,0.002,0.018,0.006,0.025c0,0.012,0.002,0.02,0.004,0.027c0.002,0.01,0.006,0.016,0.01,0.025
		c0.004,0.008,0.008,0.016,0.012,0.025c0.004,0.008,0.01,0.014,0.016,0.021s0.01,0.016,0.016,0.023
		c0.004,0.004,0.006,0.008,0.01,0.01l2.297,2.486L0.842,44.9l1.268,0.598L12.357,23.68h5.447v-0.043l9.43,21.771L28.52,44.852z"/>
</g>
</svg>
