<?xml version="1.0" encoding="utf-8"?>
<!-- Generator: Adobe Illustrator 14.0.0, SVG Export Plug-In . SVG Version: 6.00 Build 43363)  -->
<!DOCTYPE svg PUBLIC "-//W3C//DTD SVG 1.1//EN" "http://www.w3.org/Graphics/SVG/1.1/DTD/svg11.dtd">
<svg version="1.1" id="レイヤー_1" xmlns="http://www.w3.org/2000/svg" xmlns:xlink="http://www.w3.org/1999/xlink" x="0px"
	 y="0px" width="100%" height="100%" viewBox="0 0 64.971 45.556" enable-background="new 0 0 64.971 45.556"
	 xml:space="preserve">
	 <?php echo $pattern;?>
<g>
	<g>
		<g id="シェイプ_6_4_">
			<g>
				<path style="fill:url(#back); <?php echo $stroke;?>" d="M30.389,0.225c0,0-0.291-0.129-0.581,0.098
					c0,0-1.484,3.322-2.839,8.969c0,0.355-1.774,8.678-1.904,8.871c-0.126,0.189-0.418,1.645-4.129,1.098
					c-3.709-0.551-12.324-1.355-13.71-1.324c-1.387,0.033-4.613,0.129-5.58,1.193c0,0.451,0.45,0.451,0.45,0.451
					s1.742-1.482,10.001-0.645c8.098,1,8.775,1.033,8.775,1.033s3.613,0.42,4.387-0.807c0.259-0.322,0.58-0.582,0.904-2.162
					c0.289-1.709,1.516-7.258,1.645-7.516s1.517-6.936,2.807-8.742C30.712,0.322,30.389,0.225,30.389,0.225z"/>
			</g>
		</g>
		<g id="シェイプ_7_4_">
			<g>
				<polygon style="fill:url(#frame); <?php echo $stroke;?>" points="21.162,20.516 13.259,19.549 0,44.842 1.29,45.453 
					13.259,22.646 20.936,23.582 31.228,45.486 32.614,44.842 				"/>
			</g>
		</g>
		<g id="シェイプ_8_5_">
			<g>
				<path style="fill:url(#back); <?php echo $stroke;?>" d="M61.68,0.742C61.647,0.16,61.004,0,61.004,0H40.97
					c-0.679,0.322-0.679,1.064-0.808,1.322c-2.128,8.969-2.193,16.582-2.193,16.582s4.808,0.129,26.066,0
					C63.616,10.838,62.873,5.742,61.68,0.742z M57.713,15.193H44.002c0,0-0.613-0.227-0.613-0.613s0.322-0.838,0.678-0.838h13.55
					c0,0,0.644,0.227,0.644,0.678S57.713,15.193,57.713,15.193z"/>
			</g>
		</g>
		<g id="シェイプ_11_4_">
			<g>
				<path style="fill:url(#frame); <?php echo $stroke;?>" d="M64.971,19.26c-0.032-0.291-0.322-0.518-0.322-0.518H37.227
					c0,0-0.17,0.004-0.17,0.258c0,0.184,0.138,0.324,0.138,0.324l1.548-0.033L37.13,45.035c0,0,0.226,0.58,0.839,0.516
					c0.936,0,0.903-0.709,0.903-0.709L40.42,21.84l1.904-0.936l17.323,0.031l1.968,0.904L63.1,44.971c0,0,0.258,0.58,0.84,0.547
					c0.869,0,0.935-0.773,0.935-0.773l-1.517-25.42C63.357,19.324,64.906,19.291,64.971,19.26z"/>
			</g>
		</g>
	</g>
</g>
</svg>
