<?xml version="1.0" encoding="utf-8"?>
<!-- Generator: Adobe Illustrator 14.0.0, SVG Export Plug-In . SVG Version: 6.00 Build 43363)  -->
<!DOCTYPE svg PUBLIC "-//W3C//DTD SVG 1.1//EN" "http://www.w3.org/Graphics/SVG/1.1/DTD/svg11.dtd">
<svg version="1.1" id="レイヤー_1" xmlns="http://www.w3.org/2000/svg" xmlns:xlink="http://www.w3.org/1999/xlink" x="0px"
	 y="0px" width="100%" height="100%" viewBox="0 0 68.316 47.891" enable-background="new 0 0 68.316 47.891"
	 xml:space="preserve">
	  <?php echo $pattern;?>
<g>
	<path style="fill:url(#frame); <?php echo $stroke;?>" d="M27.299,22.602c-0.146-1.197-0.215-2.402-0.215-3.619c-0.002-5.693,1.527-11.678,3.893-18.488L29.555,0
		c-2.387,6.875-3.975,13.016-3.977,18.982c0,0.48,0.145,2.789,0.166,3.268L1.791,21.369l0,0l-0.742-0.027l-0.127,3.953L0,47.754
		l1.504,0.063l0.924-22.469l23.867,0.791l3.107,21.752l1.49-0.213L27.311,22.6L27.299,22.602z"/>
	<polygon style="fill:url(#frame); <?php echo $stroke;?>" points="64.474,21.986 44.833,21.986 44.833,21.986 44.406,21.986 44.406,47.891 46.826,47.891 
		46.826,25.688 62.48,25.688 62.48,47.891 64.902,47.891 64.902,21.986 64.474,21.986 	"/>
	<path style="fill:url(#seat); <?php echo $stroke;?>" d="M2.143,19.922l23.482,0.797c0.027,0.51,0.066,1.018,0.119,1.523l-23.65-0.863L2.143,19.922z"/>
	<rect x="45.117" y="20.422" style="fill:url(#seat); <?php echo $stroke;?>" width="19.074" height="1.564"/>
	<g>
		<path style="fill:url(#frame); <?php echo $stroke;?>" d="M54.654,0.637c-3.416,0-13.656-0.283-13.664-0.285v47.539h2.42V13.795
			c3.248,0.084,8.879,0.223,11.244,0.223c2.363,0,7.996-0.139,11.244-0.223v34.096h2.418V0.352
			C68.269,0.354,58.06,0.637,54.654,0.637z M65.185,10.969c-3.305,0.084-8.334,0.201-10.531,0.201
			c-2.199,0-7.227-0.117-10.531-0.201V8.547c3.305,0.086,8.332,0.203,10.531,0.203c2.197,0,7.227-0.117,10.531-0.203V10.969z
			 M65.185,5.701c-3.305,0.084-8.334,0.203-10.531,0.203c-2.199,0-7.227-0.119-10.531-0.203v-2.42
			c3.305,0.084,8.332,0.203,10.531,0.203c2.197,0,7.227-0.119,10.531-0.203V5.701z"/>
	</g>
</g>
</svg>
