<?xml version="1.0" encoding="utf-8"?>
<!-- Generator: Adobe Illustrator 14.0.0, SVG Export Plug-In . SVG Version: 6.00 Build 43363)  -->
<!DOCTYPE svg PUBLIC "-//W3C//DTD SVG 1.1//EN" "http://www.w3.org/Graphics/SVG/1.1/DTD/svg11.dtd">
<svg version="1.1" id="レイヤー_1" xmlns="http://www.w3.org/2000/svg" xmlns:xlink="http://www.w3.org/1999/xlink" x="0px"
	 y="0px" width="100%" height="100%" viewBox="0 0 68.318 47.891" enable-background="new 0 0 68.318 47.891"
	 xml:space="preserve">
	  <?php echo $pattern;?>
<g>
	<path style="fill:url(#frame); <?php echo $stroke;?>" d="M27.299,22.604c-0.146-1.199-0.215-2.404-0.215-3.619c-0.002-5.695,1.527-11.678,3.893-18.49L29.555,0
		c-2.387,6.875-3.975,13.018-3.977,18.984c0,0.479,0.145,2.781,0.166,3.258L1.793,21.369l0,0l-0.744-0.027l-0.127,3.953L0,47.754
		l1.504,0.063l0.924-22.469l23.867,0.793l3.107,21.75l1.492-0.213l-3.584-25.076L27.299,22.604z"/>
	<path style="fill:url(#frame); <?php echo $stroke;?>" d="M44.123,10.969V3.283c3.305,0.084,8.332,0.201,10.531,0.201c2.197,0,7.227-0.117,10.531-0.201v7.686
		c-3.305,0.084-8.334,0.201-10.531,0.201C52.455,11.17,47.427,11.053,44.123,10.969 M68.316,0.354
		c-0.047,0-10.254,0.283-13.662,0.283c-3.414,0-13.656-0.283-13.664-0.283l0,0v47.537h2.42V13.797
		c3.246,0.084,8.879,0.221,11.244,0.221c2.363,0,7.996-0.137,11.244-0.221v34.094h2.42V0.354H68.316z"/>
	<polygon style="fill:url(#frame); <?php echo $stroke;?>" points="64.474,21.988 64.474,21.988 44.833,21.988 44.833,21.988 44.406,21.988 44.406,47.891 
		46.826,47.891 46.826,25.688 62.482,25.688 62.482,47.891 64.902,47.891 64.902,21.988 	"/>
	<rect x="45.119" y="20.422" style="fill:url(#seat); <?php echo $stroke;?>" width="19.072" height="1.566"/>
	<path style="fill:url(#seat); <?php echo $stroke;?>" d="M2.143,19.922l23.482,0.797c0.029,0.51,0.066,1.018,0.119,1.523l-23.65-0.861L2.143,19.922z"/>
</g>
</svg>
