<?xml version="1.0" encoding="iso-8859-1"?>
<!-- Generator: Adobe Illustrator 14.0.0, SVG Export Plug-In . SVG Version: 6.00 Build 43363)  -->
<!DOCTYPE svg PUBLIC "-//W3C//DTD SVG 1.1//EN" "http://www.w3.org/Graphics/SVG/1.1/DTD/svg11.dtd">
<svg version="1.1" id="&#x30EC;&#x30A4;&#x30E4;&#x30FC;_1"
	 xmlns="http://www.w3.org/2000/svg" xmlns:xlink="http://www.w3.org/1999/xlink" x="0px" y="0px" width="100%"
	 height="100%" viewBox="0 0 68.318 47.891" style="enable-background:new 0 0 68.318 47.891;" xml:space="preserve">
	 <?php echo $pattern;?>
<g>
	<polygon style="fill:url(#frame); <?php echo $stroke;?>" points="44.406,21.988 44.406,47.891 46.826,47.891 46.826,25.688 62.482,25.688 62.482,47.891 
		64.902,47.891 64.902,21.988 	"/>
	<path style="fill:url(#frame); <?php echo $stroke;?>" d="M44.123,10.969V3.283c3.305,0.084,8.332,0.201,10.531,0.201c2.197,0,7.227-0.117,10.533-0.201v7.686
		c-3.307,0.084-8.336,0.201-10.533,0.201C52.455,11.17,47.428,11.053,44.123,10.969 M68.316,0.354
		c-0.047,0-10.254,0.283-13.662,0.283c-3.414,0-13.656-0.283-13.664-0.283l0,0v47.537h2.42V13.797
		c3.248,0.084,8.879,0.221,11.244,0.221c2.363,0,7.996-0.137,11.244-0.221v34.094h2.42V0.354H68.316z"/>
	<path style="fill:url(#frame); <?php echo $stroke;?>" d="M27.299,22.604c-0.145-1.199-0.215-2.404-0.215-3.619c-0.002-5.695,1.527-11.678,3.893-18.49
		L29.555,0c-2.387,6.875-3.975,13.018-3.977,18.984c0,1.092,0.055,2.178,0.164,3.258l-24.693-0.9l-0.127,3.953L0,47.754l1.504,0.063
		l0.924-22.469l23.869,0.793l3.105,21.75l1.492-0.213l-3.584-25.076L27.299,22.604z"/>
</g>
</svg>
