<?xml version="1.0" encoding="utf-8"?>
<!-- Generator: Adobe Illustrator 14.0.0, SVG Export Plug-In . SVG Version: 6.00 Build 43363)  -->
<!DOCTYPE svg PUBLIC "-//W3C//DTD SVG 1.1//EN" "http://www.w3.org/Graphics/SVG/1.1/DTD/svg11.dtd">
<svg version="1.1" id="レイヤー_1" xmlns="http://www.w3.org/2000/svg" xmlns:xlink="http://www.w3.org/1999/xlink" x="0px"
	 y="0px" width="100%" height="100%" viewBox="0 0 60.758 48.188" enable-background="new 0 0 60.758 48.188"
	 xml:space="preserve">
	  <?php echo $pattern;?>
<g>
	<g>
		<path style="fill:url(#frame); <?php echo $stroke;?>" d="M60.758,14.558V0c0,0-9.189,0.333-12.256,0.333C45.438,0.333,36.248,0,36.248,0v47.89h1.893V15.932h20.723
			V47.89h1.895V14.558z"/>
		<polygon style="fill:url(#frame); <?php echo $stroke;?>" points="38.699,22.813 38.697,22.813 38.697,47.89 40.48,47.89 40.48,25.136 56.414,25.136 56.414,47.89 
			58.195,47.89 58.195,25.136 58.197,25.136 58.197,22.015 38.699,22.015 		"/>
		<path style="fill:url(#back); <?php echo $stroke;?>" d="M60.533,15.708H36.471V0.226c0,0,9.023,0.324,12.031,0.324c3.01,0,12.031-0.324,12.031-0.324V15.708z"/>
		<rect x="39.756" y="20.333" style="fill:url(#seat); <?php echo $stroke;?>" width="17.383" height="1.672"/>
	</g>
	<g>
		<path style="fill:url(#frame); <?php echo $stroke;?>" d="M29.475,47.983c-2.646-14.609-4.104-22.844-4.102-29.416c0.002-6.047,1.213-10.725,3.912-17.857
			L28.203,0.3l0,0c-1.119,2.954-1.946,5.347-2.596,7.809l-0.685,2.955c-0.338,1.722-0.534,3.304-0.637,5.082l0,0v-0.003
			c-0.047,0.79-0.068,1.596-0.068,2.425c0,0.762,0.121,3.261,0.16,4.067L1.088,22.323l0,0l-0.541-0.007L0,47.533l1.158,0.024
			l0.482-22.376l23.014,0.433c0.619,5.595,1.879,12.607,3.684,22.574L29.475,47.983z"/>
		<path style="fill:url(#back); <?php echo $stroke;?>" d="M23.68,15.869c0.107-1.688,0.32-3.315,0.641-4.956l0.658-2.857c0.633-2.391,1.484-4.902,2.564-7.765
			l0.58,0.22c-2.27,6.016-3.17,10.398-3.824,15.415L23.68,15.869z"/>
		<path style="fill:url(#seat); <?php echo $stroke;?>" d="M1.307,22.325v-1.402l22.979,0.213c0.023,0.488,0.055,0.988,0.092,1.499L1.307,22.325z"/>
	</g>
</g>
</svg>
