<?xml version="1.0" encoding="utf-8"?>
<!-- Generator: Adobe Illustrator 14.0.0, SVG Export Plug-In . SVG Version: 6.00 Build 43363)  -->
<!DOCTYPE svg PUBLIC "-//W3C//DTD SVG 1.1//EN" "http://www.w3.org/Graphics/SVG/1.1/DTD/svg11.dtd">
<svg version="1.1" id="レイヤー_1" xmlns="http://www.w3.org/2000/svg" xmlns:xlink="http://www.w3.org/1999/xlink" x="0px"
	 y="0px" width="100%" height="100%" viewBox="0 0 60.006 47.89" enable-background="new 0 0 60.006 47.89"
	 xml:space="preserve">
	  <?php echo $pattern;?>
<g>
	<polygon style="fill:url(#seat); <?php echo $stroke;?>" points="24.376,22.335 1.305,22.026 1.305,20.624 24.283,20.837 	"/>
	<rect x="39.083" y="20.332" style="fill:url(#seat); <?php echo $stroke;?>" width="17.358" height="1.673"/>
	<g>
		<path style="fill:url(#frame); <?php echo $stroke;?>" d="M1.305,22.026L1.305,22.026l23.071,0.31c0.023,0.488-0.037-0.511,0,0L1.305,22.026z M29.475,47.684
			c-2.646-14.608-4.104-22.844-4.103-29.416c0.002-6.046,1.212-10.724,3.911-17.857L28.201,0
			c-2.715,7.168-3.989,12.056-3.985,18.268c0,0.762,0.122,3.26,0.16,4.068L1.087,22.024l0,0l-0.542-0.007L0,47.233l1.156,0.025
			L1.64,24.882l23.015,0.433c0.618,5.594,1.879,12.607,3.682,22.574L29.475,47.684z"/>
		<path style="fill:url(#frame); <?php echo $stroke;?>" d="M60.006,14.559V0c0,0-9.19,0.334-12.256,0.334C44.686,0.334,35.494,0,35.494,0v47.89h1.894V15.933h20.724
			V47.89h1.895V14.559z"/>
		<g>
			<polygon style="fill:url(#frame); <?php echo $stroke;?>" points="38.002,22.813 38,22.813 38,47.89 39.783,47.89 39.783,25.135 55.716,25.135 55.716,47.89 
				57.498,47.89 57.498,25.135 57.5,25.135 57.5,22.015 38.002,22.015 			"/>
		</g>
	</g>
</g>
</svg>
