<?xml version="1.0" encoding="utf-8"?>
<!-- Generator: Adobe Illustrator 14.0.0, SVG Export Plug-In . SVG Version: 6.00 Build 43363)  -->
<!DOCTYPE svg PUBLIC "-//W3C//DTD SVG 1.1//EN" "http://www.w3.org/Graphics/SVG/1.1/DTD/svg11.dtd">
<svg version="1.1" id="レイヤー_1" xmlns="http://www.w3.org/2000/svg" xmlns:xlink="http://www.w3.org/1999/xlink" x="0px"
	 y="0px" width="100%" height="100%" viewBox="0 0 62.113 47.89" enable-background="new 0 0 62.113 47.89"
	 xml:space="preserve">
	  <?php echo $pattern;?>
<g>
	<polygon style="fill:url(#seat); <?php echo $stroke;?>" points="24.376,22.335 8.764,22.127 8.879,20.694 24.284,20.837 	"/>
	<polygon style="fill:url(#seat); <?php echo $stroke;?>" points="7.605,22.112 1.306,22.026 1.296,20.632 7.721,20.683 	"/>
	<rect x="38.366" y="20.333" style="fill:url(#seat); <?php echo $stroke;?>" width="17.382" height="1.672"/>
	<g>
		<path style="fill:url(#frame); <?php echo $stroke;?>" d="M24.217,18.268c0,0.762,0.121,3.26,0.159,4.067L8.764,22.127l0.821-10.119
			c0.053-0.613,0.156-1.027,0.276-1.277c0.092-0.189,0.179-0.287,0.281-0.364c0.148-0.112,0.385-0.188,0.766-0.227
			c0.377-0.039,0.872-0.041,1.464-0.069l12.775-0.378V9.692C24.518,12.515,24.215,15.233,24.217,18.268 M8.764,22.127L8.764,22.127
			l15.612,0.208c0.023,0.488-0.036-0.51,0,0L8.764,22.127z M1.306,22.026L1.306,22.026l6.3,0.085l0,0L1.306,22.026z M29.476,47.683
			c-2.646-14.608-4.105-22.844-4.102-29.415c0.002-6.046,1.211-10.724,3.91-17.857L28.202,0c-1.207,3.188-2.129,5.925-2.781,8.528
			L12.323,8.917h-0.006c-0.499,0.024-0.948,0.026-1.37,0.06c-0.317,0.025-0.62,0.068-0.919,0.168
			c-0.447,0.141-0.871,0.459-1.13,0.932c-0.262,0.47-0.396,1.055-0.468,1.835L7.605,22.112l-6.518-0.087l0,0l-0.542-0.007L0,47.234
			l1.157,0.025l0.483-22.377l23.015,0.434c0.618,5.594,1.879,12.607,3.682,22.572L29.476,47.683z"/>
		<path style="fill:url(#frame); <?php echo $stroke;?>" d="M60.689,12.384c-0.313,1.411-0.874,3.063-1.321,4.252V14.56V9.606c0.154,0.017,0.314,0.038,0.474,0.064
			c0.276,0.044,0.543,0.104,0.735,0.172c0.094,0.034,0.17,0.068,0.214,0.095c0.021,0.014,0.035,0.023,0.041,0.029l0,0
			c0.04,0.06,0.108,0.295,0.103,0.639C60.935,11.063,60.843,11.695,60.689,12.384 M57.474,20.608
			c-0.229,0.405-0.461,0.806-0.683,1.184c-0.045,0.076-0.089,0.15-0.134,0.225H37.383c-0.204-0.343-0.417-0.71-0.633-1.086v-4.998
			h20.724V20.608z M34.856,17.116c-0.265-0.679-0.602-1.6-0.908-2.566c-0.229-0.725-0.443-1.475-0.596-2.166
			c-0.155-0.689-0.247-1.321-0.246-1.78c-0.005-0.346,0.064-0.58,0.101-0.639c0.001,0,0.003-0.001,0.005-0.002
			c0.029-0.032,0.228-0.128,0.48-0.19c0.346-0.091,0.788-0.151,1.164-0.187V17.116z M61.784,9.269
			c-0.134-0.182-0.291-0.292-0.449-0.378c-0.276-0.15-0.578-0.237-0.895-0.308c-0.36-0.078-0.739-0.129-1.072-0.164V0.001
			c0,0-9.191,0.334-12.256,0.334c-3.065,0-12.256-0.334-12.256-0.334v8.401c-0.178,0.015-0.372,0.037-0.576,0.063
			c-0.357,0.048-0.734,0.116-1.078,0.222c-0.172,0.053-0.34,0.116-0.497,0.203c-0.158,0.086-0.315,0.196-0.446,0.378
			c-0.275,0.4-0.326,0.846-0.332,1.335c0.001,0.604,0.109,1.297,0.274,2.037c0.493,2.211,1.501,4.816,1.903,5.754
			c0.197,0.46,0.461,0.992,0.752,1.545v27.95h1.894V23.256c0.218,0.357,0.408,0.671,0.558,0.913V47.89h1.783V25.136h15.932V47.89
			h1.782V25.136h0.003v-1.088c0.18-0.294,0.41-0.671,0.666-1.099V47.89h1.895V19.587c0.219-0.424,0.413-0.83,0.569-1.191
			c0.269-0.626,0.804-1.992,1.278-3.489c0.237-0.749,0.459-1.527,0.623-2.265c0.165-0.74,0.273-1.434,0.274-2.037
			C62.107,10.113,62.057,9.669,61.784,9.269"/>
	</g>
</g>
</svg>
