<?xml version="1.0" encoding="iso-8859-1"?>
<!-- Generator: Adobe Illustrator 14.0.0, SVG Export Plug-In . SVG Version: 6.00 Build 43363)  -->
<!DOCTYPE svg PUBLIC "-//W3C//DTD SVG 1.1//EN" "http://www.w3.org/Graphics/SVG/1.1/DTD/svg11.dtd">
<svg version="1.1" id="&#x30EC;&#x30A4;&#x30E4;&#x30FC;_1"
	 xmlns="http://www.w3.org/2000/svg" xmlns:xlink="http://www.w3.org/1999/xlink" x="0px" y="0px" width="100%"
	 height="100%" viewBox="0 0 60.254 71.85" style="enable-background:new 0 0 60.254 71.85;" xml:space="preserve">
	 <?php echo $pattern;?>
<g>
	<path style="fill:url(#frame); <?php echo $stroke;?>" d="M2.49,49.831l0.244-24.773c0,0,19.563,0.369,22.559,0.425c-0.031,1.652-0.049,3.373-0.049,5.194
		c0,5.279,0.152,11.404,0.625,19.154H2.49z M26.43,30.677c0-5.057,0.141-9.336,0.275-13.54c0.277-4.948,1.529-10.457,2.951-16.881
		L28.502,0c-1.404,6.339-2.66,11.831-2.967,16.873c-0.004,0.023-0.006,0.048-0.008,0.073v0.007v0.006l-0.012,0.247v0.006
		c0,0.025,0,0.048,0,0.071c-0.055,1.688-0.107,3.393-0.156,5.155L1.613,22.122l-0.047,2.981L1.313,49.831H0v1.58h1.297L1.09,71.596
		l1.184,0.014l0.201-20.199h23.492c0.375,5.818,0.926,12.527,1.715,20.439l1.18-0.117l0,0C26.92,52.284,26.43,40.12,26.43,30.677"/>
	<path style="fill:url(#frame); <?php echo $stroke;?>" d="M57.674,50.502V25.958h0.002v-3.123H38.057v0.798h-0.002v26.87h-0.561v-32.98h20.852v32.98H57.674z
		 M39.85,25.958h16.031v24.544H39.85V25.958z M60.254,14.583V0c0,0-9.248,0.336-12.334,0.336C44.838,0.336,35.59,0,35.59,0v71.85
		h1.904V52.077h0.561V71.85h1.795V52.077h16.031V71.85h1.793V52.077h0.672V71.85h1.908V14.583z"/>
</g>
</svg>
