<?xml version="1.0" encoding="utf-8"?>
<!-- Generator: Adobe Illustrator 14.0.0, SVG Export Plug-In . SVG Version: 6.00 Build 43363)  -->
<!DOCTYPE svg PUBLIC "-//W3C//DTD SVG 1.1//EN" "http://www.w3.org/Graphics/SVG/1.1/DTD/svg11.dtd">
<svg version="1.1" id="レイヤー_1" xmlns="http://www.w3.org/2000/svg" xmlns:xlink="http://www.w3.org/1999/xlink" x="0px"
	 y="0px" width="100%" height="100%" viewBox="0 0 62.111 47.898" enable-background="new 0 0 62.111 47.898"
	 xml:space="preserve">
	 <?php echo $pattern;?>
<g>
	<polygon style="fill:url(#seat); <?php echo $stroke;?>" points="24.375,22.344 1.305,22.034 1.305,20.633 24.283,20.846 	"/>
	<g>
		<path style="fill:url(#frame); <?php echo $stroke;?>" d="M25.371,18.275c0.002-6.046,1.213-10.723,3.912-17.857l-1.082-0.41l0,0
			c-1.117,2.954-1.862,5.05-2.514,7.511L25.42,8.536L12.322,8.924h-0.006c-0.498,0.024-0.947,0.026-1.369,0.061
			c-0.318,0.025-0.621,0.067-0.92,0.168C9.58,9.293,9.156,9.611,8.898,10.084c-0.262,0.471-0.396,1.055-0.467,1.835l-0.828,10.2
			l-6.516-0.087l0,0l-0.543-0.007L0,47.242l1.156,0.025l0.484-22.377l23.014,0.434c0.619,5.594,1.879,12.606,3.682,22.572
			l1.139-0.205C26.828,33.082,25.369,24.848,25.371,18.275z M8.764,22.135l0.82-10.119c0.053-0.613,0.156-1.027,0.275-1.277
			c0.094-0.189,0.18-0.287,0.283-0.363c0.148-0.111,0.383-0.188,0.766-0.227c0.377-0.039,0.871-0.041,1.463-0.069l11.924-0.353
			l0.852-0.025c-0.336,1.722-0.76,4.372-0.861,6.149l-0.002,0.004l0.002-0.004c-0.047,0.79-0.068,1.597-0.068,2.425
			c0,0.762,0.121,3.261,0.158,4.068"/>
	</g>
	<path style="fill:url(#back); <?php echo $stroke;?>" d="M24.979,7.764C25.611,5.373,26.463,2.861,27.541,0l0.582,0.221c-1.17,3.097-2.064,5.771-2.703,8.315
		l-0.623,0.019L24.979,7.764z"/>
	<path style="fill:url(#back); <?php echo $stroke;?>" d="M24.527,9.72l0.619-0.019c-0.441,1.979-0.723,3.91-0.85,5.934l-0.619-0.057
		c0.107-1.689,0.322-3.314,0.643-4.956L24.527,9.72z"/>
	<g>
		<path style="fill:url(#frame); <?php echo $stroke;?>" d="M61.783,9.276c-0.133-0.183-0.291-0.292-0.447-0.379c-0.279-0.149-0.58-0.235-0.898-0.307
			c-0.357-0.078-0.738-0.13-1.07-0.163V0.009c0,0-9.191,0.333-12.256,0.333c-3.066,0-12.256-0.333-12.256-0.333V8.41
			c-0.178,0.016-0.373,0.037-0.576,0.063c-0.355,0.049-0.732,0.116-1.078,0.223c-0.172,0.053-0.338,0.117-0.496,0.202
			c-0.158,0.087-0.316,0.196-0.449,0.379c-0.273,0.399-0.324,0.846-0.33,1.334c0.002,0.604,0.111,1.298,0.275,2.038
			c0.494,2.211,1.5,4.816,1.9,5.755c0.201,0.46,0.461,0.991,0.754,1.545v27.95h1.895V23.264c0.217,0.357,0.406,0.672,0.557,0.912
			v23.723h1.783V25.145h15.932v22.754h1.783V25.145v-1.088c0.182-0.295,0.412-0.672,0.67-1.1v24.941h1.893V19.595
			c0.219-0.425,0.412-0.829,0.568-1.191c0.27-0.625,0.803-1.991,1.279-3.489c0.238-0.748,0.459-1.527,0.625-2.266
			c0.164-0.74,0.271-1.434,0.271-2.038C62.107,10.121,62.057,9.676,61.783,9.276z M34.855,17.123c-0.266-0.68-0.602-1.6-0.908-2.565
			c-0.229-0.725-0.443-1.476-0.596-2.166c-0.154-0.688-0.246-1.322-0.246-1.781c-0.006-0.343,0.064-0.577,0.102-0.638l0.002-0.002
			c0.031-0.031,0.23-0.128,0.484-0.189c0.344-0.09,0.787-0.152,1.162-0.188V17.123z M57.475,20.616
			c-0.23,0.403-0.463,0.806-0.686,1.185c-0.045,0.075-0.088,0.149-0.133,0.223h-0.686h-0.225l0,0H37.383
			c-0.203-0.343-0.418-0.71-0.633-1.084V15.94h20.725V20.616z M60.688,12.392c-0.313,1.411-0.875,3.063-1.32,4.252v-2.077V9.613
			c0.154,0.017,0.314,0.038,0.473,0.064c0.277,0.043,0.545,0.104,0.736,0.172c0.094,0.033,0.172,0.068,0.215,0.095
			c0.023,0.014,0.035,0.024,0.039,0.028h0.002c0.039,0.061,0.107,0.295,0.104,0.638C60.936,11.069,60.842,11.703,60.688,12.392z"/>
	</g>
	<rect x="38.365" y="20.342" style="fill:url(#seat); <?php echo $stroke;?>" width="17.381" height="1.682"/>
	<path style="fill:url(#back); <?php echo $stroke;?>" d="M59.143,15.715H35.082V0.234c0,0,9.02,0.324,12.029,0.324s12.031-0.324,12.031-0.324V15.715z"/>
</g>
</svg>
