<?xml version="1.0" encoding="iso-8859-1"?>
<!-- Generator: Adobe Illustrator 14.0.0, SVG Export Plug-In . SVG Version: 6.00 Build 43363)  -->
<!DOCTYPE svg PUBLIC "-//W3C//DTD SVG 1.1//EN" "http://www.w3.org/Graphics/SVG/1.1/DTD/svg11.dtd">
<svg version="1.1" id="&#x30EC;&#x30A4;&#x30E4;&#x30FC;_1"
	 xmlns="http://www.w3.org/2000/svg" xmlns:xlink="http://www.w3.org/1999/xlink" x="0px" y="0px" width="100%"
	 height="100%" viewBox="0 0 62.111 47.891" style="enable-background:new 0 0 62.111 47.891;" xml:space="preserve">
	 <?php echo $pattern;?>
<g>
	<path style="fill:url(#frame); <?php echo $stroke;?>" d="M24.377,22.335L8.764,22.127l0.82-10.119c0.053-0.613,0.156-1.027,0.277-1.277
		c0.09-0.189,0.178-0.287,0.281-0.364c0.148-0.112,0.385-0.188,0.766-0.227c0.377-0.039,0.871-0.041,1.463-0.069l12.775-0.378V9.692
		c-0.629,2.822-0.932,5.541-0.93,8.576C24.217,19.557,24.271,20.902,24.377,22.335 M29.475,47.684
		c-2.646-14.609-4.104-22.844-4.102-29.416c0.002-6.046,1.211-10.724,3.91-17.857L28.201,0c-1.207,3.188-2.129,5.925-2.781,8.528
		L12.322,8.917h-0.006c-0.498,0.024-0.947,0.026-1.369,0.06c-0.318,0.025-0.621,0.068-0.92,0.168
		c-0.445,0.141-0.871,0.459-1.129,0.932c-0.262,0.47-0.396,1.055-0.469,1.835L7.604,22.112l-7.059-0.094L0,47.234l1.156,0.025
		l0.484-22.377l23.014,0.434c0.619,5.594,1.879,12.606,3.682,22.572L29.475,47.684z"/>
	<path style="fill:url(#frame); <?php echo $stroke;?>" d="M60.688,12.384c-0.313,1.411-0.873,3.063-1.32,4.252v-2.077V9.606
		c0.154,0.016,0.316,0.038,0.475,0.064c0.275,0.043,0.543,0.104,0.734,0.172c0.096,0.034,0.172,0.068,0.217,0.095
		c0.021,0.014,0.033,0.024,0.039,0.028l0,0c0.039,0.061,0.107,0.295,0.102,0.638C60.934,11.062,60.844,11.695,60.688,12.384
		 M56.789,21.792c-0.043,0.076-0.09,0.15-0.133,0.224H37.383c-0.203-0.343-0.418-0.71-0.633-1.085v-4.999h20.725v4.676
		C57.244,21.012,57.012,21.415,56.789,21.792 M33.947,14.55c-0.229-0.725-0.441-1.476-0.596-2.166
		c-0.154-0.689-0.246-1.322-0.244-1.781c-0.008-0.343,0.063-0.577,0.102-0.638c0,0,0-0.001,0.002-0.002
		c0.029-0.031,0.23-0.127,0.482-0.189c0.344-0.09,0.787-0.152,1.164-0.187v7.529C34.59,16.436,34.254,15.516,33.947,14.55
		 M61.783,9.269c-0.133-0.182-0.291-0.292-0.447-0.379c-0.279-0.149-0.58-0.236-0.896-0.307c-0.359-0.078-0.74-0.13-1.072-0.164
		V0.001c0,0-9.189,0.333-12.256,0.333c-3.064,0-12.254-0.333-12.254-0.333v8.401c-0.18,0.015-0.375,0.037-0.578,0.063
		c-0.355,0.048-0.732,0.116-1.078,0.222c-0.172,0.053-0.338,0.117-0.496,0.202c-0.156,0.087-0.314,0.197-0.447,0.379
		c-0.275,0.399-0.324,0.846-0.33,1.334c0,0.605,0.107,1.298,0.273,2.038c0.494,2.212,1.498,4.817,1.902,5.755
		c0.197,0.46,0.461,0.991,0.754,1.545v27.95h1.893V23.256c0.217,0.357,0.406,0.671,0.557,0.912v23.723h1.783V25.137h15.932v22.754
		h1.783V25.137h0.002v-1.088c0.18-0.295,0.41-0.671,0.668-1.099v24.941h1.893V19.587c0.219-0.424,0.414-0.83,0.568-1.191
		c0.271-0.625,0.805-1.992,1.279-3.489c0.238-0.748,0.459-1.527,0.623-2.266c0.166-0.739,0.273-1.433,0.273-2.038
		C62.107,10.113,62.057,9.667,61.783,9.269"/>
</g>
</svg>
