<?xml version="1.0" encoding="utf-8"?>
<!-- Generator: Adobe Illustrator 14.0.0, SVG Export Plug-In . SVG Version: 6.00 Build 43363)  -->
<!DOCTYPE svg PUBLIC "-//W3C//DTD SVG 1.1//EN" "http://www.w3.org/Graphics/SVG/1.1/DTD/svg11.dtd">
<svg version="1.1" id="レイヤー_1" xmlns="http://www.w3.org/2000/svg" xmlns:xlink="http://www.w3.org/1999/xlink" x="0px"
	 y="0px" width="100%" height="100%" viewBox="0 0 61.941 48.188" enable-background="new 0 0 61.941 48.188"
	 xml:space="preserve">
	  <?php echo $pattern;?>
<g>
	<g>
		<path style="fill:url(#frame); <?php echo $stroke;?>" d="M60.508,12.461c-0.314,1.418-0.881,3.082-1.328,4.277V14.65V9.666c0.156,0.016,0.316,0.037,0.477,0.064
			c0.275,0.043,0.547,0.105,0.738,0.172c0.096,0.035,0.174,0.068,0.217,0.096c0.023,0.014,0.035,0.023,0.039,0.029
			c0.002,0,0.002,0,0.002,0c0.039,0.061,0.107,0.295,0.104,0.641C60.756,11.131,60.664,11.768,60.508,12.461 M57.326,2.117
			l-0.061,0.057L57.061,2.17L56.92,2.025l0.002-0.156c0.258-0.008,0.404-0.014,0.404-0.014V2.117z M57.326,2.824l-0.061,0.059
			l-0.205-0.004L56.92,2.732l0.004-0.205l0.145-0.141l0.205,0.004l0.053,0.053V2.824z M57.326,3.533l-0.061,0.059l-0.205-0.004
			L56.92,3.441l0.004-0.205l0.145-0.143l0.205,0.004l0.053,0.055V3.533z M57.326,4.242l-0.061,0.059l-0.205-0.004L56.92,4.148
			l0.004-0.203l0.145-0.141l0.205,0.002l0.053,0.053V4.242z M57.326,4.951L57.266,5.01l-0.205-0.004L56.92,4.859l0.004-0.205
			l0.145-0.141l0.205,0.002l0.053,0.053V4.951z M57.326,5.66l-0.061,0.059l-0.205-0.006L56.92,5.568l0.004-0.205l0.145-0.141
			l0.205,0.002l0.053,0.053V5.66z M57.326,6.367l-0.061,0.059l-0.205-0.004L56.92,6.275l0.004-0.203l0.145-0.143l0.205,0.004
			l0.053,0.053V6.367z M57.326,7.076l-0.061,0.059l-0.205-0.004L56.92,6.984l0.004-0.203l0.145-0.143l0.205,0.004l0.053,0.053V7.076
			z M57.326,7.785l-0.061,0.059L57.061,7.84L56.92,7.693l0.004-0.205l0.145-0.141l0.205,0.002l0.053,0.053V7.785z M57.326,8.494
			l-0.061,0.057l-0.205-0.002L56.92,8.402l0.004-0.205l0.145-0.143l0.205,0.004l0.053,0.055V8.494z M57.326,9.203l-0.061,0.059
			l-0.205-0.004L56.92,9.111l0.004-0.203l0.145-0.143l0.205,0.002l0.053,0.055V9.203z M57.326,9.91l-0.061,0.059l-0.205-0.002
			L56.92,9.818l0.004-0.201l0.145-0.145l0.205,0.004l0.053,0.053V9.91z M57.326,10.619l-0.061,0.061l-0.205-0.006l-0.141-0.146
			l0.004-0.203l0.145-0.143l0.205,0.004l0.053,0.055V10.619z M57.326,11.328l-0.061,0.059l-0.205-0.004l-0.141-0.146l0.004-0.205
			l0.145-0.141l0.205,0.004l0.053,0.051V11.328z M57.326,12.037l-0.061,0.059l-0.205-0.004l-0.141-0.146l0.004-0.205l0.145-0.141
			l0.205,0.002l0.053,0.053V12.037z M57.326,12.746l-0.061,0.059l-0.205-0.004l-0.141-0.146l0.004-0.203l0.145-0.143l0.205,0.004
			l0.053,0.053V12.746z M57.326,13.455l-0.061,0.057l-0.205-0.002l-0.141-0.146l0.004-0.205l0.145-0.141l0.205,0.004l0.053,0.051
			V13.455z M57.326,14.045H56.92l0.004-0.178l0.145-0.143l0.205,0.004l0.053,0.055V14.045z M57.273,20.736
			c-0.23,0.408-0.465,0.813-0.688,1.191c-0.045,0.076-0.09,0.15-0.135,0.227h-0.689l0,0H37.822l0,0h-0.766
			c-0.205-0.348-0.42-0.715-0.637-1.092v-5.031h20.854V20.736z M55.537,22.154h-17.49v-1.695h17.49V22.154z M36.459,13.783
			l0.061-0.059l0.203,0.004l0.143,0.146l-0.004,0.17h-0.402V13.783z M36.459,13.074l0.061-0.057l0.203,0.004l0.143,0.146
			l-0.004,0.203l-0.146,0.141L36.51,13.51l-0.051-0.055V13.074z M36.459,12.365l0.061-0.057l0.203,0.004l0.143,0.145l-0.004,0.205
			l-0.146,0.143l-0.205-0.004l-0.051-0.053V12.365z M36.459,11.656L36.52,11.6l0.203,0.002l0.143,0.146l-0.004,0.205l-0.146,0.143
			l-0.205-0.004l-0.051-0.053V11.656z M36.459,10.947l0.061-0.057l0.203,0.004l0.143,0.146l-0.004,0.203l-0.146,0.143l-0.205-0.004
			l-0.051-0.053V10.947z M36.459,10.24l0.061-0.059l0.203,0.004l0.143,0.146l-0.004,0.205l-0.146,0.143l-0.205-0.006l-0.051-0.053
			V10.24z M36.459,9.533l0.061-0.061l0.203,0.004l0.143,0.148l-0.004,0.203l-0.146,0.141L36.51,9.967l-0.051-0.055V9.533z
			 M36.459,8.822l0.061-0.057l0.203,0.002l0.143,0.148l-0.004,0.203l-0.146,0.143L36.51,9.258l-0.051-0.055V8.822z M36.459,8.113
			l0.061-0.059l0.203,0.004l0.143,0.146L36.861,8.41l-0.146,0.141L36.51,8.549l-0.051-0.053V8.113z M36.459,7.404l0.061-0.057
			l0.203,0.002l0.143,0.148l-0.004,0.203l-0.146,0.143L36.51,7.84l-0.051-0.053V7.404z M36.459,6.697l0.061-0.059l0.203,0.004
			l0.143,0.146l-0.004,0.205l-0.146,0.141L36.51,7.131l-0.051-0.053V6.697z M36.459,5.988L36.52,5.93l0.203,0.004l0.143,0.146
			l-0.004,0.205l-0.146,0.141L36.51,6.422l-0.051-0.053V5.988z M36.459,5.279l0.061-0.057l0.203,0.002l0.143,0.146l-0.004,0.205
			l-0.146,0.143L36.51,5.713L36.459,5.66V5.279z M36.459,4.57l0.061-0.057l0.203,0.002l0.143,0.146l-0.004,0.205L36.715,5.01
			L36.51,5.006l-0.051-0.055V4.57z M36.459,3.861l0.061-0.057l0.203,0.002l0.143,0.148l-0.004,0.203l-0.146,0.143L36.51,4.297
			l-0.051-0.053V3.861z M36.459,3.154l0.061-0.061l0.203,0.004l0.143,0.146l-0.004,0.205l-0.146,0.143L36.51,3.588l-0.051-0.055
			V3.154z M36.459,2.445l0.061-0.059l0.203,0.004l0.143,0.145L36.861,2.74l-0.146,0.143L36.51,2.879l-0.051-0.053V2.445z
			 M36.459,1.855c0,0,0.146,0.006,0.406,0.014l-0.004,0.164l-0.146,0.141L36.51,2.17l-0.051-0.053V1.855z M37.572,13.875
			l-0.002,0.17h-0.492l0.004-0.178l0.145-0.143l0.205,0.004L37.572,13.875z M37.082,13.158l0.145-0.141l0.205,0.004l0.141,0.146
			l-0.004,0.203l-0.145,0.141l-0.205-0.002l-0.141-0.146L37.082,13.158z M37.082,12.451l0.145-0.143l0.205,0.004l0.141,0.145
			l-0.004,0.205l-0.145,0.143l-0.205-0.004l-0.141-0.146L37.082,12.451z M37.082,11.74l0.145-0.141l0.205,0.002l0.141,0.146
			l-0.004,0.205l-0.145,0.143l-0.205-0.004l-0.141-0.146L37.082,11.74z M37.082,11.031l0.145-0.141l0.205,0.004l0.141,0.146
			l-0.004,0.203l-0.145,0.143l-0.205-0.004l-0.141-0.146L37.082,11.031z M37.082,10.324l0.145-0.143l0.205,0.004l0.141,0.146
			l-0.004,0.205l-0.145,0.143l-0.205-0.006l-0.141-0.146L37.082,10.324z M37.082,9.617l0.145-0.145l0.205,0.004l0.141,0.148
			l-0.004,0.203l-0.145,0.141l-0.205-0.002l-0.141-0.148L37.082,9.617z M37.082,8.908l0.145-0.143l0.205,0.002l0.141,0.148
			l-0.004,0.203l-0.145,0.143l-0.205-0.004l-0.141-0.146L37.082,8.908z M37.082,8.197l0.145-0.143l0.205,0.004l0.141,0.146
			L37.568,8.41l-0.145,0.141l-0.205-0.002l-0.141-0.146L37.082,8.197z M37.082,7.488l0.145-0.141l0.205,0.002l0.141,0.148
			l-0.004,0.203l-0.145,0.143L37.219,7.84l-0.141-0.146L37.082,7.488z M37.082,6.781l0.145-0.143l0.205,0.004l0.141,0.146
			l-0.004,0.205l-0.145,0.141l-0.205-0.004l-0.141-0.146L37.082,6.781z M37.082,6.072l0.145-0.143l0.205,0.004l0.141,0.146
			l-0.004,0.205l-0.145,0.141l-0.205-0.004l-0.141-0.146L37.082,6.072z M37.082,5.363l0.145-0.141l0.205,0.002l0.141,0.146
			l-0.004,0.205l-0.145,0.143l-0.205-0.006l-0.141-0.145L37.082,5.363z M37.082,4.654l0.145-0.141l0.205,0.002l0.141,0.146
			l-0.004,0.205L37.424,5.01l-0.205-0.004l-0.141-0.146L37.082,4.654z M37.082,3.945l0.145-0.141l0.205,0.002l0.141,0.148
			l-0.004,0.203l-0.145,0.143l-0.205-0.004l-0.141-0.148L37.082,3.945z M37.082,3.236l0.145-0.143l0.205,0.004l0.141,0.146
			l-0.004,0.205l-0.145,0.143l-0.205-0.004l-0.141-0.146L37.082,3.236z M37.082,2.527l0.145-0.141l0.205,0.004l0.141,0.145
			L37.568,2.74l-0.145,0.143l-0.205-0.004l-0.141-0.146L37.082,2.527z M37.08,1.877c0.143,0.006,0.309,0.01,0.49,0.016l-0.002,0.141
			l-0.145,0.141L37.219,2.17l-0.141-0.145L37.08,1.877z M38.281,13.875l-0.002,0.17h-0.494l0.006-0.178l0.145-0.143l0.205,0.004
			L38.281,13.875z M37.791,13.158l0.145-0.141l0.205,0.004l0.141,0.146l-0.002,0.203l-0.146,0.141l-0.205-0.002l-0.143-0.146
			L37.791,13.158z M37.791,12.451l0.145-0.143l0.205,0.004l0.141,0.145l-0.002,0.205l-0.146,0.143l-0.205-0.004l-0.143-0.146
			L37.791,12.451z M37.791,11.74l0.145-0.141l0.205,0.002l0.141,0.146l-0.002,0.205l-0.146,0.143l-0.205-0.004l-0.143-0.146
			L37.791,11.74z M37.791,11.031l0.145-0.141l0.205,0.004l0.141,0.146l-0.002,0.203l-0.146,0.143l-0.205-0.004l-0.143-0.146
			L37.791,11.031z M37.791,10.324l0.145-0.143l0.205,0.004l0.141,0.146l-0.002,0.205l-0.146,0.143l-0.205-0.006l-0.143-0.146
			L37.791,10.324z M37.791,9.617l0.145-0.145l0.205,0.004l0.141,0.148l-0.002,0.203l-0.146,0.141l-0.205-0.002l-0.143-0.148
			L37.791,9.617z M37.791,8.908l0.145-0.143l0.205,0.002l0.141,0.148l-0.002,0.203l-0.146,0.143l-0.205-0.004l-0.143-0.146
			L37.791,8.908z M37.791,8.197l0.145-0.143l0.205,0.004l0.141,0.146L38.279,8.41l-0.146,0.141l-0.205-0.002l-0.143-0.146
			L37.791,8.197z M37.791,7.488l0.145-0.141l0.205,0.002l0.141,0.148l-0.002,0.203l-0.146,0.143L37.928,7.84l-0.143-0.146
			L37.791,7.488z M37.791,6.781l0.145-0.143l0.205,0.004l0.141,0.146l-0.002,0.205l-0.146,0.141l-0.205-0.004l-0.143-0.146
			L37.791,6.781z M37.791,6.072l0.145-0.143l0.205,0.004l0.141,0.146l-0.002,0.205l-0.146,0.141l-0.205-0.004l-0.143-0.146
			L37.791,6.072z M37.791,5.363l0.145-0.141l0.205,0.002l0.141,0.146l-0.002,0.205l-0.146,0.143l-0.205-0.006l-0.143-0.145
			L37.791,5.363z M37.791,4.654l0.145-0.141l0.205,0.002l0.141,0.146l-0.002,0.205L38.133,5.01l-0.205-0.004l-0.143-0.146
			L37.791,4.654z M37.791,3.945l0.145-0.141l0.205,0.002l0.141,0.148l-0.002,0.203l-0.146,0.143l-0.205-0.004l-0.143-0.148
			L37.791,3.945z M37.791,3.236l0.145-0.143l0.205,0.004l0.141,0.146l-0.002,0.205l-0.146,0.143l-0.205-0.004l-0.143-0.146
			L37.791,3.236z M37.791,2.527l0.145-0.141l0.205,0.004l0.141,0.145L38.279,2.74l-0.146,0.143l-0.205-0.004l-0.143-0.146
			L37.791,2.527z M37.789,1.9c0.154,0.006,0.318,0.012,0.49,0.018v0.115l-0.146,0.141L37.928,2.17l-0.143-0.145L37.789,1.9z
			 M38.99,13.875l-0.004,0.17h-0.492l0.004-0.178l0.146-0.143l0.205,0.004L38.99,13.875z M38.498,13.158l0.146-0.141l0.205,0.004
			l0.141,0.146l-0.004,0.203l-0.146,0.141l-0.203-0.002l-0.143-0.146L38.498,13.158z M38.498,12.451l0.146-0.143l0.205,0.004
			l0.141,0.145l-0.004,0.205l-0.146,0.143l-0.203-0.004l-0.143-0.146L38.498,12.451z M38.498,11.74l0.146-0.141l0.205,0.002
			l0.141,0.146l-0.004,0.205l-0.146,0.143l-0.203-0.004l-0.143-0.146L38.498,11.74z M38.498,11.031l0.146-0.141l0.205,0.004
			l0.141,0.146l-0.004,0.203l-0.146,0.143l-0.203-0.004l-0.143-0.146L38.498,11.031z M38.498,10.324l0.146-0.143l0.205,0.004
			l0.141,0.146l-0.004,0.205L38.84,10.68l-0.203-0.006l-0.143-0.146L38.498,10.324z M38.498,9.617l0.146-0.145l0.205,0.004
			l0.141,0.148l-0.004,0.203L38.84,9.969l-0.203-0.002l-0.143-0.148L38.498,9.617z M38.498,8.908l0.146-0.143l0.205,0.002
			l0.141,0.148l-0.004,0.203L38.84,9.262l-0.203-0.004l-0.143-0.146L38.498,8.908z M38.498,8.197l0.146-0.143l0.205,0.004
			l0.141,0.146L38.986,8.41L38.84,8.551l-0.203-0.002l-0.143-0.146L38.498,8.197z M38.498,7.488l0.146-0.141L38.85,7.35l0.141,0.148
			l-0.004,0.203L38.84,7.844L38.637,7.84l-0.143-0.146L38.498,7.488z M38.498,6.781l0.146-0.143l0.205,0.004l0.141,0.146
			l-0.004,0.205L38.84,7.135l-0.203-0.004l-0.143-0.146L38.498,6.781z M38.498,6.072l0.146-0.143l0.205,0.004L38.99,6.08
			l-0.004,0.205L38.84,6.426l-0.203-0.004l-0.143-0.146L38.498,6.072z M38.498,5.363l0.146-0.141l0.205,0.002l0.141,0.146
			l-0.004,0.205L38.84,5.719l-0.203-0.006l-0.143-0.145L38.498,5.363z M38.498,4.654l0.146-0.141l0.205,0.002l0.141,0.146
			l-0.004,0.205L38.84,5.01l-0.203-0.004l-0.143-0.146L38.498,4.654z M38.498,3.945l0.146-0.141l0.205,0.002l0.141,0.148
			l-0.004,0.203L38.84,4.301l-0.203-0.004l-0.143-0.148L38.498,3.945z M38.498,3.236l0.146-0.143l0.205,0.004l0.141,0.146
			l-0.004,0.205L38.84,3.592l-0.203-0.004l-0.143-0.146L38.498,3.236z M38.498,2.527l0.146-0.141l0.205,0.004l0.141,0.145
			L38.986,2.74L38.84,2.883l-0.203-0.004l-0.143-0.146L38.498,2.527z M38.496,1.926c0.158,0.006,0.324,0.012,0.492,0.016
			l-0.002,0.092L38.84,2.174L38.637,2.17l-0.143-0.145L38.496,1.926z M39.699,13.875l-0.002,0.17h-0.494l0.004-0.178l0.146-0.143
			l0.205,0.004L39.699,13.875z M39.207,13.158l0.146-0.141l0.205,0.004l0.141,0.146l-0.004,0.203l-0.146,0.141l-0.203-0.002
			l-0.145-0.146L39.207,13.158z M39.207,12.451l0.146-0.143l0.205,0.004l0.141,0.145l-0.004,0.205l-0.146,0.143l-0.203-0.004
			l-0.145-0.146L39.207,12.451z M39.207,11.74l0.146-0.141l0.205,0.002l0.141,0.146l-0.004,0.205l-0.146,0.143l-0.203-0.004
			l-0.145-0.146L39.207,11.74z M39.207,11.031l0.146-0.141l0.205,0.004l0.141,0.146l-0.004,0.203l-0.146,0.143l-0.203-0.004
			l-0.145-0.146L39.207,11.031z M39.207,10.324l0.146-0.143l0.205,0.004l0.141,0.146l-0.004,0.205l-0.146,0.143l-0.203-0.006
			l-0.145-0.146L39.207,10.324z M39.207,9.617l0.146-0.145l0.205,0.004l0.141,0.148l-0.004,0.203l-0.146,0.141l-0.203-0.002
			l-0.145-0.148L39.207,9.617z M39.207,8.908l0.146-0.143l0.205,0.002l0.141,0.148l-0.004,0.203l-0.146,0.143l-0.203-0.004
			l-0.145-0.146L39.207,8.908z M39.207,8.197l0.146-0.143l0.205,0.004l0.141,0.146L39.695,8.41l-0.146,0.141l-0.203-0.002
			l-0.145-0.146L39.207,8.197z M39.207,7.488l0.146-0.141l0.205,0.002l0.141,0.148l-0.004,0.203l-0.146,0.143L39.346,7.84
			l-0.145-0.146L39.207,7.488z M39.207,6.781l0.146-0.143l0.205,0.004l0.141,0.146l-0.004,0.205l-0.146,0.141l-0.203-0.004
			l-0.145-0.146L39.207,6.781z M39.207,6.072l0.146-0.143l0.205,0.004l0.141,0.146l-0.004,0.205l-0.146,0.141l-0.203-0.004
			l-0.145-0.146L39.207,6.072z M39.207,5.363l0.146-0.141l0.205,0.002l0.141,0.146l-0.004,0.205l-0.146,0.143l-0.203-0.006
			l-0.145-0.145L39.207,5.363z M39.207,4.654l0.146-0.141l0.205,0.002l0.141,0.146l-0.004,0.205L39.549,5.01l-0.203-0.004
			l-0.145-0.146L39.207,4.654z M39.207,3.945l0.146-0.141l0.205,0.002l0.141,0.148l-0.004,0.203l-0.146,0.143l-0.203-0.004
			l-0.145-0.148L39.207,3.945z M39.207,3.236l0.146-0.143l0.205,0.004l0.141,0.146l-0.004,0.205l-0.146,0.143l-0.203-0.004
			l-0.145-0.146L39.207,3.236z M39.207,2.527l0.146-0.141l0.205,0.004l0.141,0.145L39.695,2.74l-0.146,0.143l-0.203-0.004
			l-0.145-0.146L39.207,2.527z M39.203,1.949c0.162,0.006,0.326,0.01,0.494,0.016l-0.002,0.068l-0.146,0.141L39.346,2.17
			l-0.145-0.145L39.203,1.949z M40.408,13.875l-0.002,0.17h-0.494l0.002-0.178l0.148-0.143l0.205,0.004L40.408,13.875z
			 M39.914,13.158l0.148-0.141l0.205,0.004l0.141,0.146l-0.002,0.203l-0.148,0.141l-0.203-0.002l-0.143-0.146L39.914,13.158z
			 M39.914,12.451l0.148-0.143l0.205,0.004l0.141,0.145l-0.002,0.205l-0.148,0.143l-0.203-0.004l-0.143-0.146L39.914,12.451z
			 M39.914,11.74l0.148-0.141l0.205,0.002l0.141,0.146l-0.002,0.205l-0.148,0.143l-0.203-0.004l-0.143-0.146L39.914,11.74z
			 M39.914,11.031l0.148-0.141l0.205,0.004l0.141,0.146l-0.002,0.203l-0.148,0.143l-0.203-0.004l-0.143-0.146L39.914,11.031z
			 M39.914,10.324l0.148-0.143l0.205,0.004l0.141,0.146l-0.002,0.205l-0.148,0.143l-0.203-0.006l-0.143-0.146L39.914,10.324z
			 M39.914,9.617l0.148-0.145l0.205,0.004l0.141,0.148l-0.002,0.203l-0.148,0.141l-0.203-0.002l-0.143-0.148L39.914,9.617z
			 M39.914,8.908l0.148-0.143l0.205,0.002l0.141,0.148l-0.002,0.203l-0.148,0.143l-0.203-0.004l-0.143-0.146L39.914,8.908z
			 M39.914,8.197l0.148-0.143l0.205,0.004l0.141,0.146L40.406,8.41l-0.148,0.141l-0.203-0.002l-0.143-0.146L39.914,8.197z
			 M39.914,7.488l0.148-0.141l0.205,0.002l0.141,0.148l-0.002,0.203l-0.148,0.143L40.055,7.84l-0.143-0.146L39.914,7.488z
			 M39.914,6.781l0.148-0.143l0.205,0.004l0.141,0.146l-0.002,0.205l-0.148,0.141l-0.203-0.004l-0.143-0.146L39.914,6.781z
			 M39.914,6.072l0.148-0.143l0.205,0.004l0.141,0.146l-0.002,0.205l-0.148,0.141l-0.203-0.004l-0.143-0.146L39.914,6.072z
			 M39.914,5.363l0.148-0.141l0.205,0.002l0.141,0.146l-0.002,0.205l-0.148,0.143l-0.203-0.006l-0.143-0.145L39.914,5.363z
			 M39.914,4.654l0.148-0.141l0.205,0.002l0.141,0.146l-0.002,0.205L40.258,5.01l-0.203-0.004l-0.143-0.146L39.914,4.654z
			 M39.914,3.945l0.148-0.141l0.205,0.002l0.141,0.148l-0.002,0.203l-0.148,0.143l-0.203-0.004l-0.143-0.148L39.914,3.945z
			 M39.914,3.236l0.148-0.143l0.205,0.004l0.141,0.146l-0.002,0.205l-0.148,0.143l-0.203-0.004l-0.143-0.146L39.914,3.236z
			 M39.914,2.527l0.148-0.141l0.205,0.004l0.141,0.145L40.406,2.74l-0.148,0.143l-0.203-0.004l-0.143-0.146L39.914,2.527z
			 M39.912,1.973c0.162,0.006,0.326,0.01,0.494,0.014v0.047l-0.148,0.141L40.055,2.17l-0.143-0.145V1.973z M41.115,13.875
			l-0.002,0.17h-0.492l0.002-0.178l0.148-0.143l0.203,0.004L41.115,13.875z M40.623,13.158l0.148-0.141l0.203,0.004l0.141,0.146
			l-0.002,0.203l-0.148,0.141l-0.201-0.002l-0.143-0.146L40.623,13.158z M40.623,12.451l0.148-0.143l0.203,0.004l0.141,0.145
			l-0.002,0.205l-0.148,0.143l-0.201-0.004l-0.143-0.146L40.623,12.451z M40.623,11.74l0.148-0.141l0.203,0.002l0.141,0.146
			l-0.002,0.205l-0.148,0.143l-0.201-0.004l-0.143-0.146L40.623,11.74z M40.623,11.031l0.148-0.141l0.203,0.004l0.141,0.146
			l-0.002,0.203l-0.148,0.143l-0.201-0.004l-0.143-0.146L40.623,11.031z M40.623,10.324l0.148-0.143l0.203,0.004l0.141,0.146
			l-0.002,0.205l-0.148,0.143l-0.201-0.006l-0.143-0.146L40.623,10.324z M40.623,9.617l0.148-0.145l0.203,0.004l0.141,0.148
			l-0.002,0.203l-0.148,0.141l-0.201-0.002l-0.143-0.148L40.623,9.617z M40.623,8.908l0.148-0.143l0.203,0.002l0.141,0.148
			l-0.002,0.203l-0.148,0.143l-0.201-0.004l-0.143-0.146L40.623,8.908z M40.623,8.197l0.148-0.143l0.203,0.004l0.141,0.146
			L41.113,8.41l-0.148,0.141l-0.201-0.002l-0.143-0.146L40.623,8.197z M40.623,7.488l0.148-0.141l0.203,0.002l0.141,0.148
			l-0.002,0.203l-0.148,0.143L40.764,7.84l-0.143-0.146L40.623,7.488z M40.623,6.781l0.148-0.143l0.203,0.004l0.141,0.146
			l-0.002,0.205l-0.148,0.141l-0.201-0.004l-0.143-0.146L40.623,6.781z M40.623,6.072l0.148-0.143l0.203,0.004l0.141,0.146
			l-0.002,0.205l-0.148,0.141l-0.201-0.004l-0.143-0.146L40.623,6.072z M40.623,5.363l0.148-0.141l0.203,0.002l0.141,0.146
			l-0.002,0.205l-0.148,0.143l-0.201-0.006l-0.143-0.145L40.623,5.363z M40.623,4.654l0.148-0.141l0.203,0.002l0.141,0.146
			l-0.002,0.205L40.965,5.01l-0.201-0.004l-0.143-0.146L40.623,4.654z M40.623,3.945l0.148-0.141l0.203,0.002l0.141,0.148
			l-0.002,0.203l-0.148,0.143l-0.201-0.004l-0.143-0.148L40.623,3.945z M40.623,3.236l0.148-0.143l0.203,0.004l0.141,0.146
			l-0.002,0.205l-0.148,0.143l-0.201-0.004l-0.143-0.146L40.623,3.236z M40.623,2.527l0.148-0.141l0.203,0.004l0.141,0.145
			L41.113,2.74l-0.148,0.143l-0.201-0.004l-0.143-0.146L40.623,2.527z M40.621,1.994C40.783,2,40.947,2.004,41.113,2.01v0.023
			l-0.148,0.141L40.764,2.17l-0.143-0.145V1.994z M41.826,13.875l-0.004,0.17H41.33l0.004-0.178l0.145-0.143l0.205,0.004
			L41.826,13.875z M41.334,13.158l0.145-0.141l0.205,0.004l0.143,0.146l-0.004,0.203l-0.146,0.141l-0.205-0.002l-0.141-0.146
			L41.334,13.158z M41.334,12.451l0.145-0.143l0.205,0.004l0.143,0.145l-0.004,0.205l-0.146,0.143l-0.205-0.004l-0.141-0.146
			L41.334,12.451z M41.334,11.74l0.145-0.141l0.205,0.002l0.143,0.146l-0.004,0.205l-0.146,0.143l-0.205-0.004l-0.141-0.146
			L41.334,11.74z M41.334,11.031l0.145-0.141l0.205,0.004l0.143,0.146l-0.004,0.203l-0.146,0.143l-0.205-0.004l-0.141-0.146
			L41.334,11.031z M41.334,10.324l0.145-0.143l0.205,0.004l0.143,0.146l-0.004,0.205l-0.146,0.143l-0.205-0.006l-0.141-0.146
			L41.334,10.324z M41.334,9.617l0.145-0.145l0.205,0.004l0.143,0.148l-0.004,0.203l-0.146,0.141l-0.205-0.002L41.33,9.818
			L41.334,9.617z M41.334,8.908l0.145-0.143l0.205,0.002l0.143,0.148l-0.004,0.203l-0.146,0.143l-0.205-0.004L41.33,9.111
			L41.334,8.908z M41.334,8.197l0.145-0.143l0.205,0.004l0.143,0.146L41.822,8.41l-0.146,0.141l-0.205-0.002L41.33,8.402
			L41.334,8.197z M41.334,7.488l0.145-0.141l0.205,0.002l0.143,0.148l-0.004,0.203l-0.146,0.143L41.471,7.84L41.33,7.693
			L41.334,7.488z M41.334,6.781l0.145-0.143l0.205,0.004l0.143,0.146l-0.004,0.205l-0.146,0.141l-0.205-0.004L41.33,6.984
			L41.334,6.781z M41.334,6.072l0.145-0.143l0.205,0.004l0.143,0.146l-0.004,0.205l-0.146,0.141l-0.205-0.004L41.33,6.275
			L41.334,6.072z M41.334,5.363l0.145-0.141l0.205,0.002l0.143,0.146l-0.004,0.205l-0.146,0.143l-0.205-0.006L41.33,5.568
			L41.334,5.363z M41.334,4.654l0.145-0.141l0.205,0.002l0.143,0.146l-0.004,0.205L41.676,5.01l-0.205-0.004L41.33,4.859
			L41.334,4.654z M41.334,3.945l0.145-0.141l0.205,0.002l0.143,0.148l-0.004,0.203l-0.146,0.143l-0.205-0.004L41.33,4.148
			L41.334,3.945z M41.334,3.236l0.145-0.143l0.205,0.004l0.143,0.146l-0.004,0.205l-0.146,0.143l-0.205-0.004L41.33,3.441
			L41.334,3.236z M41.334,2.527l0.145-0.141l0.205,0.004l0.143,0.145L41.822,2.74l-0.146,0.143l-0.205-0.004L41.33,2.732
			L41.334,2.527z M41.33,2.016c0.164,0.006,0.326,0.012,0.492,0.016v0.002l-0.146,0.141L41.471,2.17L41.33,2.025V2.016z
			 M42.533,13.875l-0.002,0.17h-0.492l0.002-0.178l0.146-0.143l0.205,0.004L42.533,13.875z M42.041,13.158l0.146-0.141l0.205,0.004
			l0.141,0.146l-0.002,0.203l-0.148,0.141L42.18,13.51l-0.141-0.146L42.041,13.158z M42.041,12.451l0.146-0.143l0.205,0.004
			l0.141,0.145l-0.002,0.205l-0.148,0.143l-0.203-0.004l-0.141-0.146L42.041,12.451z M42.041,11.74l0.146-0.141l0.205,0.002
			l0.141,0.146l-0.002,0.205l-0.148,0.143l-0.203-0.004l-0.141-0.146L42.041,11.74z M42.041,11.031l0.146-0.141l0.205,0.004
			l0.141,0.146l-0.002,0.203l-0.148,0.143l-0.203-0.004l-0.141-0.146L42.041,11.031z M42.041,10.324l0.146-0.143l0.205,0.004
			l0.141,0.146l-0.002,0.205l-0.148,0.143l-0.203-0.006l-0.141-0.146L42.041,10.324z M42.041,9.617l0.146-0.145l0.205,0.004
			l0.141,0.148l-0.002,0.203l-0.148,0.141L42.18,9.967l-0.141-0.148L42.041,9.617z M42.041,8.908l0.146-0.143l0.205,0.002
			l0.141,0.148l-0.002,0.203l-0.148,0.143L42.18,9.258l-0.141-0.146L42.041,8.908z M42.041,8.197l0.146-0.143l0.205,0.004
			l0.141,0.146L42.531,8.41l-0.148,0.141L42.18,8.549l-0.141-0.146L42.041,8.197z M42.041,7.488l0.146-0.141l0.205,0.002
			l0.141,0.148l-0.002,0.203l-0.148,0.143L42.18,7.84l-0.141-0.146L42.041,7.488z M42.041,6.781l0.146-0.143l0.205,0.004
			l0.141,0.146l-0.002,0.205l-0.148,0.141L42.18,7.131l-0.141-0.146L42.041,6.781z M42.041,6.072l0.146-0.143l0.205,0.004
			l0.141,0.146l-0.002,0.205l-0.148,0.141L42.18,6.422l-0.141-0.146L42.041,6.072z M42.041,5.363l0.146-0.141l0.205,0.002
			l0.141,0.146l-0.002,0.205l-0.148,0.143L42.18,5.713l-0.141-0.145L42.041,5.363z M42.041,4.654l0.146-0.141l0.205,0.002
			l0.141,0.146l-0.002,0.205L42.383,5.01L42.18,5.006l-0.141-0.146L42.041,4.654z M42.041,3.945l0.146-0.141l0.205,0.002
			l0.141,0.148l-0.002,0.203l-0.148,0.143L42.18,4.297l-0.141-0.148L42.041,3.945z M42.041,3.236l0.146-0.143l0.205,0.004
			l0.141,0.146l-0.002,0.205l-0.148,0.143L42.18,3.588l-0.141-0.146L42.041,3.236z M42.041,2.527l0.146-0.141l0.205,0.004
			l0.141,0.145L42.531,2.74l-0.148,0.143L42.18,2.879l-0.141-0.146L42.041,2.527z M42.512,2.051l-0.129,0.123L42.18,2.17
			l-0.127-0.133C42.205,2.043,42.357,2.047,42.512,2.051 M43.242,13.875l-0.002,0.17h-0.494l0.004-0.178l0.146-0.143l0.203,0.004
			L43.242,13.875z M42.75,13.158l0.146-0.141l0.203,0.004l0.143,0.146l-0.002,0.203l-0.148,0.141l-0.205-0.002l-0.141-0.146
			L42.75,13.158z M42.75,12.451l0.146-0.143l0.203,0.004l0.143,0.145l-0.002,0.205l-0.148,0.143l-0.205-0.004l-0.141-0.146
			L42.75,12.451z M42.75,11.74l0.146-0.141l0.203,0.002l0.143,0.146l-0.002,0.205l-0.148,0.143l-0.205-0.004l-0.141-0.146
			L42.75,11.74z M42.75,11.031l0.146-0.141l0.203,0.004l0.143,0.146l-0.002,0.203l-0.148,0.143l-0.205-0.004l-0.141-0.146
			L42.75,11.031z M42.75,10.324l0.146-0.143l0.203,0.004l0.143,0.146l-0.002,0.205l-0.148,0.143l-0.205-0.006l-0.141-0.146
			L42.75,10.324z M42.75,9.617l0.146-0.145L43.1,9.477l0.143,0.148L43.24,9.828l-0.148,0.141l-0.205-0.002l-0.141-0.148L42.75,9.617
			z M42.75,8.908l0.146-0.143L43.1,8.768l0.143,0.148L43.24,9.119l-0.148,0.143l-0.205-0.004l-0.141-0.146L42.75,8.908z
			 M42.75,8.197l0.146-0.143L43.1,8.059l0.143,0.146L43.24,8.41l-0.148,0.141l-0.205-0.002l-0.141-0.146L42.75,8.197z M42.75,7.488
			l0.146-0.141L43.1,7.35l0.143,0.148L43.24,7.701l-0.148,0.143L42.887,7.84l-0.141-0.146L42.75,7.488z M42.75,6.781l0.146-0.143
			L43.1,6.643l0.143,0.146L43.24,6.994l-0.148,0.141l-0.205-0.004l-0.141-0.146L42.75,6.781z M42.75,6.072l0.146-0.143L43.1,5.934
			l0.143,0.146L43.24,6.285l-0.148,0.141l-0.205-0.004l-0.141-0.146L42.75,6.072z M42.75,5.363l0.146-0.141L43.1,5.225l0.143,0.146
			L43.24,5.576l-0.148,0.143l-0.205-0.006l-0.141-0.145L42.75,5.363z M42.75,4.654l0.146-0.141L43.1,4.516l0.143,0.146L43.24,4.867
			L43.092,5.01l-0.205-0.004l-0.141-0.146L42.75,4.654z M42.75,3.945l0.146-0.141L43.1,3.807l0.143,0.148L43.24,4.158l-0.148,0.143
			l-0.205-0.004l-0.141-0.148L42.75,3.945z M42.75,3.236l0.146-0.143L43.1,3.098l0.143,0.146L43.24,3.449l-0.148,0.143l-0.205-0.004
			l-0.141-0.146L42.75,3.236z M42.75,2.527l0.146-0.141L43.1,2.391l0.143,0.145L43.24,2.74l-0.148,0.143l-0.205-0.004l-0.141-0.146
			L42.75,2.527z M43.199,2.07l-0.107,0.104L42.887,2.17l-0.105-0.111C42.922,2.063,43.061,2.066,43.199,2.07 M43.953,13.875
			l-0.004,0.17h-0.494l0.004-0.178l0.146-0.143l0.205,0.004L43.953,13.875z M43.459,13.158l0.146-0.141l0.205,0.004l0.143,0.146
			l-0.004,0.203l-0.148,0.141l-0.203-0.002l-0.143-0.146L43.459,13.158z M43.459,12.451l0.146-0.143l0.205,0.004l0.143,0.145
			l-0.004,0.205l-0.148,0.143l-0.203-0.004l-0.143-0.146L43.459,12.451z M43.459,11.74l0.146-0.141l0.205,0.002l0.143,0.146
			l-0.004,0.205l-0.148,0.143l-0.203-0.004l-0.143-0.146L43.459,11.74z M43.459,11.031l0.146-0.141l0.205,0.004l0.143,0.146
			l-0.004,0.203l-0.148,0.143l-0.203-0.004l-0.143-0.146L43.459,11.031z M43.459,10.324l0.146-0.143l0.205,0.004l0.143,0.146
			l-0.004,0.205l-0.148,0.143l-0.203-0.006l-0.143-0.146L43.459,10.324z M43.459,9.617l0.146-0.145l0.205,0.004l0.143,0.148
			l-0.004,0.203l-0.148,0.141l-0.203-0.002l-0.143-0.148L43.459,9.617z M43.459,8.908l0.146-0.143l0.205,0.002l0.143,0.148
			l-0.004,0.203l-0.148,0.143l-0.203-0.004l-0.143-0.146L43.459,8.908z M43.459,8.197l0.146-0.143l0.205,0.004l0.143,0.146
			L43.949,8.41l-0.148,0.141l-0.203-0.002l-0.143-0.146L43.459,8.197z M43.459,7.488l0.146-0.141l0.205,0.002l0.143,0.148
			l-0.004,0.203l-0.148,0.143L43.598,7.84l-0.143-0.146L43.459,7.488z M43.459,6.781l0.146-0.143l0.205,0.004l0.143,0.146
			l-0.004,0.205l-0.148,0.141l-0.203-0.004l-0.143-0.146L43.459,6.781z M43.459,6.072l0.146-0.143l0.205,0.004l0.143,0.146
			l-0.004,0.205l-0.148,0.141l-0.203-0.004l-0.143-0.146L43.459,6.072z M43.459,5.363l0.146-0.141l0.205,0.002l0.143,0.146
			l-0.004,0.205l-0.148,0.143l-0.203-0.006l-0.143-0.145L43.459,5.363z M43.459,4.654l0.146-0.141l0.205,0.002l0.143,0.146
			l-0.004,0.205L43.801,5.01l-0.203-0.004l-0.143-0.146L43.459,4.654z M43.459,3.945l0.146-0.141l0.205,0.002l0.143,0.148
			l-0.004,0.203l-0.148,0.143l-0.203-0.004l-0.143-0.148L43.459,3.945z M43.459,3.236l0.146-0.143l0.205,0.004l0.143,0.146
			l-0.004,0.205l-0.148,0.143l-0.203-0.004l-0.143-0.146L43.459,3.236z M43.459,2.527l0.146-0.141l0.205,0.004l0.143,0.145
			L43.949,2.74l-0.148,0.143l-0.203-0.004l-0.143-0.146L43.459,2.527z M43.889,2.088l-0.088,0.086L43.598,2.17l-0.09-0.092
			C43.637,2.082,43.764,2.084,43.889,2.088 M44.658,13.875l-0.002,0.17h-0.492l0.004-0.178l0.146-0.143l0.203,0.004L44.658,13.875z
			 M44.168,13.158l0.146-0.141l0.203,0.004l0.141,0.146l-0.002,0.203l-0.146,0.141l-0.203-0.002l-0.143-0.146L44.168,13.158z
			 M44.168,12.451l0.146-0.143l0.203,0.004l0.141,0.145l-0.002,0.205l-0.146,0.143l-0.203-0.004l-0.143-0.146L44.168,12.451z
			 M44.168,11.74l0.146-0.141l0.203,0.002l0.141,0.146l-0.002,0.205l-0.146,0.143l-0.203-0.004l-0.143-0.146L44.168,11.74z
			 M44.168,11.031l0.146-0.141l0.203,0.004l0.141,0.146l-0.002,0.203l-0.146,0.143l-0.203-0.004l-0.143-0.146L44.168,11.031z
			 M44.168,10.324l0.146-0.143l0.203,0.004l0.141,0.146l-0.002,0.205L44.51,10.68l-0.203-0.006l-0.143-0.146L44.168,10.324z
			 M44.168,9.617l0.146-0.145l0.203,0.004l0.141,0.148l-0.002,0.203L44.51,9.969l-0.203-0.002l-0.143-0.148L44.168,9.617z
			 M44.168,8.908l0.146-0.143l0.203,0.002l0.141,0.148l-0.002,0.203L44.51,9.262l-0.203-0.004l-0.143-0.146L44.168,8.908z
			 M44.168,8.197l0.146-0.143l0.203,0.004l0.141,0.146L44.656,8.41L44.51,8.551l-0.203-0.002l-0.143-0.146L44.168,8.197z
			 M44.168,7.488l0.146-0.141l0.203,0.002l0.141,0.148l-0.002,0.203L44.51,7.844L44.307,7.84l-0.143-0.146L44.168,7.488z
			 M44.168,6.781l0.146-0.143l0.203,0.004l0.141,0.146l-0.002,0.205L44.51,7.135l-0.203-0.004l-0.143-0.146L44.168,6.781z
			 M44.168,6.072l0.146-0.143l0.203,0.004l0.141,0.146l-0.002,0.205L44.51,6.426l-0.203-0.004l-0.143-0.146L44.168,6.072z
			 M44.168,5.363l0.146-0.141l0.203,0.002l0.141,0.146l-0.002,0.205L44.51,5.719l-0.203-0.006l-0.143-0.145L44.168,5.363z
			 M44.168,4.654l0.146-0.141l0.203,0.002l0.141,0.146l-0.002,0.205L44.51,5.01l-0.203-0.004l-0.143-0.146L44.168,4.654z
			 M44.168,3.945l0.146-0.141l0.203,0.002l0.141,0.148l-0.002,0.203L44.51,4.301l-0.203-0.004l-0.143-0.148L44.168,3.945z
			 M44.168,3.236l0.146-0.143l0.203,0.004l0.141,0.146l-0.002,0.205L44.51,3.592l-0.203-0.004l-0.143-0.146L44.168,3.236z
			 M44.168,2.527l0.146-0.141l0.203,0.004l0.141,0.145L44.656,2.74L44.51,2.883l-0.203-0.004l-0.143-0.146L44.168,2.527z
			 M44.582,2.104l-0.072,0.07L44.307,2.17l-0.072-0.074C44.352,2.1,44.469,2.102,44.582,2.104 M45.367,13.875l-0.002,0.17h-0.492
			l0.004-0.178l0.145-0.143l0.205,0.004L45.367,13.875z M44.877,13.158l0.145-0.141l0.205,0.004l0.141,0.146l-0.002,0.203
			l-0.146,0.141l-0.203-0.002l-0.143-0.146L44.877,13.158z M44.877,12.451l0.145-0.143l0.205,0.004l0.141,0.145l-0.002,0.205
			l-0.146,0.143l-0.203-0.004l-0.143-0.146L44.877,12.451z M44.877,11.74l0.145-0.141l0.205,0.002l0.141,0.146l-0.002,0.205
			l-0.146,0.143l-0.203-0.004l-0.143-0.146L44.877,11.74z M44.877,11.031l0.145-0.141l0.205,0.004l0.141,0.146l-0.002,0.203
			l-0.146,0.143l-0.203-0.004l-0.143-0.146L44.877,11.031z M44.877,10.324l0.145-0.143l0.205,0.004l0.141,0.146l-0.002,0.205
			l-0.146,0.143l-0.203-0.006l-0.143-0.146L44.877,10.324z M44.877,9.617l0.145-0.145l0.205,0.004l0.141,0.148l-0.002,0.203
			l-0.146,0.141l-0.203-0.002l-0.143-0.148L44.877,9.617z M44.877,8.908l0.145-0.143l0.205,0.002l0.141,0.148l-0.002,0.203
			l-0.146,0.143l-0.203-0.004l-0.143-0.146L44.877,8.908z M44.877,8.197l0.145-0.143l0.205,0.004l0.141,0.146L45.365,8.41
			l-0.146,0.141l-0.203-0.002l-0.143-0.146L44.877,8.197z M44.877,7.488l0.145-0.141l0.205,0.002l0.141,0.148l-0.002,0.203
			l-0.146,0.143L45.016,7.84l-0.143-0.146L44.877,7.488z M44.877,6.781l0.145-0.143l0.205,0.004l0.141,0.146l-0.002,0.205
			l-0.146,0.141l-0.203-0.004l-0.143-0.146L44.877,6.781z M44.877,6.072l0.145-0.143l0.205,0.004l0.141,0.146l-0.002,0.205
			l-0.146,0.141l-0.203-0.004l-0.143-0.146L44.877,6.072z M44.877,5.363l0.145-0.141l0.205,0.002l0.141,0.146l-0.002,0.205
			l-0.146,0.143l-0.203-0.006l-0.143-0.145L44.877,5.363z M44.877,4.654l0.145-0.141l0.205,0.002l0.141,0.146l-0.002,0.205
			L45.219,5.01l-0.203-0.004l-0.143-0.146L44.877,4.654z M44.877,3.945l0.145-0.141l0.205,0.002l0.141,0.148l-0.002,0.203
			l-0.146,0.143l-0.203-0.004l-0.143-0.148L44.877,3.945z M44.877,3.236l0.145-0.143l0.205,0.004l0.141,0.146l-0.002,0.205
			l-0.146,0.143l-0.203-0.004l-0.143-0.146L44.877,3.236z M44.877,2.527l0.145-0.141l0.205,0.004l0.141,0.145L45.365,2.74
			l-0.146,0.143l-0.203-0.004l-0.143-0.146L44.877,2.527z M45.273,2.119l-0.055,0.055L45.016,2.17l-0.059-0.057
			C45.064,2.115,45.172,2.117,45.273,2.119 M46.076,13.875l-0.002,0.17h-0.492l0.004-0.178l0.146-0.143l0.203,0.004L46.076,13.875z
			 M45.586,13.158l0.146-0.141l0.203,0.004l0.141,0.146l-0.002,0.203l-0.146,0.141l-0.205-0.002l-0.141-0.146L45.586,13.158z
			 M45.586,12.451l0.146-0.143l0.203,0.004l0.141,0.145l-0.002,0.205l-0.146,0.143l-0.205-0.004l-0.141-0.146L45.586,12.451z
			 M45.586,11.74l0.146-0.141l0.203,0.002l0.141,0.146l-0.002,0.205l-0.146,0.143l-0.205-0.004l-0.141-0.146L45.586,11.74z
			 M45.586,11.031l0.146-0.141l0.203,0.004l0.141,0.146l-0.002,0.203l-0.146,0.143l-0.205-0.004l-0.141-0.146L45.586,11.031z
			 M45.586,10.324l0.146-0.143l0.203,0.004l0.141,0.146l-0.002,0.205l-0.146,0.143l-0.205-0.006l-0.141-0.146L45.586,10.324z
			 M45.586,9.617l0.146-0.145l0.203,0.004l0.141,0.148l-0.002,0.203l-0.146,0.141l-0.205-0.002l-0.141-0.148L45.586,9.617z
			 M45.586,8.908l0.146-0.143l0.203,0.002l0.141,0.148l-0.002,0.203l-0.146,0.143l-0.205-0.004l-0.141-0.146L45.586,8.908z
			 M45.586,8.197l0.146-0.143l0.203,0.004l0.141,0.146L46.074,8.41l-0.146,0.141l-0.205-0.002l-0.141-0.146L45.586,8.197z
			 M45.586,7.488l0.146-0.141l0.203,0.002l0.141,0.148l-0.002,0.203l-0.146,0.143L45.723,7.84l-0.141-0.146L45.586,7.488z
			 M45.586,6.781l0.146-0.143l0.203,0.004l0.141,0.146l-0.002,0.205l-0.146,0.141l-0.205-0.004l-0.141-0.146L45.586,6.781z
			 M45.586,6.072l0.146-0.143l0.203,0.004l0.141,0.146l-0.002,0.205l-0.146,0.141l-0.205-0.004l-0.141-0.146L45.586,6.072z
			 M45.586,5.363l0.146-0.141l0.203,0.002l0.141,0.146l-0.002,0.205l-0.146,0.143l-0.205-0.006l-0.141-0.145L45.586,5.363z
			 M45.586,4.654l0.146-0.141l0.203,0.002l0.141,0.146l-0.002,0.205L45.928,5.01l-0.205-0.004l-0.141-0.146L45.586,4.654z
			 M45.586,3.945l0.146-0.141l0.203,0.002l0.141,0.148l-0.002,0.203l-0.146,0.143l-0.205-0.004l-0.141-0.148L45.586,3.945z
			 M45.586,3.236l0.146-0.143l0.203,0.004l0.141,0.146l-0.002,0.205l-0.146,0.143l-0.205-0.004l-0.141-0.146L45.586,3.236z
			 M45.586,2.527l0.146-0.141l0.203,0.004l0.141,0.145L46.074,2.74l-0.146,0.143l-0.205-0.004l-0.141-0.146L45.586,2.527z
			 M45.971,2.131l-0.043,0.043L45.723,2.17L45.68,2.127C45.779,2.129,45.877,2.131,45.971,2.131 M46.785,13.875l-0.002,0.17h-0.494
			l0.002-0.178l0.148-0.143l0.205,0.004L46.785,13.875z M46.291,13.158l0.148-0.141l0.205,0.004l0.141,0.146l-0.002,0.203
			l-0.148,0.141l-0.203-0.002l-0.143-0.146L46.291,13.158z M46.291,12.451l0.148-0.143l0.205,0.004l0.141,0.145l-0.002,0.205
			l-0.148,0.143l-0.203-0.004l-0.143-0.146L46.291,12.451z M46.291,11.74l0.148-0.141l0.205,0.002l0.141,0.146l-0.002,0.205
			l-0.148,0.143l-0.203-0.004l-0.143-0.146L46.291,11.74z M46.291,11.031l0.148-0.141l0.205,0.004l0.141,0.146l-0.002,0.203
			l-0.148,0.143l-0.203-0.004l-0.143-0.146L46.291,11.031z M46.291,10.324l0.148-0.143l0.205,0.004l0.141,0.146l-0.002,0.205
			l-0.148,0.143l-0.203-0.006l-0.143-0.146L46.291,10.324z M46.291,9.617l0.148-0.145l0.205,0.004l0.141,0.148l-0.002,0.203
			l-0.148,0.141l-0.203-0.002l-0.143-0.148L46.291,9.617z M46.291,8.908l0.148-0.143l0.205,0.002l0.141,0.148l-0.002,0.203
			l-0.148,0.143l-0.203-0.004l-0.143-0.146L46.291,8.908z M46.291,8.197l0.148-0.143l0.205,0.004l0.141,0.146L46.783,8.41
			l-0.148,0.141l-0.203-0.002l-0.143-0.146L46.291,8.197z M46.291,7.488l0.148-0.141l0.205,0.002l0.141,0.148l-0.002,0.203
			l-0.148,0.143L46.432,7.84l-0.143-0.146L46.291,7.488z M46.291,6.781l0.148-0.143l0.205,0.004l0.141,0.146l-0.002,0.205
			l-0.148,0.141l-0.203-0.004l-0.143-0.146L46.291,6.781z M46.291,6.072l0.148-0.143l0.205,0.004l0.141,0.146l-0.002,0.205
			l-0.148,0.141l-0.203-0.004l-0.143-0.146L46.291,6.072z M46.291,5.363l0.148-0.141l0.205,0.002l0.141,0.146l-0.002,0.205
			l-0.148,0.143l-0.203-0.006l-0.143-0.145L46.291,5.363z M46.291,4.654l0.148-0.141l0.205,0.002l0.141,0.146l-0.002,0.205
			L46.635,5.01l-0.203-0.004l-0.143-0.146L46.291,4.654z M46.291,3.945l0.148-0.141l0.205,0.002l0.141,0.148l-0.002,0.203
			l-0.148,0.143l-0.203-0.004l-0.143-0.148L46.291,3.945z M46.291,3.236l0.148-0.143l0.205,0.004l0.141,0.146l-0.002,0.205
			l-0.148,0.143l-0.203-0.004l-0.143-0.146L46.291,3.236z M46.291,2.527l0.148-0.141l0.205,0.004l0.141,0.145L46.783,2.74
			l-0.148,0.143l-0.203-0.004l-0.143-0.146L46.291,2.527z M46.672,2.139l-0.037,0.035L46.432,2.17l-0.033-0.033
			C46.494,2.139,46.584,2.139,46.672,2.139 M47.496,13.875l-0.004,0.17h-0.494l0.004-0.178l0.146-0.143l0.205,0.004L47.496,13.875z
			 M47.002,13.158l0.146-0.141l0.205,0.004l0.143,0.146l-0.006,0.203l-0.145,0.141l-0.205-0.002l-0.143-0.146L47.002,13.158z
			 M47.002,12.451l0.146-0.143l0.205,0.004l0.143,0.145l-0.006,0.205l-0.145,0.143l-0.205-0.004l-0.143-0.146L47.002,12.451z
			 M47.002,11.74l0.146-0.141l0.205,0.002l0.143,0.146l-0.006,0.205l-0.145,0.143l-0.205-0.004l-0.143-0.146L47.002,11.74z
			 M47.002,11.031l0.146-0.141l0.205,0.004l0.143,0.146l-0.006,0.203l-0.145,0.143l-0.205-0.004l-0.143-0.146L47.002,11.031z
			 M47.002,10.324l0.146-0.143l0.205,0.004l0.143,0.146l-0.006,0.205l-0.145,0.143l-0.205-0.006l-0.143-0.146L47.002,10.324z
			 M47.002,9.617l0.146-0.145l0.205,0.004l0.143,0.148L47.49,9.828l-0.145,0.141l-0.205-0.002l-0.143-0.148L47.002,9.617z
			 M47.002,8.908l0.146-0.143l0.205,0.002l0.143,0.148L47.49,9.119l-0.145,0.143l-0.205-0.004l-0.143-0.146L47.002,8.908z
			 M47.002,8.197l0.146-0.143l0.205,0.004l0.143,0.146L47.49,8.41l-0.145,0.141l-0.205-0.002l-0.143-0.146L47.002,8.197z
			 M47.002,7.488l0.146-0.141l0.205,0.002l0.143,0.148L47.49,7.701l-0.145,0.143L47.141,7.84l-0.143-0.146L47.002,7.488z
			 M47.002,6.781l0.146-0.143l0.205,0.004l0.143,0.146L47.49,6.994l-0.145,0.141l-0.205-0.004l-0.143-0.146L47.002,6.781z
			 M47.002,6.072l0.146-0.143l0.205,0.004l0.143,0.146L47.49,6.285l-0.145,0.141l-0.205-0.004l-0.143-0.146L47.002,6.072z
			 M47.002,5.363l0.146-0.141l0.205,0.002l0.143,0.146L47.49,5.576l-0.145,0.143l-0.205-0.006l-0.143-0.145L47.002,5.363z
			 M47.002,4.654l0.146-0.141l0.205,0.002l0.143,0.146L47.49,4.867L47.346,5.01l-0.205-0.004l-0.143-0.146L47.002,4.654z
			 M47.002,3.945l0.146-0.141l0.205,0.002l0.143,0.148L47.49,4.158l-0.145,0.143l-0.205-0.004l-0.143-0.148L47.002,3.945z
			 M47.002,3.236l0.146-0.143l0.205,0.004l0.143,0.146L47.49,3.449l-0.145,0.143l-0.205-0.004l-0.143-0.146L47.002,3.236z
			 M47.002,2.527l0.146-0.141l0.205,0.004l0.143,0.145L47.49,2.74l-0.145,0.143l-0.205-0.004l-0.143-0.146L47.002,2.527z
			 M47.383,2.137l-0.037,0.037L47.141,2.17l-0.031-0.031C47.197,2.139,47.289,2.139,47.383,2.137 M48.203,13.875l-0.004,0.17h-0.492
			l0.004-0.178l0.146-0.143l0.205,0.004L48.203,13.875z M47.711,13.158l0.146-0.141l0.205,0.004l0.141,0.146l-0.004,0.203
			l-0.146,0.141L47.85,13.51l-0.143-0.146L47.711,13.158z M47.711,12.451l0.146-0.143l0.205,0.004l0.141,0.145l-0.004,0.205
			l-0.146,0.143l-0.203-0.004l-0.143-0.146L47.711,12.451z M47.711,11.74l0.146-0.141l0.205,0.002l0.141,0.146l-0.004,0.205
			l-0.146,0.143l-0.203-0.004l-0.143-0.146L47.711,11.74z M47.711,11.031l0.146-0.141l0.205,0.004l0.141,0.146l-0.004,0.203
			l-0.146,0.143l-0.203-0.004l-0.143-0.146L47.711,11.031z M47.711,10.324l0.146-0.143l0.205,0.004l0.141,0.146l-0.004,0.205
			l-0.146,0.143l-0.203-0.006l-0.143-0.146L47.711,10.324z M47.711,9.617l0.146-0.145l0.205,0.004l0.141,0.148l-0.004,0.203
			l-0.146,0.141L47.85,9.967l-0.143-0.148L47.711,9.617z M47.711,8.908l0.146-0.143l0.205,0.002l0.141,0.148l-0.004,0.203
			l-0.146,0.143L47.85,9.258l-0.143-0.146L47.711,8.908z M47.711,8.197l0.146-0.143l0.205,0.004l0.141,0.146L48.199,8.41
			l-0.146,0.141L47.85,8.549l-0.143-0.146L47.711,8.197z M47.711,7.488l0.146-0.141l0.205,0.002l0.141,0.148l-0.004,0.203
			l-0.146,0.143L47.85,7.84l-0.143-0.146L47.711,7.488z M47.711,6.781l0.146-0.143l0.205,0.004l0.141,0.146l-0.004,0.205
			l-0.146,0.141L47.85,7.131l-0.143-0.146L47.711,6.781z M47.711,6.072l0.146-0.143l0.205,0.004l0.141,0.146l-0.004,0.205
			l-0.146,0.141L47.85,6.422l-0.143-0.146L47.711,6.072z M47.711,5.363l0.146-0.141l0.205,0.002l0.141,0.146l-0.004,0.205
			l-0.146,0.143L47.85,5.713l-0.143-0.145L47.711,5.363z M47.711,4.654l0.146-0.141l0.205,0.002l0.141,0.146l-0.004,0.205
			L48.053,5.01L47.85,5.006l-0.143-0.146L47.711,4.654z M47.711,3.945l0.146-0.141l0.205,0.002l0.141,0.148l-0.004,0.203
			l-0.146,0.143L47.85,4.297l-0.143-0.148L47.711,3.945z M47.711,3.236l0.146-0.143l0.205,0.004l0.141,0.146l-0.004,0.205
			l-0.146,0.143L47.85,3.588l-0.143-0.146L47.711,3.236z M47.711,2.527l0.146-0.141l0.205,0.004l0.141,0.145L48.199,2.74
			l-0.146,0.143L47.85,2.879l-0.143-0.146L47.711,2.527z M48.102,2.127l-0.049,0.047L47.85,2.17l-0.039-0.039
			C47.904,2.131,48.002,2.129,48.102,2.127 M48.912,13.875l-0.004,0.17h-0.492l0.004-0.178l0.146-0.143l0.203,0.004L48.912,13.875z
			 M48.42,13.158l0.146-0.141l0.203,0.004l0.143,0.146l-0.004,0.203l-0.146,0.141l-0.205-0.002l-0.141-0.146L48.42,13.158z
			 M48.42,12.451l0.146-0.143l0.203,0.004l0.143,0.145l-0.004,0.205l-0.146,0.143l-0.205-0.004l-0.141-0.146L48.42,12.451z
			 M48.42,11.74l0.146-0.141l0.203,0.002l0.143,0.146l-0.004,0.205l-0.146,0.143l-0.205-0.004l-0.141-0.146L48.42,11.74z
			 M48.42,11.031l0.146-0.141l0.203,0.004l0.143,0.146l-0.004,0.203l-0.146,0.143l-0.205-0.004l-0.141-0.146L48.42,11.031z
			 M48.42,10.324l0.146-0.143l0.203,0.004l0.143,0.146l-0.004,0.205l-0.146,0.143l-0.205-0.006l-0.141-0.146L48.42,10.324z
			 M48.42,9.617l0.146-0.145l0.203,0.004l0.143,0.148l-0.004,0.203l-0.146,0.141l-0.205-0.002l-0.141-0.148L48.42,9.617z
			 M48.42,8.908l0.146-0.143l0.203,0.002l0.143,0.148l-0.004,0.203l-0.146,0.143l-0.205-0.004l-0.141-0.146L48.42,8.908z
			 M48.42,8.197l0.146-0.143l0.203,0.004l0.143,0.146L48.908,8.41l-0.146,0.141l-0.205-0.002l-0.141-0.146L48.42,8.197z
			 M48.42,7.488l0.146-0.141L48.77,7.35l0.143,0.148l-0.004,0.203l-0.146,0.143L48.557,7.84l-0.141-0.146L48.42,7.488z M48.42,6.781
			l0.146-0.143l0.203,0.004l0.143,0.146l-0.004,0.205l-0.146,0.141l-0.205-0.004l-0.141-0.146L48.42,6.781z M48.42,6.072
			l0.146-0.143l0.203,0.004l0.143,0.146l-0.004,0.205l-0.146,0.141l-0.205-0.004l-0.141-0.146L48.42,6.072z M48.42,5.363
			l0.146-0.141l0.203,0.002l0.143,0.146l-0.004,0.205l-0.146,0.143l-0.205-0.006l-0.141-0.145L48.42,5.363z M48.42,4.654
			l0.146-0.141l0.203,0.002l0.143,0.146l-0.004,0.205L48.762,5.01l-0.205-0.004l-0.141-0.146L48.42,4.654z M48.42,3.945l0.146-0.141
			l0.203,0.002l0.143,0.148l-0.004,0.203l-0.146,0.143l-0.205-0.004l-0.141-0.148L48.42,3.945z M48.42,3.236l0.146-0.143
			l0.203,0.004l0.143,0.146l-0.004,0.205l-0.146,0.143l-0.205-0.004l-0.141-0.146L48.42,3.236z M48.42,2.527l0.146-0.141
			l0.203,0.004l0.143,0.145L48.908,2.74l-0.146,0.143l-0.205-0.004l-0.141-0.146L48.42,2.527z M48.824,2.113l-0.063,0.061
			L48.557,2.17L48.51,2.119C48.611,2.117,48.717,2.115,48.824,2.113 M49.621,13.875l-0.004,0.17h-0.492l0.004-0.178l0.146-0.143
			l0.203,0.004L49.621,13.875z M49.129,13.158l0.146-0.141l0.203,0.004l0.143,0.146l-0.004,0.203l-0.148,0.141l-0.203-0.002
			l-0.141-0.146L49.129,13.158z M49.129,12.451l0.146-0.143l0.203,0.004l0.143,0.145l-0.004,0.205l-0.148,0.143l-0.203-0.004
			l-0.141-0.146L49.129,12.451z M49.129,11.74l0.146-0.141l0.203,0.002l0.143,0.146l-0.004,0.205l-0.148,0.143l-0.203-0.004
			l-0.141-0.146L49.129,11.74z M49.129,11.031l0.146-0.141l0.203,0.004l0.143,0.146l-0.004,0.203l-0.148,0.143l-0.203-0.004
			l-0.141-0.146L49.129,11.031z M49.129,10.324l0.146-0.143l0.203,0.004l0.143,0.146l-0.004,0.205l-0.148,0.143l-0.203-0.006
			l-0.141-0.146L49.129,10.324z M49.129,9.617l0.146-0.145l0.203,0.004l0.143,0.148l-0.004,0.203l-0.148,0.141l-0.203-0.002
			l-0.141-0.148L49.129,9.617z M49.129,8.908l0.146-0.143l0.203,0.002l0.143,0.148l-0.004,0.203l-0.148,0.143l-0.203-0.004
			l-0.141-0.146L49.129,8.908z M49.129,8.197l0.146-0.143l0.203,0.004l0.143,0.146L49.617,8.41l-0.148,0.141l-0.203-0.002
			l-0.141-0.146L49.129,8.197z M49.129,7.488l0.146-0.141l0.203,0.002l0.143,0.148l-0.004,0.203l-0.148,0.143L49.266,7.84
			l-0.141-0.146L49.129,7.488z M49.129,6.781l0.146-0.143l0.203,0.004l0.143,0.146l-0.004,0.205l-0.148,0.141l-0.203-0.004
			l-0.141-0.146L49.129,6.781z M49.129,6.072l0.146-0.143l0.203,0.004l0.143,0.146l-0.004,0.205l-0.148,0.141l-0.203-0.004
			l-0.141-0.146L49.129,6.072z M49.129,5.363l0.146-0.141l0.203,0.002l0.143,0.146l-0.004,0.205l-0.148,0.143l-0.203-0.006
			l-0.141-0.145L49.129,5.363z M49.129,4.654l0.146-0.141l0.203,0.002l0.143,0.146l-0.004,0.205L49.469,5.01l-0.203-0.004
			l-0.141-0.146L49.129,4.654z M49.129,3.945l0.146-0.141l0.203,0.002l0.143,0.148l-0.004,0.203l-0.148,0.143l-0.203-0.004
			l-0.141-0.148L49.129,3.945z M49.129,3.236l0.146-0.143l0.203,0.004l0.143,0.146l-0.004,0.205l-0.148,0.143l-0.203-0.004
			l-0.141-0.146L49.129,3.236z M49.129,2.527l0.146-0.141l0.203,0.004l0.143,0.145L49.617,2.74l-0.148,0.143l-0.203-0.004
			l-0.141-0.146L49.129,2.527z M49.551,2.096l-0.082,0.078L49.266,2.17l-0.063-0.066C49.316,2.102,49.434,2.1,49.551,2.096
			 M50.33,13.875l-0.004,0.17h-0.494l0.004-0.178l0.146-0.143l0.205,0.004L50.33,13.875z M49.836,13.158l0.146-0.141l0.205,0.004
			l0.143,0.146l-0.004,0.203l-0.148,0.141l-0.203-0.002l-0.143-0.146L49.836,13.158z M49.836,12.451l0.146-0.143l0.205,0.004
			l0.143,0.145l-0.004,0.205l-0.148,0.143l-0.203-0.004l-0.143-0.146L49.836,12.451z M49.836,11.74l0.146-0.141l0.205,0.002
			l0.143,0.146l-0.004,0.205l-0.148,0.143l-0.203-0.004l-0.143-0.146L49.836,11.74z M49.836,11.031l0.146-0.141l0.205,0.004
			l0.143,0.146l-0.004,0.203l-0.148,0.143l-0.203-0.004l-0.143-0.146L49.836,11.031z M49.836,10.324l0.146-0.143l0.205,0.004
			l0.143,0.146l-0.004,0.205l-0.148,0.143l-0.203-0.006l-0.143-0.146L49.836,10.324z M49.836,9.617l0.146-0.145l0.205,0.004
			l0.143,0.148l-0.004,0.203l-0.148,0.141l-0.203-0.002l-0.143-0.148L49.836,9.617z M49.836,8.908l0.146-0.143l0.205,0.002
			l0.143,0.148l-0.004,0.203l-0.148,0.143l-0.203-0.004l-0.143-0.146L49.836,8.908z M49.836,8.197l0.146-0.143l0.205,0.004
			l0.143,0.146L50.326,8.41l-0.148,0.141l-0.203-0.002l-0.143-0.146L49.836,8.197z M49.836,7.488l0.146-0.141l0.205,0.002
			l0.143,0.148l-0.004,0.203l-0.148,0.143L49.975,7.84l-0.143-0.146L49.836,7.488z M49.836,6.781l0.146-0.143l0.205,0.004
			l0.143,0.146l-0.004,0.205l-0.148,0.141l-0.203-0.004l-0.143-0.146L49.836,6.781z M49.836,6.072l0.146-0.143l0.205,0.004
			L50.33,6.08l-0.004,0.205l-0.148,0.141l-0.203-0.004l-0.143-0.146L49.836,6.072z M49.836,5.363l0.146-0.141l0.205,0.002
			l0.143,0.146l-0.004,0.205l-0.148,0.143l-0.203-0.006l-0.143-0.145L49.836,5.363z M49.836,4.654l0.146-0.141l0.205,0.002
			l0.143,0.146l-0.004,0.205L50.178,5.01l-0.203-0.004l-0.143-0.146L49.836,4.654z M49.836,3.945l0.146-0.141l0.205,0.002
			l0.143,0.148l-0.004,0.203l-0.148,0.143l-0.203-0.004l-0.143-0.148L49.836,3.945z M49.836,3.236l0.146-0.143l0.205,0.004
			l0.143,0.146l-0.004,0.205l-0.148,0.143l-0.203-0.004l-0.143-0.146L49.836,3.236z M49.836,2.527l0.146-0.141l0.205,0.004
			l0.143,0.145L50.326,2.74l-0.148,0.143l-0.203-0.004l-0.143-0.146L49.836,2.527z M50.277,2.078l-0.1,0.096L49.975,2.17
			l-0.078-0.082C50.021,2.084,50.148,2.082,50.277,2.078 M51.039,13.875l-0.004,0.17h-0.492l0.002-0.178l0.146-0.143l0.205,0.004
			L51.039,13.875z M50.545,13.158l0.146-0.141l0.205,0.004l0.143,0.146l-0.006,0.203l-0.145,0.141l-0.205-0.002l-0.143-0.146
			L50.545,13.158z M50.545,12.451l0.146-0.143l0.205,0.004l0.143,0.145l-0.006,0.205l-0.145,0.143l-0.205-0.004l-0.143-0.146
			L50.545,12.451z M50.545,11.74l0.146-0.141l0.205,0.002l0.143,0.146l-0.006,0.205l-0.145,0.143l-0.205-0.004l-0.143-0.146
			L50.545,11.74z M50.545,11.031l0.146-0.141l0.205,0.004l0.143,0.146l-0.006,0.203l-0.145,0.143l-0.205-0.004l-0.143-0.146
			L50.545,11.031z M50.545,10.324l0.146-0.143l0.205,0.004l0.143,0.146l-0.006,0.205l-0.145,0.143l-0.205-0.006l-0.143-0.146
			L50.545,10.324z M50.545,9.617l0.146-0.145l0.205,0.004l0.143,0.148l-0.006,0.203l-0.145,0.141l-0.205-0.002l-0.143-0.148
			L50.545,9.617z M50.545,8.908l0.146-0.143l0.205,0.002l0.143,0.148l-0.006,0.203l-0.145,0.143l-0.205-0.004l-0.143-0.146
			L50.545,8.908z M50.545,8.197l0.146-0.143l0.205,0.004l0.143,0.146L51.033,8.41l-0.145,0.141l-0.205-0.002l-0.143-0.146
			L50.545,8.197z M50.545,7.488l0.146-0.141l0.205,0.002l0.143,0.148l-0.006,0.203l-0.145,0.143L50.684,7.84l-0.143-0.146
			L50.545,7.488z M50.545,6.781l0.146-0.143l0.205,0.004l0.143,0.146l-0.006,0.205l-0.145,0.141l-0.205-0.004l-0.143-0.146
			L50.545,6.781z M50.545,6.072l0.146-0.143l0.205,0.004l0.143,0.146l-0.006,0.205l-0.145,0.141l-0.205-0.004l-0.143-0.146
			L50.545,6.072z M50.545,5.363l0.146-0.141l0.205,0.002l0.143,0.146l-0.006,0.205l-0.145,0.143l-0.205-0.006l-0.143-0.145
			L50.545,5.363z M50.545,4.654l0.146-0.141l0.205,0.002l0.143,0.146l-0.006,0.205L50.889,5.01l-0.205-0.004l-0.143-0.146
			L50.545,4.654z M50.545,3.945l0.146-0.141l0.205,0.002l0.143,0.148l-0.006,0.203l-0.145,0.143l-0.205-0.004l-0.143-0.148
			L50.545,3.945z M50.545,3.236l0.146-0.143l0.205,0.004l0.143,0.146l-0.006,0.205l-0.145,0.143l-0.205-0.004l-0.143-0.146
			L50.545,3.236z M50.545,2.527l0.146-0.141l0.205,0.004l0.143,0.145L51.033,2.74l-0.145,0.143l-0.205-0.004l-0.143-0.146
			L50.545,2.527z M51.006,2.059l-0.117,0.115L50.684,2.17l-0.098-0.1C50.727,2.066,50.865,2.063,51.006,2.059 M51.746,13.875
			l-0.002,0.17h-0.492l0.002-0.178l0.146-0.143l0.203,0.004L51.746,13.875z M51.254,13.158l0.146-0.141l0.203,0.004l0.143,0.146
			l-0.002,0.203l-0.148,0.141l-0.203-0.002l-0.141-0.146L51.254,13.158z M51.254,12.451l0.146-0.143l0.203,0.004l0.143,0.145
			l-0.002,0.205l-0.148,0.143l-0.203-0.004l-0.141-0.146L51.254,12.451z M51.254,11.74L51.4,11.6l0.203,0.002l0.143,0.146
			l-0.002,0.205l-0.148,0.143l-0.203-0.004l-0.141-0.146L51.254,11.74z M51.254,11.031l0.146-0.141l0.203,0.004l0.143,0.146
			l-0.002,0.203l-0.148,0.143l-0.203-0.004l-0.141-0.146L51.254,11.031z M51.254,10.324l0.146-0.143l0.203,0.004l0.143,0.146
			l-0.002,0.205l-0.148,0.143l-0.203-0.006l-0.141-0.146L51.254,10.324z M51.254,9.617L51.4,9.473l0.203,0.004l0.143,0.148
			l-0.002,0.203l-0.148,0.141l-0.203-0.002l-0.141-0.148L51.254,9.617z M51.254,8.908L51.4,8.766l0.203,0.002l0.143,0.148
			l-0.002,0.203l-0.148,0.143l-0.203-0.004l-0.141-0.146L51.254,8.908z M51.254,8.197L51.4,8.055l0.203,0.004l0.143,0.146
			L51.744,8.41l-0.148,0.141l-0.203-0.002l-0.141-0.146L51.254,8.197z M51.254,7.488L51.4,7.348l0.203,0.002l0.143,0.148
			l-0.002,0.203l-0.148,0.143L51.393,7.84l-0.141-0.146L51.254,7.488z M51.254,6.781L51.4,6.639l0.203,0.004l0.143,0.146
			l-0.002,0.205l-0.148,0.141l-0.203-0.004l-0.141-0.146L51.254,6.781z M51.254,6.072L51.4,5.93l0.203,0.004l0.143,0.146
			l-0.002,0.205l-0.148,0.141l-0.203-0.004l-0.141-0.146L51.254,6.072z M51.254,5.363L51.4,5.223l0.203,0.002l0.143,0.146
			l-0.002,0.205l-0.148,0.143l-0.203-0.006l-0.141-0.145L51.254,5.363z M51.254,4.654L51.4,4.514l0.203,0.002l0.143,0.146
			l-0.002,0.205L51.596,5.01l-0.203-0.004l-0.141-0.146L51.254,4.654z M51.254,3.945L51.4,3.805l0.203,0.002l0.143,0.148
			l-0.002,0.203l-0.148,0.143l-0.203-0.004l-0.141-0.148L51.254,3.945z M51.254,3.236L51.4,3.094l0.203,0.004l0.143,0.146
			l-0.002,0.205l-0.148,0.143l-0.203-0.004l-0.141-0.146L51.254,3.236z M51.254,2.527L51.4,2.387l0.203,0.004l0.143,0.145
			L51.744,2.74l-0.148,0.143l-0.203-0.004l-0.141-0.146L51.254,2.527z M51.736,2.037l-0.141,0.137L51.393,2.17l-0.115-0.119
			C51.432,2.047,51.582,2.041,51.736,2.037 M52.453,13.875l-0.002,0.17h-0.49l0.002-0.178l0.146-0.143l0.203,0.004L52.453,13.875z
			 M51.963,13.158l0.146-0.141l0.203,0.004l0.141,0.146l-0.002,0.203l-0.145,0.141l-0.205-0.002l-0.143-0.146L51.963,13.158z
			 M51.963,12.451l0.146-0.143l0.203,0.004l0.141,0.145l-0.002,0.205l-0.145,0.143l-0.205-0.004l-0.143-0.146L51.963,12.451z
			 M51.963,11.74l0.146-0.141l0.203,0.002l0.141,0.146l-0.002,0.205l-0.145,0.143l-0.205-0.004l-0.143-0.146L51.963,11.74z
			 M51.963,11.031l0.146-0.141l0.203,0.004l0.141,0.146l-0.002,0.203l-0.145,0.143l-0.205-0.004l-0.143-0.146L51.963,11.031z
			 M51.963,10.324l0.146-0.143l0.203,0.004l0.141,0.146l-0.002,0.205l-0.145,0.143l-0.205-0.006l-0.143-0.146L51.963,10.324z
			 M51.963,9.617l0.146-0.145l0.203,0.004l0.141,0.148l-0.002,0.203l-0.145,0.141l-0.205-0.002l-0.143-0.148L51.963,9.617z
			 M51.963,8.908l0.146-0.143l0.203,0.002l0.141,0.148l-0.002,0.203l-0.145,0.143l-0.205-0.004l-0.143-0.146L51.963,8.908z
			 M51.963,8.197l0.146-0.143l0.203,0.004l0.141,0.146L52.451,8.41l-0.145,0.141l-0.205-0.002l-0.143-0.146L51.963,8.197z
			 M51.963,7.488l0.146-0.141l0.203,0.002l0.141,0.148l-0.002,0.203l-0.145,0.143L52.102,7.84l-0.143-0.146L51.963,7.488z
			 M51.963,6.781l0.146-0.143l0.203,0.004l0.141,0.146l-0.002,0.205l-0.145,0.141l-0.205-0.004l-0.143-0.146L51.963,6.781z
			 M51.963,6.072l0.146-0.143l0.203,0.004l0.141,0.146l-0.002,0.205l-0.145,0.141l-0.205-0.004l-0.143-0.146L51.963,6.072z
			 M51.963,5.363l0.146-0.141l0.203,0.002l0.141,0.146l-0.002,0.205l-0.145,0.143l-0.205-0.006l-0.143-0.145L51.963,5.363z
			 M51.963,4.654l0.146-0.141l0.203,0.002l0.141,0.146l-0.002,0.205L52.307,5.01l-0.205-0.004l-0.143-0.146L51.963,4.654z
			 M51.963,3.945l0.146-0.141l0.203,0.002l0.141,0.148l-0.002,0.203l-0.145,0.143l-0.205-0.004l-0.143-0.148L51.963,3.945z
			 M51.963,3.236l0.146-0.143l0.203,0.004l0.141,0.146l-0.002,0.205l-0.145,0.143l-0.205-0.004l-0.143-0.146L51.963,3.236z
			 M51.963,2.527l0.146-0.141l0.203,0.004l0.141,0.145L52.451,2.74l-0.145,0.143l-0.205-0.004l-0.143-0.146L51.963,2.527z
			 M52.451,2.016v0.018l-0.145,0.141L52.102,2.17l-0.135-0.139C52.129,2.027,52.291,2.021,52.451,2.016 M53.164,13.875l-0.004,0.17
			h-0.492l0.004-0.178l0.146-0.143l0.205,0.004L53.164,13.875z M52.672,13.158l0.146-0.141l0.205,0.004l0.141,0.146l-0.004,0.203
			l-0.146,0.141l-0.203-0.002l-0.143-0.146L52.672,13.158z M52.672,12.451l0.146-0.143l0.205,0.004l0.141,0.145l-0.004,0.205
			l-0.146,0.143l-0.203-0.004l-0.143-0.146L52.672,12.451z M52.672,11.74l0.146-0.141l0.205,0.002l0.141,0.146l-0.004,0.205
			l-0.146,0.143l-0.203-0.004l-0.143-0.146L52.672,11.74z M52.672,11.031l0.146-0.141l0.205,0.004l0.141,0.146l-0.004,0.203
			l-0.146,0.143l-0.203-0.004l-0.143-0.146L52.672,11.031z M52.672,10.324l0.146-0.143l0.205,0.004l0.141,0.146l-0.004,0.205
			l-0.146,0.143l-0.203-0.006l-0.143-0.146L52.672,10.324z M52.672,9.617l0.146-0.145l0.205,0.004l0.141,0.148L53.16,9.828
			l-0.146,0.141l-0.203-0.002l-0.143-0.148L52.672,9.617z M52.672,8.908l0.146-0.143l0.205,0.002l0.141,0.148L53.16,9.119
			l-0.146,0.143l-0.203-0.004l-0.143-0.146L52.672,8.908z M52.672,8.197l0.146-0.143l0.205,0.004l0.141,0.146L53.16,8.41
			l-0.146,0.141l-0.203-0.002l-0.143-0.146L52.672,8.197z M52.672,7.488l0.146-0.141l0.205,0.002l0.141,0.148L53.16,7.701
			l-0.146,0.143L52.811,7.84l-0.143-0.146L52.672,7.488z M52.672,6.781l0.146-0.143l0.205,0.004l0.141,0.146L53.16,6.994
			l-0.146,0.141l-0.203-0.004l-0.143-0.146L52.672,6.781z M52.672,6.072l0.146-0.143l0.205,0.004l0.141,0.146L53.16,6.285
			l-0.146,0.141l-0.203-0.004l-0.143-0.146L52.672,6.072z M52.672,5.363l0.146-0.141l0.205,0.002l0.141,0.146L53.16,5.576
			l-0.146,0.143l-0.203-0.006l-0.143-0.145L52.672,5.363z M52.672,4.654l0.146-0.141l0.205,0.002l0.141,0.146L53.16,4.867
			L53.014,5.01l-0.203-0.004l-0.143-0.146L52.672,4.654z M52.672,3.945l0.146-0.141l0.205,0.002l0.141,0.148L53.16,4.158
			l-0.146,0.143l-0.203-0.004l-0.143-0.148L52.672,3.945z M52.672,3.236l0.146-0.143l0.205,0.004l0.141,0.146L53.16,3.449
			l-0.146,0.143l-0.203-0.004l-0.143-0.146L52.672,3.236z M52.672,2.527l0.146-0.141l0.205,0.004l0.141,0.145L53.16,2.74
			l-0.146,0.143l-0.203-0.004l-0.143-0.146L52.672,2.527z M52.668,2.01c0.166-0.006,0.33-0.01,0.492-0.016v0.039l-0.146,0.141
			L52.811,2.17l-0.143-0.145V2.01z M53.873,13.875l-0.004,0.17h-0.494l0.006-0.178l0.146-0.143l0.203,0.004L53.873,13.875z
			 M53.381,13.158l0.146-0.141l0.203,0.004l0.143,0.146l-0.004,0.203l-0.146,0.141l-0.205-0.002l-0.143-0.146L53.381,13.158z
			 M53.381,12.451l0.146-0.143l0.203,0.004l0.143,0.145l-0.004,0.205l-0.146,0.143l-0.205-0.004l-0.143-0.146L53.381,12.451z
			 M53.381,11.74l0.146-0.141l0.203,0.002l0.143,0.146l-0.004,0.205l-0.146,0.143l-0.205-0.004l-0.143-0.146L53.381,11.74z
			 M53.381,11.031l0.146-0.141l0.203,0.004l0.143,0.146l-0.004,0.203l-0.146,0.143l-0.205-0.004l-0.143-0.146L53.381,11.031z
			 M53.381,10.324l0.146-0.143l0.203,0.004l0.143,0.146l-0.004,0.205l-0.146,0.143l-0.205-0.006l-0.143-0.146L53.381,10.324z
			 M53.381,9.617l0.146-0.145l0.203,0.004l0.143,0.148l-0.004,0.203l-0.146,0.141l-0.205-0.002l-0.143-0.148L53.381,9.617z
			 M53.381,8.908l0.146-0.143l0.203,0.002l0.143,0.148l-0.004,0.203l-0.146,0.143l-0.205-0.004l-0.143-0.146L53.381,8.908z
			 M53.381,8.197l0.146-0.143l0.203,0.004l0.143,0.146L53.869,8.41l-0.146,0.141l-0.205-0.002l-0.143-0.146L53.381,8.197z
			 M53.381,7.488l0.146-0.141L53.73,7.35l0.143,0.148l-0.004,0.203l-0.146,0.143L53.518,7.84l-0.143-0.146L53.381,7.488z
			 M53.381,6.781l0.146-0.143l0.203,0.004l0.143,0.146l-0.004,0.205l-0.146,0.141l-0.205-0.004l-0.143-0.146L53.381,6.781z
			 M53.381,6.072l0.146-0.143l0.203,0.004l0.143,0.146l-0.004,0.205l-0.146,0.141l-0.205-0.004l-0.143-0.146L53.381,6.072z
			 M53.381,5.363l0.146-0.141l0.203,0.002l0.143,0.146l-0.004,0.205l-0.146,0.143l-0.205-0.006l-0.143-0.145L53.381,5.363z
			 M53.381,4.654l0.146-0.141l0.203,0.002l0.143,0.146l-0.004,0.205L53.723,5.01l-0.205-0.004l-0.143-0.146L53.381,4.654z
			 M53.381,3.945l0.146-0.141l0.203,0.002l0.143,0.148l-0.004,0.203l-0.146,0.143l-0.205-0.004l-0.143-0.148L53.381,3.945z
			 M53.381,3.236l0.146-0.143l0.203,0.004l0.143,0.146l-0.004,0.205l-0.146,0.143l-0.205-0.004l-0.143-0.146L53.381,3.236z
			 M53.381,2.527l0.146-0.141l0.203,0.004l0.143,0.145L53.869,2.74l-0.146,0.143l-0.205-0.004l-0.143-0.146L53.381,2.527z
			 M53.377,1.986c0.168-0.004,0.332-0.008,0.494-0.014l-0.002,0.061l-0.146,0.141L53.518,2.17l-0.143-0.145L53.377,1.986z
			 M54.58,13.875l-0.002,0.17h-0.492l0.002-0.178l0.148-0.143l0.203,0.004L54.58,13.875z M54.088,13.158l0.148-0.141l0.203,0.004
			l0.141,0.146l-0.004,0.203l-0.145,0.141l-0.205-0.002l-0.143-0.146L54.088,13.158z M54.088,12.451l0.148-0.143l0.203,0.004
			l0.141,0.145l-0.004,0.205l-0.145,0.143l-0.205-0.004l-0.143-0.146L54.088,12.451z M54.088,11.74l0.148-0.141l0.203,0.002
			l0.141,0.146l-0.004,0.205l-0.145,0.143l-0.205-0.004l-0.143-0.146L54.088,11.74z M54.088,11.031l0.148-0.141l0.203,0.004
			l0.141,0.146l-0.004,0.203l-0.145,0.143l-0.205-0.004l-0.143-0.146L54.088,11.031z M54.088,10.324l0.148-0.143l0.203,0.004
			l0.141,0.146l-0.004,0.205l-0.145,0.143l-0.205-0.006l-0.143-0.146L54.088,10.324z M54.088,9.617l0.148-0.145l0.203,0.004
			l0.141,0.148l-0.004,0.203l-0.145,0.141l-0.205-0.002l-0.143-0.148L54.088,9.617z M54.088,8.908l0.148-0.143l0.203,0.002
			l0.141,0.148l-0.004,0.203l-0.145,0.143l-0.205-0.004l-0.143-0.146L54.088,8.908z M54.088,8.197l0.148-0.143l0.203,0.004
			l0.141,0.146L54.576,8.41l-0.145,0.141l-0.205-0.002l-0.143-0.146L54.088,8.197z M54.088,7.488l0.148-0.141l0.203,0.002
			l0.141,0.148l-0.004,0.203l-0.145,0.143L54.227,7.84l-0.143-0.146L54.088,7.488z M54.088,6.781l0.148-0.143l0.203,0.004
			l0.141,0.146l-0.004,0.205l-0.145,0.141l-0.205-0.004l-0.143-0.146L54.088,6.781z M54.088,6.072l0.148-0.143l0.203,0.004
			L54.58,6.08l-0.004,0.205l-0.145,0.141l-0.205-0.004l-0.143-0.146L54.088,6.072z M54.088,5.363l0.148-0.141l0.203,0.002
			l0.141,0.146l-0.004,0.205l-0.145,0.143l-0.205-0.006l-0.143-0.145L54.088,5.363z M54.088,4.654l0.148-0.141l0.203,0.002
			l0.141,0.146l-0.004,0.205L54.432,5.01l-0.205-0.004l-0.143-0.146L54.088,4.654z M54.088,3.945l0.148-0.141l0.203,0.002
			l0.141,0.148l-0.004,0.203l-0.145,0.143l-0.205-0.004l-0.143-0.148L54.088,3.945z M54.088,3.236l0.148-0.143l0.203,0.004
			l0.141,0.146l-0.004,0.205l-0.145,0.143l-0.205-0.004l-0.143-0.146L54.088,3.236z M54.088,2.527l0.148-0.141l0.203,0.004
			l0.141,0.145L54.576,2.74l-0.145,0.143l-0.205-0.004l-0.143-0.146L54.088,2.527z M54.086,1.965
			c0.168-0.006,0.332-0.01,0.492-0.016l-0.002,0.084l-0.145,0.141L54.227,2.17l-0.143-0.145L54.086,1.965z M55.289,13.875
			l-0.002,0.17h-0.492l0.002-0.178l0.146-0.143l0.205,0.004L55.289,13.875z M54.797,13.158l0.146-0.141l0.205,0.004l0.141,0.146
			l-0.004,0.203l-0.145,0.141l-0.205-0.002l-0.141-0.146L54.797,13.158z M54.797,12.451l0.146-0.143l0.205,0.004l0.141,0.145
			l-0.004,0.205l-0.145,0.143l-0.205-0.004l-0.141-0.146L54.797,12.451z M54.797,11.74l0.146-0.141l0.205,0.002l0.141,0.146
			l-0.004,0.205l-0.145,0.143l-0.205-0.004l-0.141-0.146L54.797,11.74z M54.797,11.031l0.146-0.141l0.205,0.004l0.141,0.146
			l-0.004,0.203l-0.145,0.143l-0.205-0.004l-0.141-0.146L54.797,11.031z M54.797,10.324l0.146-0.143l0.205,0.004l0.141,0.146
			l-0.004,0.205l-0.145,0.143l-0.205-0.006l-0.141-0.146L54.797,10.324z M54.797,9.617l0.146-0.145l0.205,0.004l0.141,0.148
			l-0.004,0.203l-0.145,0.141l-0.205-0.002l-0.141-0.148L54.797,9.617z M54.797,8.908l0.146-0.143l0.205,0.002l0.141,0.148
			l-0.004,0.203l-0.145,0.143l-0.205-0.004l-0.141-0.146L54.797,8.908z M54.797,8.197l0.146-0.143l0.205,0.004l0.141,0.146
			L55.285,8.41l-0.145,0.141l-0.205-0.002l-0.141-0.146L54.797,8.197z M54.797,7.488l0.146-0.141l0.205,0.002l0.141,0.148
			l-0.004,0.203l-0.145,0.143L54.936,7.84l-0.141-0.146L54.797,7.488z M54.797,6.781l0.146-0.143l0.205,0.004l0.141,0.146
			l-0.004,0.205l-0.145,0.141l-0.205-0.004l-0.141-0.146L54.797,6.781z M54.797,6.072l0.146-0.143l0.205,0.004l0.141,0.146
			l-0.004,0.205l-0.145,0.141l-0.205-0.004l-0.141-0.146L54.797,6.072z M54.797,5.363l0.146-0.141l0.205,0.002l0.141,0.146
			l-0.004,0.205l-0.145,0.143l-0.205-0.006l-0.141-0.145L54.797,5.363z M54.797,4.654l0.146-0.141l0.205,0.002l0.141,0.146
			l-0.004,0.205L55.141,5.01l-0.205-0.004l-0.141-0.146L54.797,4.654z M54.797,3.945l0.146-0.141l0.205,0.002l0.141,0.148
			l-0.004,0.203l-0.145,0.143l-0.205-0.004l-0.141-0.148L54.797,3.945z M54.797,3.236l0.146-0.143l0.205,0.004l0.141,0.146
			l-0.004,0.205l-0.145,0.143l-0.205-0.004l-0.141-0.146L54.797,3.236z M54.797,2.527l0.146-0.141l0.205,0.004l0.141,0.145
			L55.285,2.74l-0.145,0.143l-0.205-0.004l-0.141-0.146L54.797,2.527z M54.795,1.941c0.17-0.004,0.336-0.01,0.492-0.016
			l-0.002,0.107l-0.145,0.141L54.936,2.17l-0.141-0.145V1.941z M55.998,13.875l-0.002,0.17h-0.494l0.004-0.178l0.146-0.143
			l0.205,0.004L55.998,13.875z M55.506,13.158l0.146-0.141l0.205,0.004l0.141,0.146l-0.002,0.203l-0.146,0.141l-0.205-0.002
			l-0.143-0.146L55.506,13.158z M55.506,12.451l0.146-0.143l0.205,0.004l0.141,0.145l-0.002,0.205l-0.146,0.143l-0.205-0.004
			l-0.143-0.146L55.506,12.451z M55.506,11.74l0.146-0.141l0.205,0.002l0.141,0.146l-0.002,0.205l-0.146,0.143l-0.205-0.004
			l-0.143-0.146L55.506,11.74z M55.506,11.031l0.146-0.141l0.205,0.004l0.141,0.146l-0.002,0.203l-0.146,0.143l-0.205-0.004
			l-0.143-0.146L55.506,11.031z M55.506,10.324l0.146-0.143l0.205,0.004l0.141,0.146l-0.002,0.205L55.85,10.68l-0.205-0.006
			l-0.143-0.146L55.506,10.324z M55.506,9.617l0.146-0.145l0.205,0.004l0.141,0.148l-0.002,0.203L55.85,9.969l-0.205-0.002
			l-0.143-0.148L55.506,9.617z M55.506,8.908l0.146-0.143l0.205,0.002l0.141,0.148l-0.002,0.203L55.85,9.262l-0.205-0.004
			l-0.143-0.146L55.506,8.908z M55.506,8.197l0.146-0.143l0.205,0.004l0.141,0.146L55.996,8.41L55.85,8.551l-0.205-0.002
			l-0.143-0.146L55.506,8.197z M55.506,7.488l0.146-0.141l0.205,0.002l0.141,0.148l-0.002,0.203L55.85,7.844L55.645,7.84
			l-0.143-0.146L55.506,7.488z M55.506,6.781l0.146-0.143l0.205,0.004l0.141,0.146l-0.002,0.205L55.85,7.135l-0.205-0.004
			l-0.143-0.146L55.506,6.781z M55.506,6.072l0.146-0.143l0.205,0.004l0.141,0.146l-0.002,0.205L55.85,6.426l-0.205-0.004
			l-0.143-0.146L55.506,6.072z M55.506,5.363l0.146-0.141l0.205,0.002l0.141,0.146l-0.002,0.205L55.85,5.719l-0.205-0.006
			l-0.143-0.145L55.506,5.363z M55.506,4.654l0.146-0.141l0.205,0.002l0.141,0.146l-0.002,0.205L55.85,5.01l-0.205-0.004
			l-0.143-0.146L55.506,4.654z M55.506,3.945l0.146-0.141l0.205,0.002l0.141,0.148l-0.002,0.203L55.85,4.301l-0.205-0.004
			l-0.143-0.148L55.506,3.945z M55.506,3.236l0.146-0.143l0.205,0.004l0.141,0.146l-0.002,0.205L55.85,3.592l-0.205-0.004
			l-0.143-0.146L55.506,3.236z M55.506,2.527l0.146-0.141l0.205,0.004l0.141,0.145L55.996,2.74L55.85,2.883l-0.205-0.004
			l-0.143-0.146L55.506,2.527z M55.504,1.918c0.174-0.006,0.34-0.012,0.494-0.018l-0.002,0.133L55.85,2.174L55.645,2.17
			l-0.143-0.145L55.504,1.918z M56.707,13.875l-0.002,0.17h-0.494l0.004-0.178l0.146-0.143l0.205,0.004L56.707,13.875z
			 M56.215,13.158l0.146-0.141l0.205,0.004l0.141,0.146l-0.004,0.203l-0.146,0.141l-0.205-0.002l-0.141-0.146L56.215,13.158z
			 M56.215,12.451l0.146-0.143l0.205,0.004l0.141,0.145l-0.004,0.205l-0.146,0.143l-0.205-0.004l-0.141-0.146L56.215,12.451z
			 M56.215,11.74l0.146-0.141l0.205,0.002l0.141,0.146l-0.004,0.205l-0.146,0.143l-0.205-0.004l-0.141-0.146L56.215,11.74z
			 M56.215,11.031l0.146-0.141l0.205,0.004l0.141,0.146l-0.004,0.203l-0.146,0.143l-0.205-0.004l-0.141-0.146L56.215,11.031z
			 M56.215,10.324l0.146-0.143l0.205,0.004l0.141,0.146l-0.004,0.205l-0.146,0.143l-0.205-0.006l-0.141-0.146L56.215,10.324z
			 M56.215,9.617l0.146-0.145l0.205,0.004l0.141,0.148l-0.004,0.203l-0.146,0.141l-0.205-0.002l-0.141-0.148L56.215,9.617z
			 M56.215,8.908l0.146-0.143l0.205,0.002l0.141,0.148l-0.004,0.203l-0.146,0.143l-0.205-0.004l-0.141-0.146L56.215,8.908z
			 M56.215,8.197l0.146-0.143l0.205,0.004l0.141,0.146L56.703,8.41l-0.146,0.141l-0.205-0.002l-0.141-0.146L56.215,8.197z
			 M56.215,7.488l0.146-0.141l0.205,0.002l0.141,0.148l-0.004,0.203l-0.146,0.143L56.352,7.84l-0.141-0.146L56.215,7.488z
			 M56.215,6.781l0.146-0.143l0.205,0.004l0.141,0.146l-0.004,0.205l-0.146,0.141l-0.205-0.004l-0.141-0.146L56.215,6.781z
			 M56.215,6.072l0.146-0.143l0.205,0.004l0.141,0.146l-0.004,0.205l-0.146,0.141l-0.205-0.004l-0.141-0.146L56.215,6.072z
			 M56.215,5.363l0.146-0.141l0.205,0.002l0.141,0.146l-0.004,0.205l-0.146,0.143l-0.205-0.006l-0.141-0.145L56.215,5.363z
			 M56.215,4.654l0.146-0.141l0.205,0.002l0.141,0.146l-0.004,0.205L56.557,5.01l-0.205-0.004l-0.141-0.146L56.215,4.654z
			 M56.215,3.945l0.146-0.141l0.205,0.002l0.141,0.148l-0.004,0.203l-0.146,0.143l-0.205-0.004l-0.141-0.148L56.215,3.945z
			 M56.215,3.236l0.146-0.143l0.205,0.004l0.141,0.146l-0.004,0.205l-0.146,0.143l-0.205-0.004l-0.141-0.146L56.215,3.236z
			 M56.215,2.527l0.146-0.141l0.205,0.004l0.141,0.145L56.703,2.74l-0.146,0.143l-0.205-0.004l-0.141-0.146L56.215,2.527z
			 M56.213,1.893c0.184-0.006,0.352-0.01,0.494-0.016l-0.004,0.156l-0.146,0.141L56.352,2.17l-0.141-0.145L56.213,1.893z
			 M34.516,17.225c-0.268-0.686-0.607-1.613-0.914-2.586c-0.232-0.729-0.447-1.484-0.602-2.178s-0.248-1.33-0.246-1.793
			c-0.008-0.346,0.064-0.58,0.102-0.641c0,0,0.002-0.002,0.002-0.004c0.031-0.031,0.232-0.127,0.488-0.189
			c0.346-0.09,0.791-0.152,1.17-0.188V17.225z M61.609,9.326c-0.133-0.184-0.291-0.293-0.451-0.381
			c-0.277-0.15-0.582-0.238-0.9-0.311c-0.361-0.078-0.742-0.129-1.078-0.164V0c0,0-9.248,0.336-12.334,0.336
			C43.762,0.336,34.516,0,34.516,0v8.455c-0.18,0.014-0.377,0.037-0.58,0.063c-0.359,0.049-0.738,0.115-1.086,0.223
			c-0.174,0.055-0.34,0.119-0.498,0.205c-0.16,0.088-0.318,0.197-0.453,0.381c-0.275,0.402-0.326,0.852-0.332,1.342
			c0.002,0.609,0.111,1.307,0.277,2.051c0.496,2.225,1.508,4.848,1.912,5.791c0.201,0.465,0.465,0.996,0.76,1.555v28.124h1.904V23.4
			c0.219,0.359,0.41,0.674,0.563,0.92v23.868h1.793V25.293h16.031v22.895h1.795V25.293l0,0v-1.094
			c0.184-0.297,0.414-0.678,0.672-1.107v25.096h1.906V19.709c0.219-0.428,0.416-0.836,0.572-1.199
			c0.271-0.629,0.807-2.004,1.287-3.51c0.24-0.752,0.463-1.539,0.627-2.281c0.166-0.744,0.273-1.441,0.275-2.051
			C61.936,10.176,61.885,9.729,61.609,9.326"/>
		<path style="fill:url(#frame); <?php echo $stroke;?>" d="M24.367,18.381c0,0.766,0.123,3.281,0.16,4.094L8.818,22.264l0.824-10.18
			c0.055-0.617,0.16-1.035,0.279-1.287c0.092-0.189,0.182-0.289,0.283-0.367c0.15-0.111,0.387-0.188,0.771-0.227
			c0.379-0.039,0.877-0.039,1.471-0.068l12.855-0.381V9.752C24.672,12.594,24.365,15.328,24.367,18.381 M8.818,22.264L8.818,22.264
			l15.709,0.211c0.027,0.492-0.037-0.514,0,0L8.818,22.264z M1.314,22.164v-1.412l6.453,0.061L7.652,22.25L1.314,22.164z
			 M29.658,47.981c-2.664-14.699-4.129-22.986-4.127-29.6c0.002-6.082,1.221-10.789,3.936-17.969L28.377,0
			c-1.215,3.207-2.143,5.961-2.799,8.58l-13.18,0.391h-0.006c-0.5,0.025-0.953,0.027-1.377,0.061
			c-0.32,0.025-0.627,0.068-0.926,0.168c-0.449,0.145-0.877,0.465-1.137,0.939c-0.264,0.473-0.398,1.061-0.471,1.846L7.652,22.25
			l-6.559-0.088l0,0l-0.547-0.008L0,47.528l1.164,0.025L1.65,25.038l23.158,0.438c0.623,5.629,1.889,12.686,3.703,22.713
			L29.658,47.981z"/>
		<g>
			<defs>
				<polygon id="SVGID_1_" points="36.424,14.063 57.33,14.063 57.33,1.816 46.877,2.422 36.424,1.816 				"/>
			</defs>
			<clipPath id="SVGID_2_">
				<use xlink:href="#SVGID_1_"  overflow="visible"/>
			</clipPath>
			<rect x="34.088" y="0.076" clip-path="url(#SVGID_2_)" style="fill:url(#frame); <?php echo $stroke;?>" width="23.818" height="14.511"/>
			<g clip-path="url(#SVGID_2_)">
				<g>
					<ellipse fill="#FFFFFF" cx="36.767" cy="1.979" rx="0.343" ry="0.332"/>
					<ellipse fill="#FFFFFF" cx="37.729" cy="1.979" rx="0.343" ry="0.332"/>
					<ellipse fill="#FFFFFF" cx="38.692" cy="1.979" rx="0.343" ry="0.332"/>
					<ellipse fill="#FFFFFF" cx="39.655" cy="1.979" rx="0.343" ry="0.332"/>
					<ellipse fill="#FFFFFF" cx="40.618" cy="1.979" rx="0.343" ry="0.332"/>
					<ellipse fill="#FFFFFF" cx="41.581" cy="1.979" rx="0.343" ry="0.332"/>
					<ellipse fill="#FFFFFF" cx="42.544" cy="1.979" rx="0.343" ry="0.332"/>
					<ellipse fill="#FFFFFF" cx="43.507" cy="1.979" rx="0.343" ry="0.332"/>
					<ellipse fill="#FFFFFF" cx="44.47" cy="1.979" rx="0.343" ry="0.332"/>
					<ellipse fill="#FFFFFF" cx="45.433" cy="1.979" rx="0.343" ry="0.332"/>
					<ellipse fill="#FFFFFF" cx="46.396" cy="1.979" rx="0.343" ry="0.332"/>
					<ellipse fill="#FFFFFF" cx="47.358" cy="1.979" rx="0.343" ry="0.332"/>
					<ellipse fill="#FFFFFF" cx="48.321" cy="1.979" rx="0.343" ry="0.332"/>
					<ellipse fill="#FFFFFF" cx="49.284" cy="1.979" rx="0.343" ry="0.332"/>
					<ellipse fill="#FFFFFF" cx="50.247" cy="1.979" rx="0.343" ry="0.332"/>
					<ellipse fill="#FFFFFF" cx="51.21" cy="1.979" rx="0.343" ry="0.332"/>
					<ellipse fill="#FFFFFF" cx="52.173" cy="1.979" rx="0.343" ry="0.332"/>
					<ellipse fill="#FFFFFF" cx="53.137" cy="1.979" rx="0.344" ry="0.332"/>
					<ellipse fill="#FFFFFF" cx="54.099" cy="1.979" rx="0.343" ry="0.332"/>
					<ellipse fill="#FFFFFF" cx="55.062" cy="1.979" rx="0.343" ry="0.332"/>
					<ellipse fill="#FFFFFF" cx="56.024" cy="1.979" rx="0.343" ry="0.332"/>
					<ellipse fill="#FFFFFF" cx="56.987" cy="1.979" rx="0.343" ry="0.332"/>
				</g>
				<g>
					<ellipse fill="#FFFFFF" cx="36.767" cy="3.074" rx="0.343" ry="0.332"/>
					<ellipse fill="#FFFFFF" cx="37.729" cy="3.074" rx="0.343" ry="0.332"/>
					<ellipse fill="#FFFFFF" cx="38.692" cy="3.074" rx="0.343" ry="0.332"/>
					<ellipse fill="#FFFFFF" cx="39.655" cy="3.074" rx="0.343" ry="0.332"/>
					<ellipse fill="#FFFFFF" cx="40.618" cy="3.074" rx="0.343" ry="0.332"/>
					<ellipse fill="#FFFFFF" cx="41.581" cy="3.074" rx="0.343" ry="0.332"/>
					<ellipse fill="#FFFFFF" cx="42.544" cy="3.074" rx="0.343" ry="0.332"/>
					<ellipse fill="#FFFFFF" cx="43.507" cy="3.074" rx="0.343" ry="0.332"/>
					<ellipse fill="#FFFFFF" cx="44.47" cy="3.074" rx="0.343" ry="0.332"/>
					<ellipse fill="#FFFFFF" cx="45.433" cy="3.074" rx="0.343" ry="0.332"/>
					<ellipse fill="#FFFFFF" cx="46.396" cy="3.074" rx="0.343" ry="0.332"/>
					<ellipse fill="#FFFFFF" cx="47.358" cy="3.074" rx="0.343" ry="0.332"/>
					<ellipse fill="#FFFFFF" cx="48.321" cy="3.074" rx="0.343" ry="0.332"/>
					<ellipse fill="#FFFFFF" cx="49.284" cy="3.074" rx="0.343" ry="0.332"/>
					<ellipse fill="#FFFFFF" cx="50.247" cy="3.074" rx="0.343" ry="0.332"/>
					<ellipse fill="#FFFFFF" cx="51.21" cy="3.074" rx="0.343" ry="0.332"/>
					<ellipse fill="#FFFFFF" cx="52.173" cy="3.074" rx="0.343" ry="0.332"/>
					<ellipse fill="#FFFFFF" cx="53.137" cy="3.074" rx="0.344" ry="0.332"/>
					<ellipse fill="#FFFFFF" cx="54.099" cy="3.074" rx="0.343" ry="0.332"/>
					<ellipse fill="#FFFFFF" cx="55.062" cy="3.074" rx="0.343" ry="0.332"/>
					<ellipse fill="#FFFFFF" cx="56.024" cy="3.074" rx="0.343" ry="0.332"/>
					<ellipse fill="#FFFFFF" cx="56.987" cy="3.074" rx="0.343" ry="0.332"/>
				</g>
				<g>
					<ellipse fill="#FFFFFF" cx="36.767" cy="4.17" rx="0.343" ry="0.332"/>
					<ellipse fill="#FFFFFF" cx="37.729" cy="4.17" rx="0.343" ry="0.332"/>
					<ellipse fill="#FFFFFF" cx="38.692" cy="4.17" rx="0.343" ry="0.332"/>
					<ellipse fill="#FFFFFF" cx="39.655" cy="4.17" rx="0.343" ry="0.332"/>
					<ellipse fill="#FFFFFF" cx="40.618" cy="4.17" rx="0.343" ry="0.332"/>
					<ellipse fill="#FFFFFF" cx="41.581" cy="4.17" rx="0.343" ry="0.332"/>
					<ellipse fill="#FFFFFF" cx="42.544" cy="4.17" rx="0.343" ry="0.332"/>
					<ellipse fill="#FFFFFF" cx="43.507" cy="4.17" rx="0.343" ry="0.332"/>
					<ellipse fill="#FFFFFF" cx="44.47" cy="4.17" rx="0.343" ry="0.332"/>
					<ellipse fill="#FFFFFF" cx="45.433" cy="4.17" rx="0.343" ry="0.332"/>
					<ellipse fill="#FFFFFF" cx="46.396" cy="4.17" rx="0.343" ry="0.332"/>
					<ellipse fill="#FFFFFF" cx="47.358" cy="4.17" rx="0.343" ry="0.332"/>
					<ellipse fill="#FFFFFF" cx="48.321" cy="4.17" rx="0.343" ry="0.332"/>
					<ellipse fill="#FFFFFF" cx="49.284" cy="4.17" rx="0.343" ry="0.332"/>
					<ellipse fill="#FFFFFF" cx="50.247" cy="4.17" rx="0.343" ry="0.332"/>
					<ellipse fill="#FFFFFF" cx="51.21" cy="4.17" rx="0.343" ry="0.332"/>
					<ellipse fill="#FFFFFF" cx="52.173" cy="4.17" rx="0.343" ry="0.332"/>
					<ellipse fill="#FFFFFF" cx="53.137" cy="4.17" rx="0.344" ry="0.332"/>
					<ellipse fill="#FFFFFF" cx="54.099" cy="4.17" rx="0.343" ry="0.332"/>
					<ellipse fill="#FFFFFF" cx="55.062" cy="4.17" rx="0.343" ry="0.332"/>
					<ellipse fill="#FFFFFF" cx="56.024" cy="4.17" rx="0.343" ry="0.332"/>
					<ellipse fill="#FFFFFF" cx="56.987" cy="4.17" rx="0.343" ry="0.332"/>
				</g>
				<g>
					<ellipse fill="#FFFFFF" cx="36.767" cy="5.266" rx="0.343" ry="0.332"/>
					<ellipse fill="#FFFFFF" cx="37.729" cy="5.266" rx="0.343" ry="0.332"/>
					<ellipse fill="#FFFFFF" cx="38.692" cy="5.266" rx="0.343" ry="0.332"/>
					<ellipse fill="#FFFFFF" cx="39.655" cy="5.266" rx="0.343" ry="0.332"/>
					<ellipse fill="#FFFFFF" cx="40.618" cy="5.266" rx="0.343" ry="0.332"/>
					<ellipse fill="#FFFFFF" cx="41.581" cy="5.266" rx="0.343" ry="0.332"/>
					<ellipse fill="#FFFFFF" cx="42.544" cy="5.266" rx="0.343" ry="0.332"/>
					<ellipse fill="#FFFFFF" cx="43.507" cy="5.266" rx="0.343" ry="0.332"/>
					<ellipse fill="#FFFFFF" cx="44.47" cy="5.266" rx="0.343" ry="0.332"/>
					<ellipse fill="#FFFFFF" cx="45.433" cy="5.266" rx="0.343" ry="0.332"/>
					<ellipse fill="#FFFFFF" cx="46.396" cy="5.266" rx="0.343" ry="0.332"/>
					<ellipse fill="#FFFFFF" cx="47.358" cy="5.266" rx="0.343" ry="0.332"/>
					<ellipse fill="#FFFFFF" cx="48.321" cy="5.266" rx="0.343" ry="0.332"/>
					<ellipse fill="#FFFFFF" cx="49.284" cy="5.266" rx="0.343" ry="0.332"/>
					<ellipse fill="#FFFFFF" cx="50.247" cy="5.266" rx="0.343" ry="0.332"/>
					<ellipse fill="#FFFFFF" cx="51.21" cy="5.266" rx="0.343" ry="0.332"/>
					<ellipse fill="#FFFFFF" cx="52.173" cy="5.266" rx="0.343" ry="0.332"/>
					<ellipse fill="#FFFFFF" cx="53.137" cy="5.266" rx="0.344" ry="0.332"/>
					<ellipse fill="#FFFFFF" cx="54.099" cy="5.266" rx="0.343" ry="0.332"/>
					<ellipse fill="#FFFFFF" cx="55.062" cy="5.266" rx="0.343" ry="0.332"/>
					<ellipse fill="#FFFFFF" cx="56.024" cy="5.266" rx="0.343" ry="0.332"/>
					<ellipse fill="#FFFFFF" cx="56.987" cy="5.266" rx="0.343" ry="0.332"/>
				</g>
				<g>
					<ellipse fill="#FFFFFF" cx="36.767" cy="6.361" rx="0.343" ry="0.332"/>
					<ellipse fill="#FFFFFF" cx="37.729" cy="6.361" rx="0.343" ry="0.332"/>
					<ellipse fill="#FFFFFF" cx="38.692" cy="6.361" rx="0.343" ry="0.332"/>
					<ellipse fill="#FFFFFF" cx="39.655" cy="6.361" rx="0.343" ry="0.332"/>
					<ellipse fill="#FFFFFF" cx="40.618" cy="6.361" rx="0.343" ry="0.332"/>
					<ellipse fill="#FFFFFF" cx="41.581" cy="6.361" rx="0.343" ry="0.332"/>
					<ellipse fill="#FFFFFF" cx="42.544" cy="6.361" rx="0.343" ry="0.332"/>
					<ellipse fill="#FFFFFF" cx="43.507" cy="6.361" rx="0.343" ry="0.332"/>
					<ellipse fill="#FFFFFF" cx="44.47" cy="6.361" rx="0.343" ry="0.332"/>
					<ellipse fill="#FFFFFF" cx="45.433" cy="6.361" rx="0.343" ry="0.332"/>
					<ellipse fill="#FFFFFF" cx="46.396" cy="6.361" rx="0.343" ry="0.332"/>
					<ellipse fill="#FFFFFF" cx="47.358" cy="6.361" rx="0.343" ry="0.332"/>
					<ellipse fill="#FFFFFF" cx="48.321" cy="6.361" rx="0.343" ry="0.332"/>
					<ellipse fill="#FFFFFF" cx="49.284" cy="6.361" rx="0.343" ry="0.332"/>
					<ellipse fill="#FFFFFF" cx="50.247" cy="6.361" rx="0.343" ry="0.332"/>
					<ellipse fill="#FFFFFF" cx="51.21" cy="6.361" rx="0.343" ry="0.332"/>
					<ellipse fill="#FFFFFF" cx="52.173" cy="6.361" rx="0.343" ry="0.332"/>
					<ellipse fill="#FFFFFF" cx="53.137" cy="6.361" rx="0.344" ry="0.332"/>
					<ellipse fill="#FFFFFF" cx="54.099" cy="6.361" rx="0.343" ry="0.332"/>
					<ellipse fill="#FFFFFF" cx="55.062" cy="6.361" rx="0.343" ry="0.332"/>
					<ellipse fill="#FFFFFF" cx="56.024" cy="6.361" rx="0.343" ry="0.332"/>
					<ellipse fill="#FFFFFF" cx="56.987" cy="6.361" rx="0.343" ry="0.332"/>
				</g>
				<g>
					<ellipse fill="#FFFFFF" cx="36.767" cy="7.457" rx="0.343" ry="0.332"/>
					<ellipse fill="#FFFFFF" cx="37.729" cy="7.457" rx="0.343" ry="0.332"/>
					<ellipse fill="#FFFFFF" cx="38.692" cy="7.457" rx="0.343" ry="0.332"/>
					<ellipse fill="#FFFFFF" cx="39.655" cy="7.457" rx="0.343" ry="0.332"/>
					<ellipse fill="#FFFFFF" cx="40.618" cy="7.457" rx="0.343" ry="0.332"/>
					<ellipse fill="#FFFFFF" cx="41.581" cy="7.457" rx="0.343" ry="0.332"/>
					<ellipse fill="#FFFFFF" cx="42.544" cy="7.457" rx="0.343" ry="0.332"/>
					<ellipse fill="#FFFFFF" cx="43.507" cy="7.457" rx="0.343" ry="0.332"/>
					<ellipse fill="#FFFFFF" cx="44.47" cy="7.457" rx="0.343" ry="0.332"/>
					<ellipse fill="#FFFFFF" cx="45.433" cy="7.457" rx="0.343" ry="0.332"/>
					<ellipse fill="#FFFFFF" cx="46.396" cy="7.457" rx="0.343" ry="0.332"/>
					<ellipse fill="#FFFFFF" cx="47.358" cy="7.457" rx="0.343" ry="0.332"/>
					<ellipse fill="#FFFFFF" cx="48.321" cy="7.457" rx="0.343" ry="0.332"/>
					<ellipse fill="#FFFFFF" cx="49.284" cy="7.457" rx="0.343" ry="0.332"/>
					<ellipse fill="#FFFFFF" cx="50.247" cy="7.457" rx="0.343" ry="0.332"/>
					<ellipse fill="#FFFFFF" cx="51.21" cy="7.457" rx="0.343" ry="0.332"/>
					<ellipse fill="#FFFFFF" cx="52.173" cy="7.457" rx="0.343" ry="0.332"/>
					<ellipse fill="#FFFFFF" cx="53.137" cy="7.457" rx="0.344" ry="0.332"/>
					<ellipse fill="#FFFFFF" cx="54.099" cy="7.457" rx="0.343" ry="0.332"/>
					<ellipse fill="#FFFFFF" cx="55.062" cy="7.457" rx="0.343" ry="0.332"/>
					<ellipse fill="#FFFFFF" cx="56.024" cy="7.457" rx="0.343" ry="0.332"/>
					<ellipse fill="#FFFFFF" cx="56.987" cy="7.457" rx="0.343" ry="0.332"/>
				</g>
				<g>
					<ellipse fill="#FFFFFF" cx="36.767" cy="8.553" rx="0.343" ry="0.332"/>
					<ellipse fill="#FFFFFF" cx="37.729" cy="8.553" rx="0.343" ry="0.332"/>
					<ellipse fill="#FFFFFF" cx="38.692" cy="8.553" rx="0.343" ry="0.332"/>
					<ellipse fill="#FFFFFF" cx="39.655" cy="8.553" rx="0.343" ry="0.332"/>
					<ellipse fill="#FFFFFF" cx="40.618" cy="8.553" rx="0.343" ry="0.332"/>
					<ellipse fill="#FFFFFF" cx="41.581" cy="8.553" rx="0.343" ry="0.332"/>
					<ellipse fill="#FFFFFF" cx="42.544" cy="8.553" rx="0.343" ry="0.332"/>
					<ellipse fill="#FFFFFF" cx="43.507" cy="8.553" rx="0.343" ry="0.332"/>
					<ellipse fill="#FFFFFF" cx="44.47" cy="8.553" rx="0.343" ry="0.332"/>
					<ellipse fill="#FFFFFF" cx="45.433" cy="8.553" rx="0.343" ry="0.332"/>
					<ellipse fill="#FFFFFF" cx="46.396" cy="8.553" rx="0.343" ry="0.332"/>
					<ellipse fill="#FFFFFF" cx="47.358" cy="8.553" rx="0.343" ry="0.332"/>
					<ellipse fill="#FFFFFF" cx="48.321" cy="8.553" rx="0.343" ry="0.332"/>
					<ellipse fill="#FFFFFF" cx="49.284" cy="8.553" rx="0.343" ry="0.332"/>
					<ellipse fill="#FFFFFF" cx="50.247" cy="8.553" rx="0.343" ry="0.332"/>
					<ellipse fill="#FFFFFF" cx="51.21" cy="8.553" rx="0.343" ry="0.332"/>
					<ellipse fill="#FFFFFF" cx="52.173" cy="8.553" rx="0.343" ry="0.332"/>
					<ellipse fill="#FFFFFF" cx="53.137" cy="8.553" rx="0.344" ry="0.332"/>
					<ellipse fill="#FFFFFF" cx="54.099" cy="8.553" rx="0.343" ry="0.332"/>
					<ellipse fill="#FFFFFF" cx="55.062" cy="8.553" rx="0.343" ry="0.332"/>
					<ellipse fill="#FFFFFF" cx="56.024" cy="8.553" rx="0.343" ry="0.332"/>
					<ellipse fill="#FFFFFF" cx="56.987" cy="8.553" rx="0.343" ry="0.332"/>
				</g>
				<g>
					<ellipse fill="#FFFFFF" cx="36.767" cy="9.648" rx="0.343" ry="0.332"/>
					<ellipse fill="#FFFFFF" cx="37.729" cy="9.648" rx="0.343" ry="0.332"/>
					<ellipse fill="#FFFFFF" cx="38.692" cy="9.648" rx="0.343" ry="0.332"/>
					<ellipse fill="#FFFFFF" cx="39.655" cy="9.648" rx="0.343" ry="0.332"/>
					<ellipse fill="#FFFFFF" cx="40.618" cy="9.648" rx="0.343" ry="0.332"/>
					<ellipse fill="#FFFFFF" cx="41.581" cy="9.648" rx="0.343" ry="0.332"/>
					<ellipse fill="#FFFFFF" cx="42.544" cy="9.648" rx="0.343" ry="0.332"/>
					<ellipse fill="#FFFFFF" cx="43.507" cy="9.648" rx="0.343" ry="0.332"/>
					<ellipse fill="#FFFFFF" cx="44.47" cy="9.648" rx="0.343" ry="0.332"/>
					<ellipse fill="#FFFFFF" cx="45.433" cy="9.648" rx="0.343" ry="0.332"/>
					<ellipse fill="#FFFFFF" cx="46.396" cy="9.648" rx="0.343" ry="0.332"/>
					<ellipse fill="#FFFFFF" cx="47.358" cy="9.648" rx="0.343" ry="0.332"/>
					<ellipse fill="#FFFFFF" cx="48.321" cy="9.648" rx="0.343" ry="0.332"/>
					<ellipse fill="#FFFFFF" cx="49.284" cy="9.648" rx="0.343" ry="0.332"/>
					<ellipse fill="#FFFFFF" cx="50.247" cy="9.648" rx="0.343" ry="0.332"/>
					<ellipse fill="#FFFFFF" cx="51.21" cy="9.648" rx="0.343" ry="0.332"/>
					<ellipse fill="#FFFFFF" cx="52.173" cy="9.648" rx="0.343" ry="0.332"/>
					<ellipse fill="#FFFFFF" cx="53.137" cy="9.648" rx="0.344" ry="0.332"/>
					<ellipse fill="#FFFFFF" cx="54.099" cy="9.648" rx="0.343" ry="0.332"/>
					<ellipse fill="#FFFFFF" cx="55.062" cy="9.648" rx="0.343" ry="0.332"/>
					<ellipse fill="#FFFFFF" cx="56.024" cy="9.648" rx="0.343" ry="0.332"/>
					<ellipse fill="#FFFFFF" cx="56.987" cy="9.648" rx="0.343" ry="0.332"/>
				</g>
				<g>
					<ellipse fill="#FFFFFF" cx="36.767" cy="10.744" rx="0.343" ry="0.332"/>
					<ellipse fill="#FFFFFF" cx="37.729" cy="10.744" rx="0.343" ry="0.332"/>
					<ellipse fill="#FFFFFF" cx="38.692" cy="10.744" rx="0.343" ry="0.332"/>
					<ellipse fill="#FFFFFF" cx="39.655" cy="10.744" rx="0.343" ry="0.332"/>
					<ellipse fill="#FFFFFF" cx="40.618" cy="10.744" rx="0.343" ry="0.332"/>
					<ellipse fill="#FFFFFF" cx="41.581" cy="10.744" rx="0.343" ry="0.332"/>
					<ellipse fill="#FFFFFF" cx="42.544" cy="10.744" rx="0.343" ry="0.332"/>
					<ellipse fill="#FFFFFF" cx="43.507" cy="10.744" rx="0.343" ry="0.332"/>
					<ellipse fill="#FFFFFF" cx="44.47" cy="10.744" rx="0.343" ry="0.332"/>
					<ellipse fill="#FFFFFF" cx="45.433" cy="10.744" rx="0.343" ry="0.332"/>
					<ellipse fill="#FFFFFF" cx="46.396" cy="10.744" rx="0.343" ry="0.332"/>
					<ellipse fill="#FFFFFF" cx="47.358" cy="10.744" rx="0.343" ry="0.332"/>
					<ellipse fill="#FFFFFF" cx="48.321" cy="10.744" rx="0.343" ry="0.332"/>
					<ellipse fill="#FFFFFF" cx="49.284" cy="10.744" rx="0.343" ry="0.332"/>
					<ellipse fill="#FFFFFF" cx="50.247" cy="10.744" rx="0.343" ry="0.332"/>
					<ellipse fill="#FFFFFF" cx="51.21" cy="10.744" rx="0.343" ry="0.332"/>
					<ellipse fill="#FFFFFF" cx="52.173" cy="10.744" rx="0.343" ry="0.332"/>
					<ellipse fill="#FFFFFF" cx="53.137" cy="10.744" rx="0.344" ry="0.332"/>
					<ellipse fill="#FFFFFF" cx="54.099" cy="10.744" rx="0.343" ry="0.332"/>
					<ellipse fill="#FFFFFF" cx="55.062" cy="10.744" rx="0.343" ry="0.332"/>
					<ellipse fill="#FFFFFF" cx="56.024" cy="10.744" rx="0.343" ry="0.332"/>
					<ellipse fill="#FFFFFF" cx="56.987" cy="10.744" rx="0.343" ry="0.332"/>
				</g>
				<g>
					<ellipse fill="#FFFFFF" cx="36.767" cy="11.84" rx="0.343" ry="0.332"/>
					<ellipse fill="#FFFFFF" cx="37.729" cy="11.84" rx="0.343" ry="0.332"/>
					<ellipse fill="#FFFFFF" cx="38.692" cy="11.84" rx="0.343" ry="0.332"/>
					<ellipse fill="#FFFFFF" cx="39.655" cy="11.84" rx="0.343" ry="0.332"/>
					<ellipse fill="#FFFFFF" cx="40.618" cy="11.84" rx="0.343" ry="0.332"/>
					<ellipse fill="#FFFFFF" cx="41.581" cy="11.84" rx="0.343" ry="0.332"/>
					<ellipse fill="#FFFFFF" cx="42.544" cy="11.84" rx="0.343" ry="0.332"/>
					<ellipse fill="#FFFFFF" cx="43.507" cy="11.84" rx="0.343" ry="0.332"/>
					<ellipse fill="#FFFFFF" cx="44.47" cy="11.84" rx="0.343" ry="0.332"/>
					<ellipse fill="#FFFFFF" cx="45.433" cy="11.84" rx="0.343" ry="0.332"/>
					<ellipse fill="#FFFFFF" cx="46.396" cy="11.84" rx="0.343" ry="0.332"/>
					<ellipse fill="#FFFFFF" cx="47.358" cy="11.84" rx="0.343" ry="0.332"/>
					<ellipse fill="#FFFFFF" cx="48.321" cy="11.84" rx="0.343" ry="0.332"/>
					<ellipse fill="#FFFFFF" cx="49.284" cy="11.84" rx="0.343" ry="0.332"/>
					<ellipse fill="#FFFFFF" cx="50.247" cy="11.84" rx="0.343" ry="0.332"/>
					<ellipse fill="#FFFFFF" cx="51.21" cy="11.84" rx="0.343" ry="0.332"/>
					<ellipse fill="#FFFFFF" cx="52.173" cy="11.84" rx="0.343" ry="0.332"/>
					<ellipse fill="#FFFFFF" cx="53.137" cy="11.84" rx="0.344" ry="0.332"/>
					<ellipse fill="#FFFFFF" cx="54.099" cy="11.84" rx="0.343" ry="0.332"/>
					<ellipse fill="#FFFFFF" cx="55.062" cy="11.84" rx="0.343" ry="0.332"/>
					<ellipse fill="#FFFFFF" cx="56.024" cy="11.84" rx="0.343" ry="0.332"/>
					<ellipse fill="#FFFFFF" cx="56.987" cy="11.84" rx="0.343" ry="0.332"/>
				</g>
				<g>
					<ellipse fill="#FFFFFF" cx="36.767" cy="12.936" rx="0.343" ry="0.332"/>
					<ellipse fill="#FFFFFF" cx="37.729" cy="12.936" rx="0.343" ry="0.332"/>
					<ellipse fill="#FFFFFF" cx="38.692" cy="12.936" rx="0.343" ry="0.332"/>
					<ellipse fill="#FFFFFF" cx="39.655" cy="12.936" rx="0.343" ry="0.332"/>
					<ellipse fill="#FFFFFF" cx="40.618" cy="12.936" rx="0.343" ry="0.332"/>
					<ellipse fill="#FFFFFF" cx="41.581" cy="12.936" rx="0.343" ry="0.332"/>
					<ellipse fill="#FFFFFF" cx="42.544" cy="12.936" rx="0.343" ry="0.332"/>
					<ellipse fill="#FFFFFF" cx="43.507" cy="12.936" rx="0.343" ry="0.332"/>
					<ellipse fill="#FFFFFF" cx="44.47" cy="12.936" rx="0.343" ry="0.332"/>
					<ellipse fill="#FFFFFF" cx="45.433" cy="12.936" rx="0.343" ry="0.332"/>
					<ellipse fill="#FFFFFF" cx="46.396" cy="12.936" rx="0.343" ry="0.332"/>
					<ellipse fill="#FFFFFF" cx="47.358" cy="12.936" rx="0.343" ry="0.332"/>
					<ellipse fill="#FFFFFF" cx="48.321" cy="12.936" rx="0.343" ry="0.332"/>
					<ellipse fill="#FFFFFF" cx="49.284" cy="12.936" rx="0.343" ry="0.332"/>
					<ellipse fill="#FFFFFF" cx="50.247" cy="12.936" rx="0.343" ry="0.332"/>
					<ellipse fill="#FFFFFF" cx="51.21" cy="12.936" rx="0.343" ry="0.332"/>
					<ellipse fill="#FFFFFF" cx="52.173" cy="12.936" rx="0.343" ry="0.332"/>
					<ellipse fill="#FFFFFF" cx="53.137" cy="12.936" rx="0.344" ry="0.332"/>
					<ellipse fill="#FFFFFF" cx="54.099" cy="12.936" rx="0.343" ry="0.332"/>
					<ellipse fill="#FFFFFF" cx="55.062" cy="12.936" rx="0.343" ry="0.332"/>
					<ellipse fill="#FFFFFF" cx="56.024" cy="12.936" rx="0.343" ry="0.332"/>
					<ellipse fill="#FFFFFF" cx="56.987" cy="12.936" rx="0.343" ry="0.332"/>
				</g>
				<g>
					<ellipse fill="#FFFFFF" cx="36.767" cy="14.031" rx="0.343" ry="0.332"/>
					<ellipse fill="#FFFFFF" cx="37.729" cy="14.031" rx="0.343" ry="0.332"/>
					<ellipse fill="#FFFFFF" cx="38.692" cy="14.031" rx="0.343" ry="0.332"/>
					<ellipse fill="#FFFFFF" cx="39.655" cy="14.031" rx="0.343" ry="0.332"/>
					<ellipse fill="#FFFFFF" cx="40.618" cy="14.031" rx="0.343" ry="0.332"/>
					<ellipse fill="#FFFFFF" cx="41.581" cy="14.031" rx="0.343" ry="0.332"/>
					<ellipse fill="#FFFFFF" cx="42.544" cy="14.031" rx="0.343" ry="0.332"/>
					<ellipse fill="#FFFFFF" cx="43.507" cy="14.031" rx="0.343" ry="0.332"/>
					<ellipse fill="#FFFFFF" cx="44.47" cy="14.031" rx="0.343" ry="0.332"/>
					<ellipse fill="#FFFFFF" cx="45.433" cy="14.031" rx="0.343" ry="0.332"/>
					<ellipse fill="#FFFFFF" cx="46.396" cy="14.031" rx="0.343" ry="0.332"/>
					<ellipse fill="#FFFFFF" cx="47.358" cy="14.031" rx="0.343" ry="0.332"/>
					<ellipse fill="#FFFFFF" cx="48.321" cy="14.031" rx="0.343" ry="0.332"/>
					<ellipse fill="#FFFFFF" cx="49.284" cy="14.031" rx="0.343" ry="0.332"/>
					<ellipse fill="#FFFFFF" cx="50.247" cy="14.031" rx="0.343" ry="0.332"/>
					<ellipse fill="#FFFFFF" cx="51.21" cy="14.031" rx="0.343" ry="0.332"/>
					<ellipse fill="#FFFFFF" cx="52.173" cy="14.031" rx="0.343" ry="0.332"/>
					<ellipse fill="#FFFFFF" cx="53.137" cy="14.031" rx="0.344" ry="0.332"/>
					<ellipse fill="#FFFFFF" cx="54.099" cy="14.031" rx="0.343" ry="0.332"/>
					<ellipse fill="#FFFFFF" cx="55.062" cy="14.031" rx="0.343" ry="0.332"/>
					<ellipse fill="#FFFFFF" cx="56.024" cy="14.031" rx="0.343" ry="0.332"/>
					<ellipse fill="#FFFFFF" cx="56.987" cy="14.031" rx="0.343" ry="0.332"/>
				</g>
			</g>
		</g>
	</g>
	<polygon style="fill:url(#seat); <?php echo $stroke;?>" points="24.516,22.482 8.818,22.264 8.934,20.824 24.422,20.977 	"/>
	<rect x="38.047" y="20.459" style="fill:url(#seat); <?php echo $stroke;?>" width="17.49" height="1.684"/>
	<polygon style="fill:url(#seat); <?php echo $stroke;?>" points="7.652,22.25 1.314,22.164 1.314,20.752 7.768,20.813 	"/>
</g>
</svg>
