<?xml version="1.0" encoding="utf-8"?>
<!-- Generator: Adobe Illustrator 14.0.0, SVG Export Plug-In . SVG Version: 6.00 Build 43363)  -->
<!DOCTYPE svg PUBLIC "-//W3C//DTD SVG 1.1//EN" "http://www.w3.org/Graphics/SVG/1.1/DTD/svg11.dtd">
<svg version="1.1" id="レイヤー_1" xmlns="http://www.w3.org/2000/svg" xmlns:xlink="http://www.w3.org/1999/xlink" x="0px"
	 y="0px" width="100%" height="100%" viewBox="0 0 60.031 71.851" enable-background="new 0 0 60.031 71.851"
	 xml:space="preserve">
	  <?php echo $pattern;?>
<g>
	<g>
		<path style="fill:url(#frame); <?php echo $stroke;?>" d="M2.49,49.83l0.244-24.772c0,0,19.563,0.369,22.559,0.425c-0.031,1.652-0.049,3.373-0.049,5.194
			c0,5.28,0.154,11.404,0.625,19.153H2.49z M2.391,22.133v-1.438l23.012,0.215c-0.014,0.506-0.029,1.016-0.041,1.529L2.391,22.133z
			 M26.43,30.677c0-5.055,0.141-9.336,0.275-13.54c0.277-4.948,1.529-10.457,2.951-16.881L28.502,0
			c-1.404,6.339-2.658,11.83-2.967,16.873c-0.004,0.023-0.006,0.048-0.008,0.073v0.007v0.006l-0.012,0.247v0.006
			c0,0.025,0,0.048,0,0.071c-0.037,1.121-0.121,4.006-0.154,5.155L2.168,22.13l0,0l-0.555-0.008l-0.047,2.981L1.313,49.83H0v1.581
			h1.297L1.09,71.597l1.184,0.013l0.201-20.198h23.492c0.375,5.817,0.926,12.527,1.715,20.439l1.18-0.118l0,0
			C26.92,52.283,26.43,40.12,26.43,30.677"/>
		<path style="fill:url(#frame); <?php echo $stroke;?>" d="M58.125,50.502h-0.672V25.958h0.002v-3.124H37.836v0.799h-0.002v26.869h-0.561V17.521h20.852V50.502z
			 M55.66,50.502H39.629V25.96H55.66V50.502z M60.031,14.584V0c0,0-9.248,0.336-12.332,0.336S35.367,0,35.367,0v71.851h1.906V52.077
			h0.561v19.773h1.795V52.077H55.66v19.773h1.793V52.077h0.672v19.773h1.906V14.584z M38.9,21.148h17.488v1.674h0.225l0,0H38.676
			l0,0H38.9V21.148z"/>
	</g>
	<polygon style="fill:url(#seat); <?php echo $stroke;?>" points="25.361,22.438 2.391,22.133 2.391,20.694 25.402,20.909 	"/>
	<rect x="38.9" y="21.148" style="fill:url(#seat); <?php echo $stroke;?>" width="17.488" height="1.674"/>
</g>
</svg>
