<?xml version="1.0" encoding="utf-8"?>
<!-- Generator: Adobe Illustrator 14.0.0, SVG Export Plug-In . SVG Version: 6.00 Build 43363)  -->
<!DOCTYPE svg PUBLIC "-//W3C//DTD SVG 1.1//EN" "http://www.w3.org/Graphics/SVG/1.1/DTD/svg11.dtd">
<svg version="1.1" id="レイヤー_1" xmlns="http://www.w3.org/2000/svg" xmlns:xlink="http://www.w3.org/1999/xlink" x="0px"
	 y="0px" width="100%" height="100%" viewBox="0 0 62.29 47.176" enable-background="new 0 0 62.29 47.176"
	 xml:space="preserve">
	  <?php echo $pattern;?>
<g>
	<path style="fill:url(#frame); <?php echo $stroke;?>" d="M26.34,24.883c-0.065-0.575-0.099-1.216-0.099-1.906c-0.004-3.747,0.947-8.896,1.961-13.274
		c0.506-2.193,1.026-4.197,1.445-5.758c0.422-1.562,0.74-2.665,0.855-3.099l-1.555-0.409c-0.104,0.389-0.428,1.521-0.852,3.09
		c-0.635,2.359-1.498,5.731-2.204,9.256c-0.46,2.298-1.019,6.976-1.237,9.171L1.093,21.676l0,0l-0.651-0.008L0,47.108l1.606,0.027
		l0.38-22.184l22.771,0.226c0.636,5.444,1.44,10.67,2.103,14.675c0.334,2.018,0.631,3.725,0.854,4.995
		c0.11,0.634,0.202,1.161,0.271,1.558c0.066,0.396,0.111,0.676,0.121,0.771l1.598-0.183c-0.021-0.178-0.066-0.449-0.135-0.857
		C29.091,43.317,27.448,34.417,26.34,24.883"/>
	<g>
		<path style="fill:url(#frame); <?php echo $stroke;?>" d="M61.753,21.867l-0.246-21.43H35.483l-0.246,21.43l-0.538,25.309h2.009l0.528-22.014h22.589l0.455,21.775
			h2.01L61.753,21.867z M37.241,21.916l0.114-4.244l22.224,0.029l0.113,4.215H37.241z"/>
	</g>
	<path style="fill:url(#seat); <?php echo $stroke;?>" d="M24.655,21.953L1.319,21.679v-1.817h23.563C24.815,20.579,24.682,21.279,24.655,21.953"/>
	<polygon style="fill:url(#seat); <?php echo $stroke;?>" points="37.241,21.916 37.286,20.275 59.647,20.275 59.692,21.916 	"/>
	<g>
		<defs>
			<polygon id="SVGID_1_" points="37.141,15.88 59.728,15.88 59.728,1.719 48.434,2.42 37.141,1.719 			"/>
		</defs>
		<clipPath id="SVGID_2_">
			<use xlink:href="#SVGID_1_"  overflow="visible"/>
		</clipPath>
		<rect x="34.616" clip-path="url(#SVGID_2_)" style="fill:url(#frame); <?php echo $stroke;?>" width="25.73" height="16.776"/>
		<g clip-path="url(#SVGID_2_)">
			<g>
				<ellipse fill="#FFFFFF" cx="37.511" cy="2.198" rx="0.371" ry="0.384"/>
				<ellipse fill="#FFFFFF" cx="38.551" cy="2.198" rx="0.37" ry="0.384"/>
				<ellipse fill="#FFFFFF" cx="39.592" cy="2.198" rx="0.37" ry="0.384"/>
				<ellipse fill="#FFFFFF" cx="40.632" cy="2.198" rx="0.371" ry="0.384"/>
				<ellipse fill="#FFFFFF" cx="41.672" cy="2.198" rx="0.37" ry="0.384"/>
				<ellipse fill="#FFFFFF" cx="42.712" cy="2.198" rx="0.371" ry="0.384"/>
				<ellipse fill="#FFFFFF" cx="43.752" cy="2.198" rx="0.37" ry="0.384"/>
				<ellipse fill="#FFFFFF" cx="44.792" cy="2.198" rx="0.371" ry="0.384"/>
				<ellipse fill="#FFFFFF" cx="45.833" cy="2.198" rx="0.371" ry="0.384"/>
				<ellipse fill="#FFFFFF" cx="46.873" cy="2.198" rx="0.37" ry="0.384"/>
				<ellipse fill="#FFFFFF" cx="47.914" cy="2.198" rx="0.371" ry="0.384"/>
				<ellipse fill="#FFFFFF" cx="48.954" cy="2.198" rx="0.371" ry="0.384"/>
				<ellipse fill="#FFFFFF" cx="49.994" cy="2.198" rx="0.371" ry="0.384"/>
				<ellipse fill="#FFFFFF" cx="51.034" cy="2.198" rx="0.371" ry="0.384"/>
				<ellipse fill="#FFFFFF" cx="52.074" cy="2.198" rx="0.371" ry="0.384"/>
				<ellipse fill="#FFFFFF" cx="53.114" cy="2.198" rx="0.371" ry="0.384"/>
				<ellipse fill="#FFFFFF" cx="54.155" cy="2.198" rx="0.371" ry="0.384"/>
				<ellipse fill="#FFFFFF" cx="55.195" cy="2.198" rx="0.37" ry="0.384"/>
				<ellipse fill="#FFFFFF" cx="56.236" cy="2.198" rx="0.371" ry="0.384"/>
				<ellipse fill="#FFFFFF" cx="57.276" cy="2.198" rx="0.371" ry="0.384"/>
				<ellipse fill="#FFFFFF" cx="58.316" cy="2.198" rx="0.371" ry="0.384"/>
				<ellipse fill="#FFFFFF" cx="59.356" cy="2.198" rx="0.371" ry="0.384"/>
			</g>
			<g>
				<ellipse fill="#FFFFFF" cx="37.511" cy="3.465" rx="0.371" ry="0.384"/>
				<ellipse fill="#FFFFFF" cx="38.551" cy="3.465" rx="0.37" ry="0.384"/>
				<ellipse fill="#FFFFFF" cx="39.592" cy="3.465" rx="0.37" ry="0.384"/>
				<ellipse fill="#FFFFFF" cx="40.632" cy="3.465" rx="0.371" ry="0.384"/>
				<ellipse fill="#FFFFFF" cx="41.672" cy="3.465" rx="0.37" ry="0.384"/>
				<ellipse fill="#FFFFFF" cx="42.712" cy="3.465" rx="0.371" ry="0.384"/>
				<ellipse fill="#FFFFFF" cx="43.752" cy="3.465" rx="0.37" ry="0.384"/>
				<ellipse fill="#FFFFFF" cx="44.792" cy="3.465" rx="0.371" ry="0.384"/>
				<ellipse fill="#FFFFFF" cx="45.833" cy="3.465" rx="0.371" ry="0.384"/>
				<ellipse fill="#FFFFFF" cx="46.873" cy="3.465" rx="0.37" ry="0.384"/>
				<ellipse fill="#FFFFFF" cx="47.914" cy="3.465" rx="0.371" ry="0.384"/>
				<ellipse fill="#FFFFFF" cx="48.954" cy="3.465" rx="0.371" ry="0.384"/>
				<ellipse fill="#FFFFFF" cx="49.994" cy="3.465" rx="0.371" ry="0.384"/>
				<ellipse fill="#FFFFFF" cx="51.034" cy="3.465" rx="0.371" ry="0.384"/>
				<ellipse fill="#FFFFFF" cx="52.074" cy="3.465" rx="0.371" ry="0.384"/>
				<ellipse fill="#FFFFFF" cx="53.114" cy="3.465" rx="0.371" ry="0.384"/>
				<ellipse fill="#FFFFFF" cx="54.155" cy="3.465" rx="0.371" ry="0.384"/>
				<ellipse fill="#FFFFFF" cx="55.195" cy="3.465" rx="0.37" ry="0.384"/>
				<ellipse fill="#FFFFFF" cx="56.236" cy="3.465" rx="0.371" ry="0.384"/>
				<ellipse fill="#FFFFFF" cx="57.276" cy="3.465" rx="0.371" ry="0.384"/>
				<ellipse fill="#FFFFFF" cx="58.316" cy="3.465" rx="0.371" ry="0.384"/>
				<ellipse fill="#FFFFFF" cx="59.356" cy="3.465" rx="0.371" ry="0.384"/>
			</g>
			<g>
				<ellipse fill="#FFFFFF" cx="37.511" cy="4.732" rx="0.371" ry="0.385"/>
				<ellipse fill="#FFFFFF" cx="38.551" cy="4.732" rx="0.37" ry="0.385"/>
				<ellipse fill="#FFFFFF" cx="39.592" cy="4.732" rx="0.37" ry="0.385"/>
				<ellipse fill="#FFFFFF" cx="40.632" cy="4.732" rx="0.371" ry="0.385"/>
				<ellipse fill="#FFFFFF" cx="41.672" cy="4.732" rx="0.37" ry="0.385"/>
				<ellipse fill="#FFFFFF" cx="42.712" cy="4.732" rx="0.371" ry="0.385"/>
				<ellipse fill="#FFFFFF" cx="43.752" cy="4.732" rx="0.37" ry="0.385"/>
				<ellipse fill="#FFFFFF" cx="44.792" cy="4.732" rx="0.371" ry="0.385"/>
				<ellipse fill="#FFFFFF" cx="45.833" cy="4.732" rx="0.371" ry="0.385"/>
				<ellipse fill="#FFFFFF" cx="46.873" cy="4.732" rx="0.37" ry="0.385"/>
				<ellipse fill="#FFFFFF" cx="47.914" cy="4.732" rx="0.371" ry="0.385"/>
				<ellipse fill="#FFFFFF" cx="48.954" cy="4.732" rx="0.371" ry="0.385"/>
				<ellipse fill="#FFFFFF" cx="49.994" cy="4.732" rx="0.371" ry="0.385"/>
				<ellipse fill="#FFFFFF" cx="51.034" cy="4.732" rx="0.371" ry="0.385"/>
				<ellipse fill="#FFFFFF" cx="52.074" cy="4.732" rx="0.371" ry="0.385"/>
				<ellipse fill="#FFFFFF" cx="53.114" cy="4.732" rx="0.371" ry="0.385"/>
				<ellipse fill="#FFFFFF" cx="54.155" cy="4.732" rx="0.371" ry="0.385"/>
				<ellipse fill="#FFFFFF" cx="55.195" cy="4.732" rx="0.37" ry="0.385"/>
				<ellipse fill="#FFFFFF" cx="56.236" cy="4.732" rx="0.371" ry="0.385"/>
				<ellipse fill="#FFFFFF" cx="57.276" cy="4.732" rx="0.371" ry="0.385"/>
				<ellipse fill="#FFFFFF" cx="58.316" cy="4.732" rx="0.371" ry="0.385"/>
				<ellipse fill="#FFFFFF" cx="59.356" cy="4.732" rx="0.371" ry="0.385"/>
			</g>
			<g>
				<ellipse fill="#FFFFFF" cx="37.511" cy="5.999" rx="0.371" ry="0.384"/>
				<ellipse fill="#FFFFFF" cx="38.551" cy="5.999" rx="0.37" ry="0.384"/>
				<ellipse fill="#FFFFFF" cx="39.592" cy="5.999" rx="0.37" ry="0.384"/>
				<ellipse fill="#FFFFFF" cx="40.632" cy="5.999" rx="0.371" ry="0.384"/>
				<ellipse fill="#FFFFFF" cx="41.672" cy="5.999" rx="0.37" ry="0.384"/>
				<ellipse fill="#FFFFFF" cx="42.712" cy="5.999" rx="0.371" ry="0.384"/>
				<ellipse fill="#FFFFFF" cx="43.752" cy="5.999" rx="0.37" ry="0.384"/>
				<ellipse fill="#FFFFFF" cx="44.792" cy="5.999" rx="0.371" ry="0.384"/>
				<ellipse fill="#FFFFFF" cx="45.833" cy="5.999" rx="0.371" ry="0.384"/>
				<ellipse fill="#FFFFFF" cx="46.873" cy="5.999" rx="0.37" ry="0.384"/>
				<ellipse fill="#FFFFFF" cx="47.914" cy="5.999" rx="0.371" ry="0.384"/>
				<ellipse fill="#FFFFFF" cx="48.954" cy="5.999" rx="0.371" ry="0.384"/>
				<ellipse fill="#FFFFFF" cx="49.994" cy="5.999" rx="0.371" ry="0.384"/>
				<ellipse fill="#FFFFFF" cx="51.034" cy="5.999" rx="0.371" ry="0.384"/>
				<ellipse fill="#FFFFFF" cx="52.074" cy="5.999" rx="0.371" ry="0.384"/>
				<ellipse fill="#FFFFFF" cx="53.114" cy="5.999" rx="0.371" ry="0.384"/>
				<ellipse fill="#FFFFFF" cx="54.155" cy="5.999" rx="0.371" ry="0.384"/>
				<ellipse fill="#FFFFFF" cx="55.195" cy="5.999" rx="0.37" ry="0.384"/>
				<ellipse fill="#FFFFFF" cx="56.236" cy="5.999" rx="0.371" ry="0.384"/>
				<ellipse fill="#FFFFFF" cx="57.276" cy="5.999" rx="0.371" ry="0.384"/>
				<ellipse fill="#FFFFFF" cx="58.316" cy="5.999" rx="0.371" ry="0.384"/>
				<ellipse fill="#FFFFFF" cx="59.356" cy="5.999" rx="0.371" ry="0.384"/>
			</g>
			<g>
				<ellipse fill="#FFFFFF" cx="37.511" cy="7.266" rx="0.371" ry="0.384"/>
				<ellipse fill="#FFFFFF" cx="38.551" cy="7.266" rx="0.37" ry="0.384"/>
				<ellipse fill="#FFFFFF" cx="39.592" cy="7.266" rx="0.37" ry="0.384"/>
				<ellipse fill="#FFFFFF" cx="40.632" cy="7.266" rx="0.371" ry="0.384"/>
				<ellipse fill="#FFFFFF" cx="41.672" cy="7.266" rx="0.37" ry="0.384"/>
				<ellipse fill="#FFFFFF" cx="42.712" cy="7.266" rx="0.371" ry="0.384"/>
				<ellipse fill="#FFFFFF" cx="43.752" cy="7.266" rx="0.37" ry="0.384"/>
				<ellipse fill="#FFFFFF" cx="44.792" cy="7.266" rx="0.371" ry="0.384"/>
				<ellipse fill="#FFFFFF" cx="45.833" cy="7.266" rx="0.371" ry="0.384"/>
				<ellipse fill="#FFFFFF" cx="46.873" cy="7.266" rx="0.37" ry="0.384"/>
				<ellipse fill="#FFFFFF" cx="47.914" cy="7.266" rx="0.371" ry="0.384"/>
				<ellipse fill="#FFFFFF" cx="48.954" cy="7.266" rx="0.371" ry="0.384"/>
				<ellipse fill="#FFFFFF" cx="49.994" cy="7.266" rx="0.371" ry="0.384"/>
				<ellipse fill="#FFFFFF" cx="51.034" cy="7.266" rx="0.371" ry="0.384"/>
				<ellipse fill="#FFFFFF" cx="52.074" cy="7.266" rx="0.371" ry="0.384"/>
				<ellipse fill="#FFFFFF" cx="53.114" cy="7.266" rx="0.371" ry="0.384"/>
				<ellipse fill="#FFFFFF" cx="54.155" cy="7.266" rx="0.371" ry="0.384"/>
				<ellipse fill="#FFFFFF" cx="55.195" cy="7.266" rx="0.37" ry="0.384"/>
				<ellipse fill="#FFFFFF" cx="56.236" cy="7.266" rx="0.371" ry="0.384"/>
				<ellipse fill="#FFFFFF" cx="57.276" cy="7.266" rx="0.371" ry="0.384"/>
				<ellipse fill="#FFFFFF" cx="58.316" cy="7.266" rx="0.371" ry="0.384"/>
				<ellipse fill="#FFFFFF" cx="59.356" cy="7.266" rx="0.371" ry="0.384"/>
			</g>
			<g>
				<ellipse fill="#FFFFFF" cx="37.511" cy="8.533" rx="0.371" ry="0.384"/>
				<ellipse fill="#FFFFFF" cx="38.551" cy="8.533" rx="0.37" ry="0.384"/>
				<ellipse fill="#FFFFFF" cx="39.592" cy="8.533" rx="0.37" ry="0.384"/>
				<ellipse fill="#FFFFFF" cx="40.632" cy="8.533" rx="0.371" ry="0.384"/>
				<ellipse fill="#FFFFFF" cx="41.672" cy="8.533" rx="0.37" ry="0.384"/>
				<ellipse fill="#FFFFFF" cx="42.712" cy="8.533" rx="0.371" ry="0.384"/>
				<ellipse fill="#FFFFFF" cx="43.752" cy="8.533" rx="0.37" ry="0.384"/>
				<ellipse fill="#FFFFFF" cx="44.792" cy="8.533" rx="0.371" ry="0.384"/>
				<ellipse fill="#FFFFFF" cx="45.833" cy="8.533" rx="0.371" ry="0.384"/>
				<ellipse fill="#FFFFFF" cx="46.873" cy="8.533" rx="0.37" ry="0.384"/>
				<ellipse fill="#FFFFFF" cx="47.914" cy="8.533" rx="0.371" ry="0.384"/>
				<ellipse fill="#FFFFFF" cx="48.954" cy="8.533" rx="0.371" ry="0.384"/>
				<ellipse fill="#FFFFFF" cx="49.994" cy="8.533" rx="0.371" ry="0.384"/>
				<ellipse fill="#FFFFFF" cx="51.034" cy="8.533" rx="0.371" ry="0.384"/>
				<ellipse fill="#FFFFFF" cx="52.074" cy="8.533" rx="0.371" ry="0.384"/>
				<ellipse fill="#FFFFFF" cx="53.114" cy="8.533" rx="0.371" ry="0.384"/>
				<ellipse fill="#FFFFFF" cx="54.155" cy="8.533" rx="0.371" ry="0.384"/>
				<ellipse fill="#FFFFFF" cx="55.195" cy="8.533" rx="0.37" ry="0.384"/>
				<ellipse fill="#FFFFFF" cx="56.236" cy="8.533" rx="0.371" ry="0.384"/>
				<ellipse fill="#FFFFFF" cx="57.276" cy="8.533" rx="0.371" ry="0.384"/>
				<ellipse fill="#FFFFFF" cx="58.316" cy="8.533" rx="0.371" ry="0.384"/>
				<ellipse fill="#FFFFFF" cx="59.356" cy="8.533" rx="0.371" ry="0.384"/>
			</g>
			<g>
				<ellipse fill="#FFFFFF" cx="37.511" cy="9.8" rx="0.371" ry="0.385"/>
				<ellipse fill="#FFFFFF" cx="38.551" cy="9.8" rx="0.37" ry="0.385"/>
				<ellipse fill="#FFFFFF" cx="39.592" cy="9.8" rx="0.37" ry="0.385"/>
				<ellipse fill="#FFFFFF" cx="40.632" cy="9.8" rx="0.371" ry="0.385"/>
				<ellipse fill="#FFFFFF" cx="41.672" cy="9.8" rx="0.37" ry="0.385"/>
				<ellipse fill="#FFFFFF" cx="42.712" cy="9.8" rx="0.371" ry="0.385"/>
				<ellipse fill="#FFFFFF" cx="43.752" cy="9.8" rx="0.37" ry="0.385"/>
				<ellipse fill="#FFFFFF" cx="44.792" cy="9.8" rx="0.371" ry="0.385"/>
				<ellipse fill="#FFFFFF" cx="45.833" cy="9.8" rx="0.371" ry="0.385"/>
				<ellipse fill="#FFFFFF" cx="46.873" cy="9.8" rx="0.37" ry="0.385"/>
				<ellipse fill="#FFFFFF" cx="47.914" cy="9.8" rx="0.371" ry="0.385"/>
				<ellipse fill="#FFFFFF" cx="48.954" cy="9.8" rx="0.371" ry="0.385"/>
				<ellipse fill="#FFFFFF" cx="49.994" cy="9.8" rx="0.371" ry="0.385"/>
				<ellipse fill="#FFFFFF" cx="51.034" cy="9.8" rx="0.371" ry="0.385"/>
				<ellipse fill="#FFFFFF" cx="52.074" cy="9.8" rx="0.371" ry="0.385"/>
				<ellipse fill="#FFFFFF" cx="53.114" cy="9.8" rx="0.371" ry="0.385"/>
				<ellipse fill="#FFFFFF" cx="54.155" cy="9.8" rx="0.371" ry="0.385"/>
				<ellipse fill="#FFFFFF" cx="55.195" cy="9.8" rx="0.37" ry="0.385"/>
				<ellipse fill="#FFFFFF" cx="56.236" cy="9.8" rx="0.371" ry="0.385"/>
				<ellipse fill="#FFFFFF" cx="57.276" cy="9.8" rx="0.371" ry="0.385"/>
				<ellipse fill="#FFFFFF" cx="58.316" cy="9.8" rx="0.371" ry="0.385"/>
				<ellipse fill="#FFFFFF" cx="59.356" cy="9.8" rx="0.371" ry="0.385"/>
			</g>
			<g>
				<ellipse fill="#FFFFFF" cx="37.511" cy="11.067" rx="0.371" ry="0.385"/>
				<ellipse fill="#FFFFFF" cx="38.551" cy="11.067" rx="0.37" ry="0.385"/>
				<ellipse fill="#FFFFFF" cx="39.592" cy="11.067" rx="0.37" ry="0.385"/>
				<ellipse fill="#FFFFFF" cx="40.632" cy="11.067" rx="0.371" ry="0.385"/>
				<ellipse fill="#FFFFFF" cx="41.672" cy="11.067" rx="0.37" ry="0.385"/>
				<ellipse fill="#FFFFFF" cx="42.712" cy="11.067" rx="0.371" ry="0.385"/>
				<ellipse fill="#FFFFFF" cx="43.752" cy="11.067" rx="0.37" ry="0.385"/>
				<ellipse fill="#FFFFFF" cx="44.792" cy="11.067" rx="0.371" ry="0.385"/>
				<ellipse fill="#FFFFFF" cx="45.833" cy="11.067" rx="0.371" ry="0.385"/>
				<ellipse fill="#FFFFFF" cx="46.873" cy="11.067" rx="0.37" ry="0.385"/>
				<ellipse fill="#FFFFFF" cx="47.914" cy="11.067" rx="0.371" ry="0.385"/>
				<ellipse fill="#FFFFFF" cx="48.954" cy="11.067" rx="0.371" ry="0.385"/>
				<ellipse fill="#FFFFFF" cx="49.994" cy="11.067" rx="0.371" ry="0.385"/>
				<ellipse fill="#FFFFFF" cx="51.034" cy="11.067" rx="0.371" ry="0.385"/>
				<ellipse fill="#FFFFFF" cx="52.074" cy="11.067" rx="0.371" ry="0.385"/>
				<ellipse fill="#FFFFFF" cx="53.114" cy="11.067" rx="0.371" ry="0.385"/>
				<ellipse fill="#FFFFFF" cx="54.155" cy="11.067" rx="0.371" ry="0.385"/>
				<ellipse fill="#FFFFFF" cx="55.195" cy="11.067" rx="0.37" ry="0.385"/>
				<ellipse fill="#FFFFFF" cx="56.236" cy="11.067" rx="0.371" ry="0.385"/>
				<ellipse fill="#FFFFFF" cx="57.276" cy="11.067" rx="0.371" ry="0.385"/>
				<ellipse fill="#FFFFFF" cx="58.316" cy="11.067" rx="0.371" ry="0.385"/>
				<ellipse fill="#FFFFFF" cx="59.356" cy="11.067" rx="0.371" ry="0.385"/>
			</g>
			<g>
				<ellipse fill="#FFFFFF" cx="37.511" cy="12.334" rx="0.371" ry="0.385"/>
				<ellipse fill="#FFFFFF" cx="38.551" cy="12.334" rx="0.37" ry="0.385"/>
				<ellipse fill="#FFFFFF" cx="39.592" cy="12.334" rx="0.37" ry="0.385"/>
				<ellipse fill="#FFFFFF" cx="40.632" cy="12.334" rx="0.371" ry="0.385"/>
				<ellipse fill="#FFFFFF" cx="41.672" cy="12.334" rx="0.37" ry="0.385"/>
				<ellipse fill="#FFFFFF" cx="42.712" cy="12.334" rx="0.371" ry="0.385"/>
				<ellipse fill="#FFFFFF" cx="43.752" cy="12.334" rx="0.37" ry="0.385"/>
				<ellipse fill="#FFFFFF" cx="44.792" cy="12.334" rx="0.371" ry="0.385"/>
				<ellipse fill="#FFFFFF" cx="45.833" cy="12.334" rx="0.371" ry="0.385"/>
				<ellipse fill="#FFFFFF" cx="46.873" cy="12.334" rx="0.37" ry="0.385"/>
				<ellipse fill="#FFFFFF" cx="47.914" cy="12.334" rx="0.371" ry="0.385"/>
				<ellipse fill="#FFFFFF" cx="48.954" cy="12.334" rx="0.371" ry="0.385"/>
				<ellipse fill="#FFFFFF" cx="49.994" cy="12.334" rx="0.371" ry="0.385"/>
				<ellipse fill="#FFFFFF" cx="51.034" cy="12.334" rx="0.371" ry="0.385"/>
				<ellipse fill="#FFFFFF" cx="52.074" cy="12.334" rx="0.371" ry="0.385"/>
				<ellipse fill="#FFFFFF" cx="53.114" cy="12.334" rx="0.371" ry="0.385"/>
				<ellipse fill="#FFFFFF" cx="54.155" cy="12.334" rx="0.371" ry="0.385"/>
				<ellipse fill="#FFFFFF" cx="55.195" cy="12.334" rx="0.37" ry="0.385"/>
				<ellipse fill="#FFFFFF" cx="56.236" cy="12.334" rx="0.371" ry="0.385"/>
				<ellipse fill="#FFFFFF" cx="57.276" cy="12.334" rx="0.371" ry="0.385"/>
				<ellipse fill="#FFFFFF" cx="58.316" cy="12.334" rx="0.371" ry="0.385"/>
				<ellipse fill="#FFFFFF" cx="59.356" cy="12.334" rx="0.371" ry="0.385"/>
			</g>
			<g>
				<ellipse fill="#FFFFFF" cx="37.511" cy="13.601" rx="0.371" ry="0.384"/>
				<ellipse fill="#FFFFFF" cx="38.551" cy="13.601" rx="0.37" ry="0.384"/>
				<ellipse fill="#FFFFFF" cx="39.592" cy="13.601" rx="0.37" ry="0.384"/>
				<ellipse fill="#FFFFFF" cx="40.632" cy="13.601" rx="0.371" ry="0.384"/>
				<ellipse fill="#FFFFFF" cx="41.672" cy="13.601" rx="0.37" ry="0.384"/>
				<ellipse fill="#FFFFFF" cx="42.712" cy="13.601" rx="0.371" ry="0.384"/>
				<ellipse fill="#FFFFFF" cx="43.752" cy="13.601" rx="0.37" ry="0.384"/>
				<ellipse fill="#FFFFFF" cx="44.792" cy="13.601" rx="0.371" ry="0.384"/>
				<ellipse fill="#FFFFFF" cx="45.833" cy="13.601" rx="0.371" ry="0.384"/>
				<ellipse fill="#FFFFFF" cx="46.873" cy="13.601" rx="0.37" ry="0.384"/>
				<ellipse fill="#FFFFFF" cx="47.914" cy="13.601" rx="0.371" ry="0.384"/>
				<ellipse fill="#FFFFFF" cx="48.954" cy="13.601" rx="0.371" ry="0.384"/>
				<ellipse fill="#FFFFFF" cx="49.994" cy="13.601" rx="0.371" ry="0.384"/>
				<ellipse fill="#FFFFFF" cx="51.034" cy="13.601" rx="0.371" ry="0.384"/>
				<ellipse fill="#FFFFFF" cx="52.074" cy="13.601" rx="0.371" ry="0.384"/>
				<ellipse fill="#FFFFFF" cx="53.114" cy="13.601" rx="0.371" ry="0.384"/>
				<ellipse fill="#FFFFFF" cx="54.155" cy="13.601" rx="0.371" ry="0.384"/>
				<ellipse fill="#FFFFFF" cx="55.195" cy="13.601" rx="0.37" ry="0.384"/>
				<ellipse fill="#FFFFFF" cx="56.236" cy="13.601" rx="0.371" ry="0.384"/>
				<ellipse fill="#FFFFFF" cx="57.276" cy="13.601" rx="0.371" ry="0.384"/>
				<ellipse fill="#FFFFFF" cx="58.316" cy="13.601" rx="0.371" ry="0.384"/>
				<ellipse fill="#FFFFFF" cx="59.356" cy="13.601" rx="0.371" ry="0.384"/>
			</g>
			<g>
				<ellipse fill="#FFFFFF" cx="37.511" cy="14.868" rx="0.371" ry="0.385"/>
				<ellipse fill="#FFFFFF" cx="38.551" cy="14.868" rx="0.37" ry="0.385"/>
				<ellipse fill="#FFFFFF" cx="39.592" cy="14.868" rx="0.37" ry="0.385"/>
				<ellipse fill="#FFFFFF" cx="40.632" cy="14.868" rx="0.371" ry="0.385"/>
				<ellipse fill="#FFFFFF" cx="41.672" cy="14.868" rx="0.37" ry="0.385"/>
				<ellipse fill="#FFFFFF" cx="42.712" cy="14.868" rx="0.371" ry="0.385"/>
				<ellipse fill="#FFFFFF" cx="43.752" cy="14.868" rx="0.37" ry="0.385"/>
				<ellipse fill="#FFFFFF" cx="44.792" cy="14.868" rx="0.371" ry="0.385"/>
				<ellipse fill="#FFFFFF" cx="45.833" cy="14.868" rx="0.371" ry="0.385"/>
				<ellipse fill="#FFFFFF" cx="46.873" cy="14.868" rx="0.37" ry="0.385"/>
				<ellipse fill="#FFFFFF" cx="47.914" cy="14.868" rx="0.371" ry="0.385"/>
				<ellipse fill="#FFFFFF" cx="48.954" cy="14.868" rx="0.371" ry="0.385"/>
				<ellipse fill="#FFFFFF" cx="49.994" cy="14.868" rx="0.371" ry="0.385"/>
				<ellipse fill="#FFFFFF" cx="51.034" cy="14.868" rx="0.371" ry="0.385"/>
				<ellipse fill="#FFFFFF" cx="52.074" cy="14.868" rx="0.371" ry="0.385"/>
				<ellipse fill="#FFFFFF" cx="53.114" cy="14.868" rx="0.371" ry="0.385"/>
				<ellipse fill="#FFFFFF" cx="54.155" cy="14.868" rx="0.371" ry="0.385"/>
				<ellipse fill="#FFFFFF" cx="55.195" cy="14.868" rx="0.37" ry="0.385"/>
				<ellipse fill="#FFFFFF" cx="56.236" cy="14.868" rx="0.371" ry="0.385"/>
				<ellipse fill="#FFFFFF" cx="57.276" cy="14.868" rx="0.371" ry="0.385"/>
				<ellipse fill="#FFFFFF" cx="58.316" cy="14.868" rx="0.371" ry="0.385"/>
				<ellipse fill="#FFFFFF" cx="59.356" cy="14.868" rx="0.371" ry="0.385"/>
			</g>
			<g>
				<ellipse fill="#FFFFFF" cx="37.511" cy="16.135" rx="0.371" ry="0.385"/>
				<ellipse fill="#FFFFFF" cx="38.551" cy="16.135" rx="0.37" ry="0.385"/>
				<ellipse fill="#FFFFFF" cx="39.592" cy="16.135" rx="0.37" ry="0.385"/>
				<ellipse fill="#FFFFFF" cx="40.632" cy="16.135" rx="0.371" ry="0.385"/>
				<ellipse fill="#FFFFFF" cx="41.672" cy="16.135" rx="0.37" ry="0.385"/>
				<ellipse fill="#FFFFFF" cx="42.712" cy="16.135" rx="0.371" ry="0.385"/>
				<ellipse fill="#FFFFFF" cx="43.752" cy="16.135" rx="0.37" ry="0.385"/>
				<ellipse fill="#FFFFFF" cx="44.792" cy="16.135" rx="0.371" ry="0.385"/>
				<ellipse fill="#FFFFFF" cx="45.833" cy="16.135" rx="0.371" ry="0.385"/>
				<ellipse fill="#FFFFFF" cx="46.873" cy="16.135" rx="0.37" ry="0.385"/>
				<ellipse fill="#FFFFFF" cx="47.914" cy="16.135" rx="0.371" ry="0.385"/>
				<ellipse fill="#FFFFFF" cx="48.954" cy="16.135" rx="0.371" ry="0.385"/>
				<ellipse fill="#FFFFFF" cx="49.994" cy="16.135" rx="0.371" ry="0.385"/>
				<ellipse fill="#FFFFFF" cx="51.034" cy="16.135" rx="0.371" ry="0.385"/>
				<ellipse fill="#FFFFFF" cx="52.074" cy="16.135" rx="0.371" ry="0.385"/>
				<ellipse fill="#FFFFFF" cx="53.114" cy="16.135" rx="0.371" ry="0.385"/>
				<ellipse fill="#FFFFFF" cx="54.155" cy="16.135" rx="0.371" ry="0.385"/>
				<ellipse fill="#FFFFFF" cx="55.195" cy="16.135" rx="0.37" ry="0.385"/>
				<ellipse fill="#FFFFFF" cx="56.236" cy="16.135" rx="0.371" ry="0.385"/>
				<ellipse fill="#FFFFFF" cx="57.276" cy="16.135" rx="0.371" ry="0.385"/>
				<ellipse fill="#FFFFFF" cx="58.316" cy="16.135" rx="0.371" ry="0.385"/>
				<ellipse fill="#FFFFFF" cx="59.356" cy="16.135" rx="0.371" ry="0.385"/>
			</g>
		</g>
	</g>
</g>
</svg>
