<?xml version="1.0" encoding="utf-8"?>
<!-- Generator: Adobe Illustrator 14.0.0, SVG Export Plug-In . SVG Version: 6.00 Build 43363)  -->
<!DOCTYPE svg PUBLIC "-//W3C//DTD SVG 1.1//EN" "http://www.w3.org/Graphics/SVG/1.1/DTD/svg11.dtd">
<svg version="1.1" id="レイヤー_1" xmlns="http://www.w3.org/2000/svg" xmlns:xlink="http://www.w3.org/1999/xlink" x="0px"
	 y="0px" width="100%" height="100%" viewBox="0 0 66.454 46.468" enable-background="new 0 0 66.454 46.468"
	 xml:space="preserve">
	  <?php echo $pattern;?>
<g>
	<g>
		<path style="fill:url(#frame); <?php echo $stroke;?>" d="M66.454,8.809h-2.568L63.784,0H37.913l-0.102,8.809h-2.607l2.457,12.888l-0.527,24.771h1.996l0.525-21.889
			h22.459l0.451,21.65h1.998L64.034,21.5L66.454,8.809z M37.733,15.67l-1.078-5.664h1.143L37.733,15.67z M39.661,21.355l0.113-4.218
			l22.094,0.027l0.113,4.191H39.661z M63.899,10.006h1.104l-1.041,5.461L63.899,10.006z"/>
	</g>
	<g>
		<path style="fill:url(#frame); <?php echo $stroke;?>" d="M26.188,24.304c-0.066-0.572-0.098-1.209-0.098-1.896c-0.004-3.724,0.941-8.843,1.949-13.197
			c0.504-2.18,1.02-4.174,1.438-5.725c0.42-1.553,0.736-2.648,0.85-3.08L28.781,0l0,0c-0.094,0.355-0.454,1.61-0.875,3.174
			s-0.843,3.171-1.355,5.382L1.387,9.111H0.604L0.418,22.347L0,46.4l1.598,0.027l0.365-21.33l0.012,0.002l0.012-0.727l22.629,0.225
			c0.631,5.412,1.432,10.607,2.09,14.59c0.332,2.006,0.627,3.703,0.85,4.967c0.109,0.629,0.201,1.152,0.268,1.549
			c0.068,0.393,0.111,0.672,0.123,0.766l1.588-0.184c-0.021-0.176-0.066-0.445-0.135-0.85
			C28.922,42.632,27.291,33.783,26.188,24.304z M24.918,17.084c-0.094,0.678-0.34,3.652-0.404,4.306L2.031,21.126L2.18,10.691
			l24.008-0.529c-0.135,0.617-0.362,1.701-0.489,2.333C25.378,14.099,25.139,15.488,24.918,17.084L24.918,17.084z"/>
	</g>
	<path style="fill:url(#back); <?php echo $stroke;?>" d="M27.119,2.852c0.357-1.326,0.648-2.348,0.785-2.85l0.816,0.215c-0.139,0.51-0.428,1.521-0.787,2.854
		c-0.4,1.494-0.896,3.398-1.383,5.486l-0.873,0.02C26.184,6.391,26.701,4.402,27.119,2.852"/>
	<polygon style="fill:url(#back); <?php echo $stroke;?>" points="37.944,16.91 38.135,0.225 63.561,0.225 63.754,16.938 	"/>
	<path style="fill:url(#seat); <?php echo $stroke;?>" d="M24.514,21.39L2.031,21.126l0.025-1.814h22.598C24.588,20.025,24.539,20.72,24.514,21.39"/>
	<path style="fill:url(#back); <?php echo $stroke;?>" d="M24.949,16.861l-0.834-0.146c0.217-1.523,0.492-3.082,0.799-4.609c0.131-0.646,0.266-1.291,0.402-1.924
		l0.871-0.02c-0.152,0.693-0.303,1.398-0.445,2.111C25.438,13.797,25.164,15.348,24.949,16.861"/>
	<polygon style="fill:url(#seat); <?php echo $stroke;?>" points="39.661,21.355 39.706,19.722 61.938,19.722 61.981,21.355 	"/>
</g>
</svg>
