<?xml version="1.0" encoding="utf-8"?>
<!-- Generator: Adobe Illustrator 14.0.0, SVG Export Plug-In . SVG Version: 6.00 Build 43363)  -->
<!DOCTYPE svg PUBLIC "-//W3C//DTD SVG 1.1//EN" "http://www.w3.org/Graphics/SVG/1.1/DTD/svg11.dtd">
<svg version="1.1" id="レイヤー_1" xmlns="http://www.w3.org/2000/svg" xmlns:xlink="http://www.w3.org/1999/xlink" x="0px"
	 y="0px" width="100%" height="100%" viewBox="0 0 61.93 46.741" enable-background="new 0 0 61.93 46.741"
	 xml:space="preserve">
	  <?php echo $pattern;?>
<g>
	<g>
		<path style="fill:url(#frame); <?php echo $stroke;?>" d="M26.188,24.577c-0.066-0.574-0.098-1.209-0.098-1.896c-0.004-3.725,0.941-8.844,1.949-13.198
			c0.502-2.18,1.02-4.174,1.438-5.725c0.42-1.553,0.736-2.65,0.85-3.08l-1.545-0.406l0,0l0,0c-0.094,0.354-0.571,2.052-0.993,3.614
			c-0.635,2.359-1.314,5.009-2.023,8.548c-0.32,1.604-0.626,3.326-0.847,4.922l0,0c-0.094,0.678-0.34,3.653-0.404,4.307
			L1.086,21.387l0,0l-0.648-0.008L0,46.672L1.598,46.7l0.377-22.055l22.641,0.225c0.631,5.412,1.432,10.607,2.09,14.59
			c0.332,2.006,0.629,3.703,0.85,4.965c0.109,0.631,0.201,1.154,0.268,1.549c0.068,0.395,0.111,0.672,0.123,0.768l1.588-0.184
			c-0.021-0.176-0.066-0.445-0.135-0.852C28.922,42.905,27.291,34.055,26.188,24.577"/>
		<path style="fill:url(#back); <?php echo $stroke;?>" d="M24.115,16.984c0.217-1.523,0.492-3.08,0.799-4.607c0.707-3.529,1.57-6.898,2.205-9.256
			c0.357-1.324,0.648-2.346,0.785-2.848l0.816,0.215c-0.139,0.51-0.428,1.521-0.787,2.854c-0.631,2.346-1.488,5.699-2.191,9.203
			c-0.305,1.523-0.578,3.074-0.793,4.588L24.115,16.984z"/>
		<path style="fill:url(#seat); <?php echo $stroke;?>" d="M24.514,21.663L1.313,21.391v-1.809h23.342C24.588,20.297,24.539,20.993,24.514,21.663"/>
	</g>
	<g>
		<g>
			<path style="fill:url(#frame); <?php echo $stroke;?>" d="M61.395,21.305L61.15,0H35.279l-0.244,21.305L34.5,46.467h1.996l0.525-21.887H59.48l0.451,21.65h1.998
				L61.395,21.305z M37.025,21.354l0.113-4.219l22.096,0.029l0.113,4.19H37.025z"/>
		</g>
		<polygon style="fill:url(#back); <?php echo $stroke;?>" points="35.311,16.91 35.5,0.225 60.928,0.225 61.119,16.938 		"/>
		<polygon style="fill:url(#seat); <?php echo $stroke;?>" points="37.025,21.354 37.07,19.723 59.303,19.723 59.348,21.354 		"/>
	</g>
</g>
</svg>
