<?xml version="1.0" encoding="utf-8"?>
<!-- Generator: Adobe Illustrator 14.0.0, SVG Export Plug-In . SVG Version: 6.00 Build 43363)  -->
<!DOCTYPE svg PUBLIC "-//W3C//DTD SVG 1.1//EN" "http://www.w3.org/Graphics/SVG/1.1/DTD/svg11.dtd">
<svg version="1.1" id="レイヤー_1" xmlns="http://www.w3.org/2000/svg" xmlns:xlink="http://www.w3.org/1999/xlink" x="0px"
	 y="0px" width="100%" height="100%" viewBox="0 0 65.277 46.47" enable-background="new 0 0 65.277 46.47"
	 xml:space="preserve">
	  <?php echo $pattern;?>
<g>
	<polygon style="fill:url(#seat); <?php echo $stroke;?>" points="60.807,21.355 38.486,21.355 38.531,19.724 60.764,19.724 	"/>
	<path style="fill:url(#seat); <?php echo $stroke;?>" d="M2.031,21.128l0.025-1.816h22.598c0.023,0.488-0.18,1.568-0.143,2.08L2.031,21.128z"/>
	<g>
		<g>
			
			<path style="fill:url(#frame); <?php echo $stroke;?>" d="M65.277,8.809h-2.566L62.609,0H36.738l-0.102,8.809h-2.607l2.457,12.888L35.959,46.47h1.996l0.525-21.889
				h22.459l0.451,21.65h1.998l-0.529-24.73L65.277,8.809z M36.559,15.671l-1.078-5.664h1.143L36.559,15.671z M38.6,17.137
				l22.094,0.028l0.113,4.19h-22.32L38.6,17.137z M38.486,21.355L38.486,21.355h22.32l0,0H38.486z M62.725,10.007h1.104
				l-1.041,5.461L62.725,10.007z"/>
		</g>
		<path style="fill:url(#frame); <?php echo $stroke;?>" d="M24.512,21.392l-22.48-0.264L2.18,10.692l24.006-0.529c-0.152,0.693-0.301,1.397-0.443,2.11
			c-0.457,2.284-0.848,4.63-1.066,6.813 M24.512,21.392l-22.48-0.264l0,0L24.512,21.392C24.443,22.107,24.539,20.722,24.512,21.392
			 M26.188,24.304c-0.066-0.57-0.1-1.207-0.1-1.895c-0.002-3.726,0.943-8.844,1.949-13.198c0.504-2.181,1.021-4.174,1.439-5.725
			c0.418-1.553,0.734-2.649,0.85-3.08L28.781,0c-0.104,0.387-0.428,1.513-0.848,3.071c-0.402,1.494-0.896,3.397-1.383,5.486
			L1.387,9.112H0.604L0.418,22.349L0,46.402l1.598,0.027l0.365-21.33l0.012,0.002l0.012-0.727l22.627,0.225
			c0.633,5.412,1.432,10.607,2.092,14.59c0.332,2.006,0.627,3.703,0.85,4.967c0.109,0.629,0.201,1.152,0.268,1.549
			c0.066,0.393,0.111,0.672,0.121,0.766l1.588-0.184c-0.021-0.176-0.064-0.445-0.133-0.85
			C28.922,42.634,27.289,33.785,26.188,24.304"/>
	</g>
</g>
</svg>
