<?xml version="1.0" encoding="iso-8859-1"?>
<!-- Generator: Adobe Illustrator 14.0.0, SVG Export Plug-In . SVG Version: 6.00 Build 43363)  -->
<!DOCTYPE svg PUBLIC "-//W3C//DTD SVG 1.1//EN" "http://www.w3.org/Graphics/SVG/1.1/DTD/svg11.dtd">
<svg version="1.1" id="&#x30EC;&#x30A4;&#x30E4;&#x30FC;_1"
	 xmlns="http://www.w3.org/2000/svg" xmlns:xlink="http://www.w3.org/1999/xlink" x="0px" y="0px" width="100%"
	 height="100%" viewBox="0 0 65.278 46.468" style="enable-background:new 0 0 65.278 46.468;" xml:space="preserve">
	 <?php echo $pattern;?>
<g>
	<g>
		<path style="fill:url(#frame); <?php echo $stroke;?>" d="M65.278,8.809h-2.567L62.609,0h-25.87l-0.102,8.809h-2.608l2.457,12.889L35.96,46.468h1.995
			l0.525-21.887h22.459l0.452,21.648h1.997l-0.529-24.729L65.278,8.809z M36.559,15.671l-1.077-5.664h1.142L36.559,15.671z
			 M38.487,21.355l0.044-1.631l0.069-2.588l22.094,0.028l0.069,2.56l0.044,1.631H38.487z M62.726,10.007h1.103l-1.04,5.461
			L62.726,10.007z"/>
	</g>
	<g>
		<path style="fill:url(#frame); <?php echo $stroke;?>" d="M26.188,24.304c-0.066-0.571-0.099-1.208-0.099-1.895c-0.003-3.726,0.942-8.844,1.949-13.197
			c0.504-2.181,1.021-4.174,1.438-5.724c0.419-1.554,0.735-2.65,0.85-3.081L28.781,0c-0.103,0.387-0.427,1.513-0.847,3.072
			c-0.402,1.493-0.897,3.396-1.384,5.485L1.387,9.112H0.604L0.418,22.349L0,46.4l1.598,0.029l0.365-21.33l0.012,0.002l0.012-0.727
			l22.628,0.225c0.632,5.412,1.432,10.607,2.092,14.59c0.331,2.006,0.627,3.703,0.849,4.965c0.109,0.629,0.201,1.152,0.269,1.549
			c0.066,0.393,0.111,0.672,0.121,0.766l1.588-0.184c-0.021-0.176-0.065-0.445-0.134-0.85C28.922,42.634,27.29,33.785,26.188,24.304
			z M24.654,19.313c-0.067,0.714-0.115,1.41-0.142,2.079L2.031,21.128l0.026-1.815l0.122-8.62l24.007-0.528
			c-0.152,0.692-0.302,1.396-0.444,2.109C25.286,14.558,24.86,17.129,24.654,19.313z"/>
	</g>
</g>
</svg>
