<?xml version="1.0" encoding="utf-8"?>
<!-- Generator: Adobe Illustrator 14.0.0, SVG Export Plug-In . SVG Version: 6.00 Build 43363)  -->
<!DOCTYPE svg PUBLIC "-//W3C//DTD SVG 1.1//EN" "http://www.w3.org/Graphics/SVG/1.1/DTD/svg11.dtd">
<svg version="1.1" id="レイヤー_1" xmlns="http://www.w3.org/2000/svg" xmlns:xlink="http://www.w3.org/1999/xlink" x="0px"
	 y="0px" width="100%" height="100%" viewBox="0 0 62.289 46.739" enable-background="new 0 0 62.289 46.739"
	 xml:space="preserve">
	  <?php echo $pattern;?>
<g>
	<g>
		<path style="fill:url(#frame); <?php echo $stroke;?>" d="M26.34,24.446c-0.066-0.575-0.1-1.216-0.1-1.906c-0.003-3.747,0.948-8.896,1.962-13.274
			c0.505-2.193,1.026-4.197,1.445-5.758c0.422-1.562,0.74-2.665,0.855-3.099L28.948,0c-0.104,0.389-0.429,1.521-0.852,3.09
			c-0.635,2.359-1.499,5.731-2.204,9.256c-0.46,2.298-1.019,6.976-1.237,9.171L1.092,21.239l0,0l-0.65-0.008L0,46.672l1.606,0.027
			l0.38-22.184l22.771,0.226c0.635,5.444,1.44,10.67,2.103,14.675c0.334,2.018,0.631,3.725,0.854,4.995
			c0.11,0.634,0.202,1.161,0.27,1.558c0.067,0.396,0.112,0.676,0.122,0.771l1.598-0.183c-0.021-0.178-0.066-0.449-0.135-0.857
			C29.09,42.881,27.448,33.98,26.34,24.446"/>
		<path style="fill:url(#seat); <?php echo $stroke;?>" d="M24.655,21.517L1.319,21.242v-1.817h23.563C24.815,20.143,24.682,20.843,24.655,21.517"/>
	</g>
	<g>
		<g>
			<path style="fill:url(#frame); <?php echo $stroke;?>" d="M61.753,21.431l-0.247-21.43H35.483l-0.246,21.43l-0.538,25.309h2.009l0.528-22.014h22.589l0.455,21.775
				h2.009L61.753,21.431z M37.241,21.479l0.114-4.244l22.224,0.029l0.113,4.215H37.241z"/>
		</g>
		<polygon style="fill:url(#seat); <?php echo $stroke;?>" points="37.241,21.479 37.285,19.839 59.647,19.839 59.692,21.479 		"/>
	</g>
</g>
</svg>
