<?xml version="1.0" encoding="utf-8"?>
<!-- Generator: Adobe Illustrator 14.0.0, SVG Export Plug-In . SVG Version: 6.00 Build 43363)  -->
<!DOCTYPE svg PUBLIC "-//W3C//DTD SVG 1.1//EN" "http://www.w3.org/Graphics/SVG/1.1/DTD/svg11.dtd">
<svg version="1.1" id="レイヤー_1" xmlns="http://www.w3.org/2000/svg" xmlns:xlink="http://www.w3.org/1999/xlink" x="0px"
	 y="0px" width="100%" height="100%" viewBox="0 0 65.278 46.468" enable-background="new 0 0 65.278 46.468"
	 xml:space="preserve">
	  <?php echo $pattern;?>
<g>
	
	
	<path style="fill:url(#frame); <?php echo $stroke;?>" d="M29.477,3.488c0.42-1.554,0.736-2.65,0.85-3.081L28.781,0c-0.103,0.387-0.426,1.513-0.847,3.072
		c-0.402,1.493-0.896,3.396-1.384,5.485L1.388,9.112H0.604L0.418,22.349L0,46.4l1.598,0.029l0.366-21.33l0.011,0.002l0.012-0.727
		l22.629,0.225c0.631,5.412,1.432,10.607,2.091,14.59c0.332,2.006,0.627,3.703,0.849,4.965c0.11,0.629,0.201,1.152,0.269,1.549
		c0.066,0.393,0.111,0.672,0.121,0.766l1.589-0.184c-0.021-0.176-0.066-0.445-0.135-0.85c-0.477-2.801-2.107-11.65-3.21-21.13
		c-0.066-0.571-0.099-1.208-0.099-1.896c-0.003-3.726,0.941-8.844,1.949-13.197C28.542,7.031,29.06,5.038,29.477,3.488z
		 M24.514,21.392L2.032,21.128l0.025-1.815h22.598C24.588,20.026,24.539,20.723,24.514,21.392z M25.743,12.273
		c-0.457,2.284-1.012,6.936-1.229,9.118L2.032,21.128l0.148-10.436l24.007-0.528C26.035,10.856,25.886,11.561,25.743,12.273z"/>
	<path style="fill:url(#seat); <?php echo $stroke;?>" d="M2.032,21.128l22.481,0.264c0.025-0.669,0.159-1.365,0.226-2.079H2.058L2.032,21.128z"/>
	<g>		
		<path style="fill:url(#frame); <?php echo $stroke;?>" d="M65.278,8.809h-2.566L62.609,0H36.74l-0.102,8.809H34.03l2.457,12.889L35.96,46.468h1.996l0.525-21.887
			h22.458l0.452,21.648h1.998l-0.53-24.729L65.278,8.809z M64.062,10.007l-1.04,5.461l-0.063-5.461H64.062z M36.56,15.671
			l-1.078-5.664h1.143L36.56,15.671z M38.601,17.137l22.095,0.028l0.112,4.19h-22.32L38.601,17.137z M38.487,21.355l0.044-1.631
			h22.232l0.044,1.631H38.487z"/>
	</g>
	<polygon style="fill:url(#seat); <?php echo $stroke;?>" points="38.531,19.725 38.487,21.355 60.808,21.355 60.764,19.725 	"/>
</g>
</svg>
