<?xml version="1.0" encoding="utf-8"?>
<!-- Generator: Adobe Illustrator 14.0.0, SVG Export Plug-In . SVG Version: 6.00 Build 43363)  -->
<!DOCTYPE svg PUBLIC "-//W3C//DTD SVG 1.1//EN" "http://www.w3.org/Graphics/SVG/1.1/DTD/svg11.dtd">
<svg version="1.1" id="レイヤー_1" xmlns="http://www.w3.org/2000/svg" xmlns:xlink="http://www.w3.org/1999/xlink" x="0px"
	 y="0px" width="100%" height="100%" viewBox="0 0 66.451 46.47" enable-background="new 0 0 66.451 46.47"
	 xml:space="preserve">
	  <?php echo $pattern;?>
<g>
	<g>
		<path style="fill:url(#frame); <?php echo $stroke;?>" d="M26.188,24.304c-0.066-0.57-0.098-1.207-0.098-1.894c-0.004-3.727,0.941-8.844,1.947-13.197
			c0.504-2.182,1.021-4.174,1.439-5.725c0.418-1.553,0.734-2.65,0.85-3.08L28.781,0h-0.002h0.002
			c-0.094,0.355-0.376,1.325-0.798,2.888c-0.422,1.566-0.923,3.46-1.433,5.671L1.387,9.113H0.604L0.416,22.35L0,46.402l1.598,0.027
			l0.365-21.33l0.012,0.002l0.012-0.727l22.627,0.225c0.633,5.412,1.432,10.607,2.092,14.59c0.332,2.006,0.627,3.703,0.85,4.965
			c0.109,0.631,0.201,1.154,0.268,1.549c0.068,0.395,0.111,0.672,0.121,0.768l1.588-0.184c-0.02-0.176-0.064-0.445-0.133-0.85
			C28.922,42.634,27.289,33.785,26.188,24.304z M24.918,17.086c-0.094,0.678-0.34,3.654-0.406,4.307l-22.48-0.264L2.18,10.693
			l24.006-0.529c-0.135,0.617-0.288,1.327-0.413,1.958C25.452,13.727,25.141,15.488,24.918,17.086L24.918,17.086z"/>
	</g>
	<path style="fill:url(#seat); <?php echo $stroke;?>" d="M24.512,21.393l-22.48-0.264l0.025-1.816h22.598C24.586,20.027,24.537,20.723,24.512,21.393"/>
	<path style="fill:url(#back); <?php echo $stroke;?>" d="M27.117,2.852c0.359-1.324,0.648-2.346,0.787-2.848l0.816,0.215c-0.139,0.508-0.428,1.521-0.787,2.854
		c-0.402,1.494-0.896,3.396-1.383,5.486l-0.873,0.02C26.184,6.393,26.699,4.402,27.117,2.852"/>
	<path style="fill:url(#back); <?php echo $stroke;?>" d="M24.949,16.863l-0.834-0.148c0.217-1.523,0.492-3.08,0.799-4.607c0.131-0.648,0.266-1.291,0.402-1.924
		l0.869-0.02c-0.152,0.693-0.301,1.396-0.443,2.109C25.438,13.799,25.162,15.35,24.949,16.863"/>
	<g>
		<path style="fill:url(#frame); <?php echo $stroke;?>" d="M66.451,8.809h-2.566L63.783,0H37.912l-0.102,8.809h-2.607l2.457,12.889l-0.527,24.771h1.996l0.525-21.887
			h22.457l0.453,21.65h1.998l-0.531-24.73L66.451,8.809z M37.732,15.672l-1.078-5.664h1.143L37.732,15.672z M39.66,21.355
			l0.111-4.219l22.096,0.029l0.113,4.189H39.66z M63.898,10.008H65l-1.039,5.461L63.898,10.008z"/>
	</g>
	<polygon style="fill:url(#back); <?php echo $stroke;?>" points="37.943,16.912 38.135,0.227 63.561,0.227 63.754,16.939 	"/>
	<polygon style="fill:url(#seat); <?php echo $stroke;?>" points="39.66,21.355 39.703,19.725 61.936,19.725 61.98,21.355 	"/>
</g>
</svg>
