<?xml version="1.0" encoding="utf-8"?>
<!-- Generator: Adobe Illustrator 14.0.0, SVG Export Plug-In . SVG Version: 6.00 Build 43363)  -->
<!DOCTYPE svg PUBLIC "-//W3C//DTD SVG 1.1//EN" "http://www.w3.org/Graphics/SVG/1.1/DTD/svg11.dtd">
<svg version="1.1" id="レイヤー_1" xmlns="http://www.w3.org/2000/svg" xmlns:xlink="http://www.w3.org/1999/xlink" x="0px"
	 y="0px" width="100%" height="100%" viewBox="0 0 61.929 46.74" enable-background="new 0 0 61.929 46.74"
	 xml:space="preserve">
	  <?php echo $pattern;?>
<g>
	<path style="fill:url(#frame); <?php echo $stroke;?>" d="M26.189,24.576c-0.068-0.574-0.1-1.208-0.1-1.896c-0.002-3.725,0.941-8.844,1.949-13.197
		c0.504-2.18,1.021-4.174,1.438-5.725c0.42-1.553,0.736-2.65,0.85-3.08l-1.545-0.406l0,0l0,0c-0.094,0.354-0.377,1.326-0.797,2.889
		c-0.637,2.359-1.483,5.598-2.192,9.137c-0.32,1.604-0.652,3.463-0.873,5.059l0,0c-0.096,0.678-0.34,3.652-0.406,4.307L1.086,21.387
		l0,0l-0.646-0.008L0,46.671l1.598,0.027l0.377-22.055l22.641,0.225c0.631,5.412,1.432,10.607,2.09,14.59
		c0.334,2.006,0.629,3.703,0.85,4.965c0.109,0.631,0.201,1.154,0.27,1.549c0.066,0.395,0.111,0.672,0.121,0.768l1.588-0.184
		c-0.021-0.176-0.066-0.445-0.135-0.852C28.922,42.904,27.291,34.054,26.189,24.576"/>
	<path style="fill:url(#back); <?php echo $stroke;?>" d="M24.115,16.984c0.217-1.523,0.494-3.08,0.799-4.607c0.709-3.529,1.57-6.898,2.205-9.256
		c0.357-1.324,0.648-2.346,0.787-2.848l0.816,0.215c-0.141,0.51-0.43,1.521-0.787,2.854c-0.633,2.346-1.49,5.699-2.193,9.203
		c-0.305,1.523-0.578,3.074-0.793,4.588L24.115,16.984z"/>
	<path style="fill:url(#seat); <?php echo $stroke;?>" d="M24.514,21.662L1.313,21.391v-1.809h23.342C24.588,20.297,24.539,20.992,24.514,21.662"/>
	<g>
		<path style="fill:url(#frame); <?php echo $stroke;?>" d="M61.396,21.305L61.15,0H35.279l-0.244,21.305L34.5,46.466h1.996l0.525-21.887H59.48l0.451,21.65h1.998
			L61.396,21.305z M37.027,21.354l0.113-4.219l22.094,0.029l0.113,4.189H37.027z"/>
	</g>
	<polygon style="fill:url(#back); <?php echo $stroke;?>" points="35.31,16.91 35.5,0.225 60.927,0.225 61.119,16.938 	"/>
	<polygon style="fill:url(#seat); <?php echo $stroke;?>" points="37.027,21.354 37.07,19.723 59.302,19.723 59.347,21.354 	"/>
</g>
</svg>
