<?xml version="1.0" encoding="utf-8"?>
<!-- Generator: Adobe Illustrator 14.0.0, SVG Export Plug-In . SVG Version: 6.00 Build 43363)  -->
<!DOCTYPE svg PUBLIC "-//W3C//DTD SVG 1.1//EN" "http://www.w3.org/Graphics/SVG/1.1/DTD/svg11.dtd">
<svg version="1.1" id="レイヤー_1" xmlns="http://www.w3.org/2000/svg" xmlns:xlink="http://www.w3.org/1999/xlink" x="0px"
	 y="0px" width="100%" height="100%" viewBox="0 0 62.289 46.74" enable-background="new 0 0 62.289 46.74"
	 xml:space="preserve">
	  <?php echo $pattern;?>
<g>
	<g>
		<path style="fill:url(#frame); <?php echo $stroke;?>" d="M37.24,21.48l0.045-1.641h22.361l0.045,1.641H37.24z M59.578,17.265l0.113,4.215H37.24l0.115-4.245
			L59.578,17.265z M61.751,21.431l-0.246-21.43H35.482l-0.246,21.43L34.699,46.74h2.008l0.529-22.014h22.588l0.455,21.775h2.01
			L61.751,21.431z"/>
		<path style="fill:url(#frame); <?php echo $stroke;?>" d="M24.654,21.517L1.318,21.242v-1.817h23.479C24.73,20.142,24.682,20.843,24.654,21.517 M26.34,24.447
			c-0.066-0.576-0.1-1.217-0.1-1.906c-0.004-3.748,0.947-8.897,1.961-13.275c0.506-2.193,1.027-4.198,1.445-5.758
			c0.422-1.562,0.74-2.665,0.855-3.099L28.947,0c-0.104,0.389-0.428,1.521-0.852,3.09c-0.635,2.358-1.498,5.731-2.203,9.255
			c-0.461,2.299-1.02,6.977-1.238,9.172L1.092,21.24l0,0l-0.65-0.008L0,46.671l1.605,0.027l0.381-22.184l22.771,0.227
			c0.635,5.443,1.439,10.67,2.102,14.674c0.334,2.018,0.631,3.725,0.855,4.996c0.109,0.633,0.201,1.16,0.27,1.557
			c0.066,0.396,0.111,0.676,0.121,0.771l1.598-0.184c-0.021-0.178-0.066-0.449-0.135-0.857C29.09,42.88,27.447,33.98,26.34,24.447"
			/>
	</g>
	<polygon style="fill:url(#seat); <?php echo $stroke;?>" points="59.691,21.48 37.24,21.48 37.285,19.839 59.646,19.839 	"/>
	<path style="fill:url(#seat); <?php echo $stroke;?>" d="M1.313,21.244l0.006-1.819h23.563c0.023,0.489-0.265,1.581-0.228,2.092L1.313,21.244z"/>
</g>
</svg>
