<?xml version="1.0" encoding="utf-8"?>
<!-- Generator: Adobe Illustrator 14.0.0, SVG Export Plug-In . SVG Version: 6.00 Build 43363)  -->
<!DOCTYPE svg PUBLIC "-//W3C//DTD SVG 1.1//EN" "http://www.w3.org/Graphics/SVG/1.1/DTD/svg11.dtd">
<svg version="1.1" id="レイヤー_1" xmlns="http://www.w3.org/2000/svg" xmlns:xlink="http://www.w3.org/1999/xlink" x="0px"
	 y="0px" width="100%" height="100%" viewBox="0 0 71.504 55.565" enable-background="new 0 0 71.504 55.565"
	 xml:space="preserve">
	  <?php echo $pattern;?>
<g>
	<g>
		
		<path style="fill:url(#frame); <?php echo $stroke;?>" d="M71.504,17.905h-2.568L68.834,0H42.963l-0.102,17.905h-2.607l2.457,12.889l-0.527,24.771h1.996
			l0.525-21.889h22.459l0.451,21.652h1.998l-0.529-24.732L71.504,17.905z M42.783,24.766l-1.078-5.664h1.143L42.783,24.766z
			 M44.711,30.452l0.113-4.219l22.094,0.027l0.113,4.191H44.711z M68.949,19.102h1.104l-1.041,5.461L68.949,19.102z"/>
	</g>
	<g>
		<path style="fill:url(#frame); <?php echo $stroke;?>" d="M29.476,12.586c0.42-1.555,0.377-1.697,0.759-2.99C30.739,7.883,31.462,3.229,31.896,0h-1.389v0.193
			c-0.441,2.875-1.044,6.607-1.727,8.904c-0.226,0.764-0.427,1.512-0.847,3.072c-0.401,1.482-0.901,3.412-1.384,5.485l0,0
			L1.388,18.209H0.604L0.417,31.446L0,55.499l1.597,0.027l0.366-21.33l0.013,0.002l0.011-0.727l22.626,0.225
			c0.633,5.412,1.434,10.607,2.093,14.592c0.333,2.004,0.628,3.701,0.85,4.963c0.109,0.633,0.201,1.154,0.268,1.549
			c0.067,0.395,0.111,0.672,0.122,0.766l1.587-0.182c-0.021-0.176-0.065-0.445-0.134-0.85c-0.477-2.803-2.107-11.652-3.209-21.131
			c-0.067-0.572-0.1-1.209-0.1-1.895c-0.002-3.727,0.941-8.846,1.949-13.199C28.542,16.129,29.059,14.135,29.476,12.586z
			 M24.913,26.213c-0.092,0.668-0.336,3.631-0.4,4.275l-22.48-0.264L2.181,19.79l24.006-0.529c-0.15,0.686-0.304,1.406-0.443,2.109
			C25.421,22.981,25.132,24.62,24.913,26.213L24.913,26.213z"/>
	</g>
	<g>
		<polygon style="fill:url(#back); <?php echo $stroke;?>" points="42.994,26.006 43.186,0.225 68.611,0.225 68.805,26.034 		"/>
		<polygon style="fill:url(#seat); <?php echo $stroke;?>" points="44.711,30.452 44.756,28.819 66.988,28.819 67.031,30.452 		"/>
		<path style="fill:url(#back); <?php echo $stroke;?>" d="M28.78,9.098c-0.227,0.764-0.426,1.512-0.847,3.072c-0.402,1.492-0.896,3.396-1.384,5.485l-0.849,0.02
			l0.005-0.02c0.486-2.088,0.98-3.993,1.384-5.485c0.421-1.561,0.62-2.309,0.845-3.072c0.664-2.236,1.307-6.059,1.748-8.904h0.824
			C30.065,3.063,29.459,6.811,28.78,9.098"/>
		<path style="fill:url(#back); <?php echo $stroke;?>" d="M25.743,21.37c-0.309,1.545-0.586,3.115-0.802,4.646h-0.847c0.217-1.529,0.494-3.102,0.803-4.646
			c0.142-0.705,0.289-1.404,0.439-2.09l0.85-0.02C26.034,19.954,25.885,20.659,25.743,21.37"/>
		<path style="fill:url(#seat); <?php echo $stroke;?>" d="M24.513,30.489l-22.48-0.264l0.025-1.814h22.597C24.587,29.125,24.538,29.821,24.513,30.489"/>
	</g>
</g>
</svg>
