<?xml version="1.0" encoding="utf-8"?>
<!-- Generator: Adobe Illustrator 14.0.0, SVG Export Plug-In . SVG Version: 6.00 Build 43363)  -->
<!DOCTYPE svg PUBLIC "-//W3C//DTD SVG 1.1//EN" "http://www.w3.org/Graphics/SVG/1.1/DTD/svg11.dtd">
<svg version="1.1" id="レイヤー_1" xmlns="http://www.w3.org/2000/svg" xmlns:xlink="http://www.w3.org/1999/xlink" x="0px"
	 y="0px" width="100%" height="100%" viewBox="0 0 65.278 46.544" enable-background="new 0 0 65.278 46.544"
	 xml:space="preserve">
	      <defs>
        <pattern id="back" patternUnits="userSpaceOnUse" width="10" height="10">
            <?php echo $back;?>
        </pattern>
        <pattern id="seat" patternUnits="userSpaceOnUse" width="10" height="10">
            <?php echo $seat;?>
        </pattern>
        <pattern id="frame" patternUnits="userSpaceOnUse" width="10" height="10">
            <?php echo $frame;?>
        </pattern>
    </defs>
<path fill="url(#back)" stroke="#060001" stroke-width="0.15" d="M28.505,0.076c-0.134-0.051-1.41,2.963-1.492,3.165
	c-0.496,1.22-0.925,2.395-1.271,3.664c-0.618,2.271-1.064,4.981-1.22,7.848c-0.021,0.387-0.07,0.79-0.02,1.176
	c0.457,0.005,0.981,0.001,1.461,0.001c0.263-4.038,0.98-8.147,2.211-12.001c0.094-0.295,1.215-3.513,1.346-3.464L28.505,0.076z"/>
<g>
	<path fill="url(#frame)" d="M65.278,8.884h-2.566l-0.103-8.809H36.74l-0.102,8.809H34.03l2.457,12.889L35.96,46.544h1.996
		l0.525-21.887h22.458l0.452,21.648h1.998l-0.53-24.729L65.278,8.884z M36.56,15.746l-1.078-5.664h1.143L36.56,15.746z
		 M38.601,17.212l22.095,0.028l0.063,2.333H38.537L38.601,17.212z M38.487,21.431l0.044-1.631h22.232l0.044,1.631H38.487z
		 M62.726,10.082h1.103l-1.04,5.461L62.726,10.082z" stroke="#060001" stroke-width="0.15"/>
	<path fill="url(#frame)" d="M29.477,3.563c0.42-1.554,0.736-2.65,0.85-3.081l-1.545-0.407
		c-0.103,0.387-0.426,1.513-0.847,3.072c-0.402,1.493-0.896,3.396-1.384,5.485L1.388,9.188H0.604L0.418,22.424L0,46.476l1.598,0.029
		l0.366-21.33l0.011,0.001l0.012-0.727l22.629,0.225c0.631,5.412,1.432,10.607,2.091,14.59c0.332,2.006,0.627,3.703,0.849,4.966
		c0.11,0.629,0.201,1.152,0.269,1.549c0.066,0.393,0.111,0.672,0.121,0.766l1.589-0.184c-0.021-0.176-0.066-0.445-0.135-0.85
		c-0.477-2.802-2.107-11.651-3.21-21.131c-0.066-0.571-0.099-1.208-0.099-1.896c-0.003-3.726,0.941-8.844,1.949-13.197
		C28.542,7.106,29.06,5.113,29.477,3.563z M24.514,21.467L2.032,21.203l0.025-1.815h22.598
		C24.588,20.102,24.539,20.798,24.514,21.467z M25.743,12.349c-0.457,2.284-0.848,4.63-1.065,6.813H2.061l0.12-8.394l24.007-0.528
		C26.035,10.932,25.886,11.636,25.743,12.349z" stroke="#060001" stroke-width="0.15"/>
	<path fill="url(#seat)" d="M2.032,21.203l22.481,0.264c0.025-0.669,0.074-1.365,0.142-2.079H2.058L2.032,21.203z" stroke="#060001" stroke-width="0.15"/>
	<polygon fill="url(#seat)" points="38.531,19.8 38.487,21.431 60.808,21.431 60.764,19.8 	" stroke="#060001" stroke-width="0.15"/>
</g>
<g>
	<polygon fill="url(#back)" stroke="#060001" stroke-width="0.15" points="62.658,0.075 62.854,17.123 36.44,17.123 
		36.636,0.075 class="back" "/>
</g>
</svg>
