<?xml version="1.0" encoding="utf-8"?>
<!-- Generator: Adobe Illustrator 14.0.0, SVG Export Plug-In . SVG Version: 6.00 Build 43363)  -->
<!DOCTYPE svg PUBLIC "-//W3C//DTD SVG 1.1//EN" "http://www.w3.org/Graphics/SVG/1.1/DTD/svg11.dtd">
<svg version="1.1" id="レイヤー_1" xmlns="http://www.w3.org/2000/svg" xmlns:xlink="http://www.w3.org/1999/xlink" x="0px"
	 y="0px" width="100%" height="100%" viewBox="0 0 58.184 65.85" enable-background="new 0 0 58.184 65.85"
	 xml:space="preserve">
	  <?php echo $pattern;?>
<g>
	<path style="fill:url(#frame); <?php echo $stroke;?>" d="M3.604,47.569l1.479-25.383h15.824c0.295,0.747,0.592,1.85,0.863,3.191
		c1.055,5.213,1.783,14.062,2.242,22.191H3.604z M22.184,19.458H2.807l0,0H2.145v2.729h1.344L2.01,47.569H0v0.963h1.953
		L0.951,65.715l1.588,0.09l1.008-17.273h20.518c0.436,8.043,0.613,15.238,0.613,17.318h1.594c-0.002-2.493-0.244-11.877-0.861-21.51
		c-0.307-4.814-0.709-9.688-1.221-13.789c-0.258-2.051-0.541-3.91-0.859-5.479c-0.227-1.117-0.465-2.085-0.734-2.887l-0.045-0.164
		C22.402,21.477,22.277,20.616,22.184,19.458H3.086l0,0H22.184L22.184,19.458z M25.096,8.45c-1.104,4.592-1.551,7.686-1.625,10.373
		c0.018,0.355,0.039,0.697,0.063,1.021c0.074,1.051,0.174,1.798,0.236,2.174c0.906-0.031,1.588-0.174,1.588-0.348l0.596-2.517
		c-1.514-0.552-0.203-6.808,1.313-6.808l2.631-11.129C26.529,0.676,26.209,4.492,25.096,8.45"/>
	<g>
		
		<path style="fill:url(#frame); <?php echo $stroke;?>" d="M58.184,20.245h-0.469h-0.886l0.042-1.602c1.193-8.368,2.297-15.888-4.033-17.971
			c-2.906-0.959-8.221-0.87-10.471,0.127c-5.697,2.512-5.496,9.479-3.996,17.844l-0.063,1.602h-0.764h-0.396v2.264h0.932
			c-0.043,9.213-0.787,33.07-1.004,43.312l1.451,0.03c0.092-4.339,0.279-11.127,0.467-18.211h17.285
			c0.191,7.486,0.344,14.436,0.344,18.196h1.451c0-8.431-0.76-32.617-0.996-43.327h1.105V20.245z M44.613,7.895
			c2.926-0.294,4.363-0.181,6.109,0.076c3.98,0.61,3.457,3.486,3.367,4.479h-0.002c-0.449,1.914-0.359,1.612-0.791,3.392
			c-0.354,1.08-0.482,1.994-1.277,2.509h-8.686c-0.822-0.517-0.957-1.425-1.328-2.499c-0.457-1.785-0.361-1.481-0.834-3.4
			C41.076,11.442,40.545,8.517,44.613,7.895z M39.018,46.762c0.248-9.361,0.49-19.084,0.514-24.254h16.096
			c0.125,5.715,0.402,15.291,0.631,24.254H39.018z"/>
	</g>
	<rect x="37.545" y="18.643" style="fill:url(#seat); <?php echo $stroke;?>" width="20.17" height="1.602"/>
	<rect x="3.092" y="18.137" style="fill:url(#seat); <?php echo $stroke;?>" width="19.092" height="1.32"/>
</g>
</svg>
