<?xml version="1.0" encoding="iso-8859-1"?>
<!-- Generator: Adobe Illustrator 14.0.0, SVG Export Plug-In . SVG Version: 6.00 Build 43363)  -->
<!DOCTYPE svg PUBLIC "-//W3C//DTD SVG 1.1//EN" "http://www.w3.org/Graphics/SVG/1.1/DTD/svg11.dtd">
<svg version="1.1" id="&#x30EC;&#x30A4;&#x30E4;&#x30FC;_1"
	 xmlns="http://www.w3.org/2000/svg" xmlns:xlink="http://www.w3.org/1999/xlink" x="0px" y="0px" width="100%"
	 height="100%" viewBox="0 0 59.863 66.156" style="enable-background:new 0 0 59.863 66.156;" xml:space="preserve">
	 <?php echo $pattern;?>
<g>
	<g>
		<path style="fill:url(#frame); <?php echo $stroke;?>" d="M59.863,20.591H35.212l-0.138,2.366h1.543l-0.788,43.131h1.92l0.239-16.766h18.893l0.24,16.834
			h1.988L58.32,22.888h1.543V20.591z M38.121,48.06l0.439-25.2h17.92l0.24,25.24L38.121,48.06z"/>
	</g>
	<g>
		<path style="fill:url(#frame); <?php echo $stroke;?>" d="M58.221,1.159C58.124,0.711,56.881,0,56.881,0L37.44,0.02c0,0-0.96,0.359-1.319,1.199
			c-0.48,1.261-1.021,18.42-1.021,18.42s24.72,0.121,24.659,0C59.521,10.899,58.561,1.939,58.221,1.159z M55.98,17.279
			c0,0.475-0.54,0.76-0.54,0.76H39.42c-0.66,0-0.58-0.779-0.58-0.779s0-2.78,0-3.98s1.16-1.6,1.16-1.6s13.521-0.2,14.68,0
			c1.16,0.199,1.301,1.26,1.301,1.26S55.98,17.239,55.98,17.279z"/>
	</g>
	<g>
		<path style="fill:url(#frame); <?php echo $stroke;?>" d="M21.061,23.059c0-0.119-0.18-2.34-0.18-2.34L1.74,20.659v2.399H2.7l-0.96,23.94L0,47.06v0.899h1.68
			l-0.659,17.94l1.44,0.06L3.42,48.02h18.601l1.14,18.06l1.5-0.18C24.66,65.899,23.58,30.739,21.061,23.059z M3.36,46.939
			l0.96-23.76h15.12c0,0,1.38,0.779,2.46,23.939C22.08,47.119,3.36,46.939,3.36,46.939z"/>
	</g>
	<g id="&#x30B7;&#x30A7;&#x30A4;&#x30D7;_1_2_">
		<g>
			<path style="fill:url(#frame); <?php echo $stroke;?>" d="M22.68,11.779c-1.199,6.72-0.42,11.04-0.42,11.04
				s1.44,0.3,1.681-0.12c0.239-0.42,0.72-3.48,0.72-3.48s-0.779-0.06-0.3-5.16c0.72-4.139,2.521-5.579,2.521-5.579l1.319-7.74
				C28.2,0.739,24.36,2.899,22.68,11.779z"/>
		</g>
	</g>
</g>
</svg>
