<?xml version="1.0" encoding="utf-8"?>
<!-- Generator: Adobe Illustrator 14.0.0, SVG Export Plug-In . SVG Version: 6.00 Build 43363)  -->
<!DOCTYPE svg PUBLIC "-//W3C//DTD SVG 1.1//EN" "http://www.w3.org/Graphics/SVG/1.1/DTD/svg11.dtd">
<svg version="1.1" id="レイヤー_1" xmlns="http://www.w3.org/2000/svg" xmlns:xlink="http://www.w3.org/1999/xlink" x="0px"
	 y="0px" width="100%" height="100%" viewBox="0 0 60.169 47.099" enable-background="new 0 0 60.169 47.099"
	 xml:space="preserve">
	  <?php echo $pattern;?>
<g>
	<g>
		<g id="シェイプ_1_4_">
			<g>
				<polygon style="fill:url(#frame); <?php echo $stroke;?>" points="60.169,19.49 36.708,19.49 36.708,21.72 38.208,21.72 
					37.511,47.064 38.974,47.03 39.742,21.791 56.998,21.791 57.73,47.099 59.125,47.099 58.427,21.826 60.169,21.826 				"/>
			</g>
		</g>
		<g id="シェイプ_2_2_">
			<g>
				<path style="fill:url(#frame); <?php echo $stroke;?>" d="M58.845,1.675c-0.139-1.534-1.498-1.674-1.498-1.674H39.289
					c0,0-1.359-0.104-1.57,1.499c-0.207,1.604-1.08,13.666-0.906,17.222h23.357C60.169,18.722,59.193,3.488,58.845,1.675z
					 M56.718,16.073c-0.209,1.255-1.951,1.43-1.951,1.43s-2.059,0.453-6.344,0.418c-5.65-0.244-7.74-0.104-8.193-1.987
					c-0.035-2.789,0.139-3.904,0.139-3.904c0.244-0.941,1.186-1.15,1.186-1.15s12.725,0,13.734,0c1.012,0,1.291,1.08,1.291,1.08
					S56.892,14.783,56.718,16.073z"/>
			</g>
		</g>
		<g id="シェイプ_4_2_">
			<g>
				<path style="fill:url(#frame); <?php echo $stroke;?>" d="M28.795,0.42c-0.662,0.174-2.195,0.383-3.73,7.913
					c-0.242,0.559-1.463,5.822-1.463,7.355c0,1.534-0.209,2.057,0.174,5.787c0.871,0.105,1.674-0.104,1.674-0.035l0.801-2.789
					c0,0-1.498-0.244-0.418-4.393c0.697-1.673,0.975-2.439,1.742-2.475c0.35-1.464,2.93-11.399,2.93-11.399
					S29.457,0.246,28.795,0.42z"/>
			</g>
		</g>
		<g id="シェイプ_5_2_">
			<g>
				<path style="fill:url(#frame); <?php echo $stroke;?>" d="M24.682,31.551c-0.383-3.312-1.359-9.134-1.742-9.831
					c-0.176-0.871-0.211-2.824-0.211-2.824L0.453,18.828v2.928h1.115L0,47.03l1.498,0.034l1.5-25.379h18.301
					c0,0,1.152,2.58,1.814,10.11c0.279,1.847,1.115,12.864,1.324,15.095c0.803,0.035,1.324-0.035,1.324-0.035
					S25.1,32.562,24.682,31.551z"/>
			</g>
		</g>
	</g>
	<rect x="36.708" y="17.603" style="fill:url(#seat); <?php echo $stroke;?>" width="23.461" height="1.886"/>
	<rect x="1.281" y="17.679" style="fill:url(#seat); <?php echo $stroke;?>" width="21.375" height="1.379"/>
</g>
</svg>
