<?xml version="1.0" encoding="iso-8859-1"?>
<!-- Generator: Adobe Illustrator 14.0.0, SVG Export Plug-In . SVG Version: 6.00 Build 43363)  -->
<!DOCTYPE svg PUBLIC "-//W3C//DTD SVG 1.1//EN" "http://www.w3.org/Graphics/SVG/1.1/DTD/svg11.dtd">
<svg version="1.1" id="&#x30EC;&#x30A4;&#x30E4;&#x30FC;_1"
	 xmlns="http://www.w3.org/2000/svg" xmlns:xlink="http://www.w3.org/1999/xlink" x="0px" y="0px" width="100%"
	 height="100%" viewBox="0 0 57.891 47.305" style="enable-background:new 0 0 57.891 47.305;" xml:space="preserve">
	 <?php echo $pattern;?>
<g>
	<path style="fill:url(#frame); <?php echo $stroke;?>" d="M44.238,8.286c2.84-0.278,4.234-0.172,5.928,0.07c3.859,0.571,3.355,3.273,3.268,4.204h-0.002
		c-0.438,1.798-0.348,1.516-0.77,3.186c-0.482,1.432-0.531,2.549-2.574,2.745c0,0-1.07,0.301-5.66,0.015
		c-2.156-0.197-2.207-1.316-2.717-2.751c-0.443-1.674-0.352-1.392-0.811-3.192C40.811,11.615,40.293,8.867,44.238,8.286
		 M56.221,19.317c0.299-1.79,0.834-4.961,1.205-8.554c0-1.749,0.721-7.241-3.898-9.476c-2.646-1.264-7.701-1.944-12.271-0.389
		c-5.799,2.474-4.459,10.009-3.252,18.418H56.221z"/>
	<path style="fill:url(#back); <?php echo $stroke;?>" d="M21.684,18.287c-0.006,0.282-0.01,0.563-0.01,0.845c0,0.997,0.039,1.994,0.117,2.98l1.545-0.332
		l0.652-3.479c-0.787-2.999,1.227-9.979,2.59-10.889L28.5,0.491C25.223,1.158,22.436,11.017,21.684,18.287"/>
	<path style="fill:url(#frame); <?php echo $stroke;?>" d="M19.592,22.499c0.313,0.824,0.621,2.125,0.896,3.737c0.871,5.064,1.48,13.234,1.873,20.871
		l1.277-0.064c-0.264-5.106-0.621-10.446-1.094-14.97c-0.234-2.262-0.498-4.319-0.795-6.046c-0.246-1.419-0.508-2.609-0.807-3.528
		h0.023l-0.021-0.215c-0.07-0.708-0.137-1.73-0.186-2.521H0.289v2.741l1.152-0.002L0,47.232l1.277,0.072L2.73,22.503L19.592,22.499z
		"/>
	<polygon style="fill:url(#frame); <?php echo $stroke;?>" points="55.008,22.295 39.113,22.295 38.443,47.096 37.17,47.063 37.838,22.295 36.361,22.295 
		36.361,19.975 57.891,19.975 57.891,22.295 56.283,22.295 56.953,47.063 55.68,47.096 	"/>
</g>
</svg>
