<?xml version="1.0" encoding="utf-8"?>
<!-- Generator: Adobe Illustrator 14.0.0, SVG Export Plug-In . SVG Version: 6.00 Build 43363)  -->
<!DOCTYPE svg PUBLIC "-//W3C//DTD SVG 1.1//EN" "http://www.w3.org/Graphics/SVG/1.1/DTD/svg11.dtd">
<svg version="1.1" id="レイヤー_1" xmlns="http://www.w3.org/2000/svg" xmlns:xlink="http://www.w3.org/1999/xlink" x="0px"
	 y="0px" width="100%" height="100%" viewBox="0 0 59.864 66.156" enable-background="new 0 0 59.864 66.156"
	 xml:space="preserve">
	  <?php echo $pattern;?>
<g>
	<g id="シェイプ_8_3_">
		<g>
			<polygon style="fill:url(#seat); <?php echo $stroke;?>" points="2.169,19.162 2.169,20.722 20.837,20.722 20.837,19.11 
							"/>
		</g>
	</g>
	<g>
		<path style="fill:url(#frame); <?php echo $stroke;?>" d="M59.864,20.659H35.075v2.298h1.543l-0.787,43.131h1.92l0.238-16.766h18.893l0.24,16.834h1.988
			l-0.789-43.269h1.543V20.659z M38.122,48.06l0.439-25.2h17.92l0.24,25.24L38.122,48.06z"/>
	</g>
	<g>
		<path style="fill:url(#frame); <?php echo $stroke;?>" d="M58.221,1.159C58.125,0.711,56.881,0,56.881,0L37.442,0.02c0,0-0.961,0.359-1.32,1.199
			c-0.48,1.261-1.02,18.42-1.02,18.42s24.713,0.112,24.658,0C59.522,10.899,58.561,1.939,58.221,1.159z M55.981,17.279
			c0,0.475-0.539,0.76-0.539,0.76H39.42c-0.66,0-0.58-0.779-0.58-0.779s0-2.78,0-3.98s1.16-1.6,1.16-1.6s13.521-0.2,14.68,0
			c1.16,0.199,1.301,1.26,1.301,1.26S55.981,17.239,55.981,17.279z"/>
	</g>
	<g id="シェイプ_9_1_">
		<g>
			<rect x="35.102" y="19.012" style="fill:url(#seat); <?php echo $stroke;?>" width="24.762" height="1.688"/>
		</g>
	</g>
	<g>
		<path style="fill:url(#frame); <?php echo $stroke;?>" d="M21.061,23.059c0-0.119-0.18-2.399-0.18-2.399H1.74v2.399h0.961L1.74,46.999L0,47.06v0.899h1.68
			l-0.658,17.94l1.439,0.06L3.42,48.02h18.602l1.139,18.06l1.5-0.18C24.66,65.899,23.58,30.739,21.061,23.059z M3.361,46.939
			L4.32,23.18h15.121c0,0,1.379,0.779,2.459,23.939C22.08,47.119,3.361,46.939,3.361,46.939z"/>
	</g>
	<g id="シェイプ_1_5_">
		<g>
			<path style="fill:url(#frame); <?php echo $stroke;?>" d="M22.68,11.779c-1.199,6.72-0.42,11.04-0.42,11.04
				s1.441,0.3,1.682-0.12c0.238-0.42,0.719-3.48,0.719-3.48s-0.779-0.06-0.299-5.16c0.719-4.139,2.52-5.579,2.52-5.579l1.32-7.74
				C28.201,0.739,24.361,2.899,22.68,11.779z"/>
		</g>
	</g>
</g>
</svg>
