<?xml version="1.0" encoding="iso-8859-1"?>
<!-- Generator: Adobe Illustrator 14.0.0, SVG Export Plug-In . SVG Version: 6.00 Build 43363)  -->
<!DOCTYPE svg PUBLIC "-//W3C//DTD SVG 1.1//EN" "http://www.w3.org/Graphics/SVG/1.1/DTD/svg11.dtd">
<svg version="1.1" id="&#x30EC;&#x30A4;&#x30E4;&#x30FC;_1"
	 xmlns="http://www.w3.org/2000/svg" xmlns:xlink="http://www.w3.org/1999/xlink" x="0px" y="0px" width="100%"
	 height="100%" viewBox="0 0 58.182 65.85" style="enable-background:new 0 0 58.182 65.85;" xml:space="preserve">
	 <?php echo $pattern;?>
<g>
	<path style="fill:url(#frame); <?php echo $stroke;?>" d="M56.256,46.762H39.018c0.246-9.361,0.488-19.084,0.514-24.254h16.094
		C55.752,28.223,56.027,37.799,56.256,46.762 M58.182,20.244H37.146v2.264h0.932c-0.043,9.213-0.785,33.07-1.004,43.312l1.453,0.03
		c0.092-4.339,0.277-11.127,0.465-18.211h17.287c0.189,7.486,0.342,14.436,0.342,18.196h1.451c0-8.431-0.758-32.617-0.994-43.327
		h1.104V20.244z"/>
	<path style="fill:url(#frame); <?php echo $stroke;?>" d="M54.17,12.45h-0.002c-0.449,1.914-0.359,1.612-0.793,3.392c-0.498,1.523-0.547,2.715-2.652,2.925
		c0,0-1.105,0.319-5.836,0.016c-2.223-0.211-2.275-1.403-2.801-2.931c-0.459-1.784-0.361-1.48-0.836-3.4
		c-0.094-1.01-0.625-3.935,3.441-4.557c2.926-0.294,4.365-0.181,6.111,0.076C54.783,8.582,54.26,11.457,54.17,12.45 M52.916,0.672
		c-2.904-0.959-8.219-0.869-10.469,0.127c-5.951,2.625-5.52,9.788-3.838,18.678h18.23C58.084,10.637,59.531,2.849,52.916,0.672"/>
	<path style="fill:url(#frame); <?php echo $stroke;?>" d="M3.053,46.707L3.961,22.57h14.348c0.189,0.487,0.41,1.373,0.604,2.505
		c0.797,4.577,1.414,13.332,1.871,21.632H3.053z M19.656,20.076H1.607v2.494h0.896L1.596,46.707H0v0.879h1.563L0.879,65.708
		l1.455,0.054l0.684-18.176h17.814c0.434,8.021,0.727,15.475,0.918,18.264l1.453-0.098c-0.225-3.236-0.592-13.078-1.17-22.646
		c-0.289-4.787-0.629-9.509-1.031-13.324c-0.203-1.909-0.42-3.59-0.656-4.946c-0.16-0.907-0.32-1.66-0.504-2.265L19.656,20.076z"/>
	<path style="fill:url(#frame); <?php echo $stroke;?>" d="M20.73,20.076h-0.01c0.061,0.884,0.143,1.658,0.232,2.309h0.006l1.627-0.355l0.59-3.189
		c-1.402-2.068,0.314-10.49,2.051-11.107L26.656,0C22.156,2.714,20.482,13.953,20.73,20.076"/>
</g>
</svg>
