<?xml version="1.0" encoding="iso-8859-1"?>
<!-- Generator: Adobe Illustrator 14.0.0, SVG Export Plug-In . SVG Version: 6.00 Build 43363)  -->
<!DOCTYPE svg PUBLIC "-//W3C//DTD SVG 1.1//EN" "http://www.w3.org/Graphics/SVG/1.1/DTD/svg11.dtd">
<svg version="1.1" id="&#x30EC;&#x30A4;&#x30E4;&#x30FC;_1"
	 xmlns="http://www.w3.org/2000/svg" xmlns:xlink="http://www.w3.org/1999/xlink" x="0px" y="0px" width="100%"
	 height="100%" viewBox="0 0 60.24 47.099" style="enable-background:new 0 0 60.24 47.099;" xml:space="preserve">
	 <?php echo $pattern;?>
<g>
	<g id="&#x30B7;&#x30A7;&#x30A4;&#x30D7;_1">
		<g>
			<polygon style="fill:url(#frame); <?php echo $stroke;?>" points="60.17,19.49 36.709,19.49 36.709,21.72 
				38.208,21.72 37.512,47.064 38.975,47.03 39.742,21.791 56.998,21.791 57.729,47.099 59.125,47.099 58.428,21.826 60.17,21.826 
							"/>
		</g>
	</g>
	<g id="&#x30B7;&#x30A7;&#x30A4;&#x30D7;_2">
		<g>
			<path style="fill:url(#frame); <?php echo $stroke;?>" d="M58.846,1.675c-0.139-1.534-1.499-1.674-1.499-1.674H39.289
				c0,0-1.36-0.104-1.57,1.499c-0.207,1.604-1.08,13.666-0.906,17.222H60.24C60.24,18.722,59.193,3.488,58.846,1.675z
				 M56.719,16.073c-0.209,1.255-1.952,1.43-1.952,1.43s-2.058,0.453-6.344,0.418c-5.649-0.244-7.739-0.104-8.193-1.987
				c-0.034-2.789,0.139-3.904,0.139-3.904c0.245-0.941,1.187-1.15,1.187-1.15s12.724,0,13.734,0c1.012,0,1.291,1.08,1.291,1.08
				S56.893,14.783,56.719,16.073z"/>
		</g>
	</g>
	<g id="&#x30B7;&#x30A7;&#x30A4;&#x30D7;_4">
		<g>
			<path style="fill:url(#frame); <?php echo $stroke;?>" d="M28.795,0.42c-0.663,0.174-2.195,0.383-3.73,7.913
				c-0.243,0.559-1.464,5.822-1.464,7.355c0,1.534-0.209,2.057,0.175,5.787c0.871,0.105,1.673-0.104,1.673-0.035l0.802-2.789
				c0,0-1.499-0.244-0.419-4.393c0.698-1.673,0.976-2.439,1.743-2.475c0.35-1.464,2.93-11.399,2.93-11.399S29.457,0.246,28.795,0.42
				z"/>
		</g>
	</g>
	<g id="&#x30B7;&#x30A7;&#x30A4;&#x30D7;_5">
		<g>
			<path style="fill:url(#frame); <?php echo $stroke;?>" d="M24.681,31.551c-0.383-3.312-1.358-9.134-1.742-9.831
				c-0.175-0.871-0.21-2.824-0.21-2.824L0.453,18.828v2.928h1.115L0,47.03l1.498,0.034l1.5-25.379h18.301
				c0,0,1.151,2.58,1.814,10.11c0.278,1.847,1.115,12.864,1.324,15.095c0.802,0.035,1.324-0.035,1.324-0.035
				S25.1,32.562,24.681,31.551z"/>
		</g>
	</g>
</g>
</svg>
