<?xml version="1.0" encoding="utf-8"?>
<!-- Generator: Adobe Illustrator 14.0.0, SVG Export Plug-In . SVG Version: 6.00 Build 43363)  -->
<!DOCTYPE svg PUBLIC "-//W3C//DTD SVG 1.1//EN" "http://www.w3.org/Graphics/SVG/1.1/DTD/svg11.dtd">
<svg version="1.1" id="レイヤー_1" xmlns="http://www.w3.org/2000/svg" xmlns:xlink="http://www.w3.org/1999/xlink" x="0px"
	 y="0px" width="100%" height="100%" viewBox="0 0 59.232 47.105" enable-background="new 0 0 59.232 47.105"
	 xml:space="preserve">
	  <?php echo $pattern;?>
<g>
	<path style="fill:url(#frame); <?php echo $stroke;?>" d="M21.796,17.987c-0.006,0.284-0.008,0.568-0.008,0.853c0,1.008,0.037,2.016,0.116,3.014l1.562-0.336
		l0.661-3.516C23.33,14.97,25.365,7.914,26.742,6.996L28.686,0C25.373,0.674,22.558,10.638,21.796,17.987"/>
	<path style="fill:url(#frame); <?php echo $stroke;?>" d="M21.981,25.213c-0.247-1.459-0.511-2.684-0.813-3.63h0.021l-0.02-0.222
		c-0.072-0.729-0.139-1.78-0.189-2.592H1.268l0,0H20.98l0,0H0.986l0,0H0.289v2.818h1.168L0,47.03l1.289,0.074L2.76,21.588
		l17.04-0.004c0.317,0.847,0.628,2.186,0.908,3.844c0.88,5.211,1.495,13.617,1.894,21.475l1.291-0.066
		c-0.269-5.253-0.628-10.748-1.105-15.4C22.55,29.106,22.281,26.99,21.981,25.213"/>
	<g>
		<g>
			<path fill="none" d="M51.34,8.484c-1.709-0.246-3.121-0.352-5.99-0.072c-3.988,0.589-3.465,3.365-3.375,4.324
				c0.467,1.82,0.371,1.533,0.822,3.227c0.136,0.384,0.24,0.743,0.361,1.07h10.359c0.115-0.33,0.217-0.692,0.348-1.079
				c0.424-1.688,0.334-1.403,0.775-3.22h0.002C54.732,11.793,55.243,9.063,51.34,8.484z"/>
			<path style="fill:url(#frame); <?php echo $stroke;?>" d="M59.232,19.2h-1.348l-0.012-2.167l0,0c0.266-1.707,0.57-3.825,0.805-6.115
				c0-1.77,0.729-7.319-3.939-9.578c-2.676-1.277-7.782-1.965-12.404-0.393c-5.271,2.249-4.703,8.641-3.649,16.086l0,0l-0.05,2.167
				h-1.162v2.388h1.494L38.289,47.07l1.289,0.035l0.676-25.518h16.067l0.677,25.518l1.287-0.035l-0.677-25.482h1.624V19.2z
				 M54.643,12.734h-0.002c-0.441,1.816-0.352,1.531-0.775,3.22c-0.131,0.387-0.324,1.03-0.439,1.36H43.281
				c-0.121-0.327-0.349-0.968-0.484-1.352c-0.451-1.693-0.355-1.406-0.822-3.227c-0.09-0.959-0.613-3.735,3.375-4.324
				c2.869-0.279,4.281-0.174,5.99,0.072C55.243,9.063,54.732,11.793,54.643,12.734z"/>
		</g>
	</g>
	<rect x="38.104" y="17.314" style="fill:url(#seat); <?php echo $stroke;?>" width="20.498" height="1.886"/>
	<rect x="1.268" y="17.391" style="fill:url(#seat); <?php echo $stroke;?>" width="19.713" height="1.379"/>
</g>
</svg>
